<svg xmlns="http://www.w3.org/2000/svg" width="24" height="24" fill="none" viewBox="0 0 24 24">
  <path fill="#47474F"
    d="M12 18.6v.75-.75Zm3.111-1.289.53.53-.53-.53ZM12 9.8v.75-.75Zm-4.4 4.4h.75-.75Zm-.36-.778a.75.75 0 1 0 1.112-1.006l-1.113 1.006ZM1 5.4l-.56-.498a.75.75 0 0 0 .004 1L1 5.4ZM4.911 1V.25a.75.75 0 0 0-.56.252L4.91 1Zm3.94 9.889a.75.75 0 0 0 1.35-.652l-1.35.652Zm6.797 1.527a.75.75 0 0 0 1.113 1.006l-1.113-1.006ZM23 5.4l.556.503a.75.75 0 0 0 .005-1.001L23 5.4ZM19.089 1l.56-.498a.75.75 0 0 0-.56-.252V1Zm-5.29 9.237a.75.75 0 0 0 1.35.652l-1.35-.652Zm-.577-4.087a.75.75 0 0 0 0-1.5v1.5Zm-2.444-1.5a.75.75 0 0 0 0 1.5v-1.5ZM11.25 23a.75.75 0 0 0 1.5 0h-1.5Zm1.5-1.467a.75.75 0 0 0-1.5 0h1.5Zm4.938-.584a.75.75 0 0 0 1.061-1.06l-1.06 1.06Zm.025-2.097a.75.75 0 0 0-1.061 1.06l1.06-1.06ZM5.25 19.888a.75.75 0 0 0 1.06 1.061l-1.06-1.06Zm2.097.025a.75.75 0 0 0-1.06-1.061l1.06 1.06Zm11.985-5.73a.75.75 0 0 0 0 1.5v-1.5Zm1.467 1.5a.75.75 0 0 0 0-1.5v1.5Zm-17.6-1.5a.75.75 0 0 0 0 1.5v-1.5Zm1.467 1.5a.75.75 0 0 0 0-1.5v1.5ZM12 19.35a5.15 5.15 0 0 0 1.97-.392l-.573-1.386A3.65 3.65 0 0 1 12 17.85v1.5Zm1.97-.392a5.15 5.15 0 0 0 1.672-1.116L14.58 16.78a3.65 3.65 0 0 1-1.184.791l.574 1.386Zm1.672-1.116a5.15 5.15 0 0 0 1.116-1.671l-1.386-.574a3.65 3.65 0 0 1-.791 1.184l1.06 1.06Zm1.116-1.671a5.15 5.15 0 0 0 .392-1.971h-1.5c0 .48-.094.954-.278 1.397l1.386.574Zm.392-1.971a5.15 5.15 0 0 0-.392-1.97l-1.386.573c.184.443.278.918.278 1.397h1.5Zm-.392-1.97a5.15 5.15 0 0 0-1.116-1.672L14.58 11.62c.339.339.608.741.791 1.184l1.386-.574Zm-1.116-1.672a5.15 5.15 0 0 0-1.671-1.116l-.574 1.386a3.65 3.65 0 0 1 1.184.791l1.06-1.06ZM13.97 9.442A5.15 5.15 0 0 0 12 9.05v1.5c.48 0 .954.094 1.397.278l.574-1.386ZM12 9.05a5.15 5.15 0 0 0-3.642 1.508L9.42 11.62A3.65 3.65 0 0 1 12 10.55v-1.5Zm-3.642 1.508A5.15 5.15 0 0 0 6.85 14.2h1.5a3.65 3.65 0 0 1 1.07-2.58l-1.062-1.062ZM6.85 14.2a5.15 5.15 0 0 0 1.508 3.642L9.42 16.78A3.65 3.65 0 0 1 8.35 14.2h-1.5Zm1.508 3.642A5.15 5.15 0 0 0 12 19.35v-1.5a3.65 3.65 0 0 1-2.58-1.07l-1.062 1.062Zm3.647-4.02c.102 0 .2.04.27.112l-1.06 1.06c.21.21.494.328.79.328v-1.5Zm.27.112c.073.072.113.17.113.27h-1.5c0 .297.118.581.327.79l1.06-1.06Zm.113.27c0 .103-.04.2-.112.272l-1.06-1.06c-.21.209-.328.493-.328.789h1.5Zm-.112.272a.383.383 0 0 1-.271.112v-1.5c-.296 0-.58.118-.79.327l1.06 1.06Zm-.271.846c.296 0 .58-.118.79-.327l-1.061-1.061a.383.383 0 0 1 .27-.112v1.5Zm.79-.327c.209-.21.327-.494.327-.79h-1.5c0-.102.04-.2.112-.271l1.06 1.06Zm.327-.79c0-.296-.118-.58-.328-.79l-1.06 1.06a.383.383 0 0 1-.112-.27h1.5Zm-.328-.79a1.117 1.117 0 0 0-.79-.327v1.5c-.1 0-.198-.04-.27-.112l1.06-1.06Zm-4.442-.999L1.556 4.897.444 5.903l6.795 7.519 1.113-1.006ZM1.561 5.898l3.91-4.4-1.12-.996-3.912 4.4 1.122.996Zm2.675-4.572 4.615 9.563 1.35-.652L5.588.674l-1.351.652ZM16.76 13.422l6.795-7.52-1.112-1.005-6.796 7.52 1.113 1.005Zm6.8-8.52-3.912-4.4-1.12.996 3.91 4.4 1.122-.996ZM18.413.674l-4.615 9.563 1.351.652 4.615-9.563-1.35-.652ZM4.911 1.75H19.09V.25H4.91v1.5Zm8.311 2.9h-2.444v1.5h2.444v-1.5ZM12.75 23v-1.467h-1.5V23h1.5Zm5.999-3.112-1.036-1.036-1.061 1.06 1.036 1.037 1.061-1.06ZM6.312 20.95l1.036-1.036-1.06-1.061-1.037 1.036 1.06 1.061Zm13.021-5.266H20.8v-1.5h-1.467v1.5Zm-16.133 0h1.467v-1.5H3.2v1.5Z" />
</svg>