<svg xmlns="http://www.w3.org/2000/svg" width="16" height="16" fill="none" viewBox="0 0 16 16">
  <path fill="#47474F"
    d="M8 12.4v.5-.5Zm0-5.867v.5-.5ZM5.066 9.467h.5-.5Zm-.24-.519a.5.5 0 0 0 .742-.67l-.742.67ZM.666 3.6l-.373-.332a.5.5 0 0 0 .003.667l.37-.335ZM3.275.667v-.5A.5.5 0 0 0 2.9.335l.374.332ZM5.9 7.259a.5.5 0 0 0 .9-.434l-.9.434Zm4.532 1.019a.5.5 0 0 0 .742.67l-.742-.67ZM15.333 3.6l.371.335a.5.5 0 0 0 .003-.667l-.374.332ZM12.726.667l.373-.332a.5.5 0 0 0-.373-.168v.5ZM9.199 6.825a.5.5 0 0 0 .9.434l-.9-.434ZM8.815 4.1a.5.5 0 0 0 0-1v1Zm-1.63-1a.5.5 0 0 0 0 1v-1ZM7.5 15.333a.5.5 0 1 0 1 0h-1Zm1-.977a.5.5 0 0 0-1 0h1Zm3.292-.39a.5.5 0 0 0 .707-.707l-.707.707Zm.016-1.398a.5.5 0 1 0-.707.707l.707-.707Zm-8.307.691a.5.5 0 1 0 .707.707L3.5 13.26Zm1.398.016a.5.5 0 1 0-.708-.707l.708.707Zm7.99-3.82a.5.5 0 0 0 0 1v-1Zm.978 1a.5.5 0 1 0 0-1v1Zm-11.734-1a.5.5 0 1 0 0 1v-1Zm.978 1a.5.5 0 1 0 0-1v1ZM8 12.9c.45 0 .897-.089 1.314-.261l-.383-.924A2.435 2.435 0 0 1 8 11.9v1Zm1.314-.261a3.433 3.433 0 0 0 1.114-.744l-.708-.708a2.434 2.434 0 0 1-.789.528l.383.924Zm1.114-.744c.318-.32.571-.698.744-1.114l-.924-.383a2.432 2.432 0 0 1-.528.79l.708.707Zm.744-1.114c.172-.417.261-.863.261-1.314h-1c0 .32-.063.636-.185.93l.924.384Zm.261-1.314c0-.451-.089-.898-.261-1.314l-.924.383c.122.295.185.611.185.93h1Zm-.261-1.314a3.433 3.433 0 0 0-.744-1.114l-.708.707c.226.226.406.494.528.79l.924-.383Zm-.744-1.114a3.433 3.433 0 0 0-1.114-.744l-.383.924c.295.122.564.301.79.527l.707-.707Zm-1.114-.744A3.433 3.433 0 0 0 8 6.033v1c.32 0 .636.063.931.186l.383-.924ZM8 6.033c-.91 0-1.784.362-2.428 1.006l.707.707A2.433 2.433 0 0 1 8 7.033v-1ZM5.572 7.04a3.433 3.433 0 0 0-1.006 2.428h1c0-.646.257-1.265.713-1.72l-.707-.708ZM4.566 9.467c0 .91.362 1.784 1.006 2.428l.707-.708a2.434 2.434 0 0 1-.713-1.72h-1Zm1.006 2.428A3.433 3.433 0 0 0 8 12.9v-1a2.433 2.433 0 0 1-1.72-.713l-.708.708Zm2.431-2.68c.068 0 .133.026.18.074l-.706.707c.14.14.329.218.526.218v-1Zm.18.074a.256.256 0 0 1 .076.181h-1c0 .197.078.387.218.526l.707-.707Zm.076.181a.256.256 0 0 1-.075.18l-.707-.706a.744.744 0 0 0-.218.526h1Zm-.075.18a.256.256 0 0 1-.18.076v-1a.744.744 0 0 0-.527.218l.707.707Zm-.18.564a.745.745 0 0 0 .526-.218l-.708-.707a.256.256 0 0 1 .181-.075v1Zm.526-.218a.744.744 0 0 0 .218-.526h-1c0-.068.026-.133.074-.18l.708.706Zm.218-.526a.744.744 0 0 0-.218-.526l-.708.707a.256.256 0 0 1-.074-.181h1Zm-.218-.526a.744.744 0 0 0-.527-.218v1a.256.256 0 0 1-.18-.075l.707-.707Zm-2.962-.666-4.53-5.013-.742.67 4.53 5.013.742-.67ZM1.04 3.932 3.648 1 2.9.335.293 3.268l.747.664ZM2.824.884 5.9 7.26l.9-.434L3.725.449l-.9.435Zm8.35 8.064 4.53-5.013-.742-.67-4.53 5.013.742.67Zm4.533-5.68L13.1.335l-.748.664 2.607 2.933.748-.664ZM12.275.449 9.2 6.825l.9.434L13.176.884l-.9-.435Zm-9.001.718h9.452v-1H3.274v1ZM8.814 3.1H7.186v1h1.63v-1ZM8.5 15.333v-.977h-1v.977h1Zm4-2.074-.692-.691-.707.707.691.691.707-.707Zm-8.292.707.69-.69-.707-.708-.69.691.707.707Zm8.68-3.51h.979v-1h-.978v1Zm-10.755 0h.978v-1h-.978v1Z" />
</svg>