<svg xmlns="http://www.w3.org/2000/svg" width="32" height="32" fill="none" viewBox="0 0 32 32">
  <path stroke="#3F3F46" stroke-linecap="round" stroke-linejoin="round" stroke-width="2"
    d="M7.137 1.208a2 2 0 0 1 .775.683l1.663 2.498 1.467-1.404a2 2 0 0 1 3.2.52L17 9.023H1l3.46-6.918a2 2 0 0 1 2.677-.897ZM27 4l-4 11h8L27 4ZM27 15v4M5 16 1 27h8L5 16ZM5 27v4M26 26.267a6.424 6.424 0 0 1 1.694 2.74M20 23.798c.32.077.652.145 1 .202.682.11 1.354.279 2.009.502M14.267 19.556A7.66 7.66 0 0 0 16 21.823M13 13c-.002.78.037 1.558.117 2.333" />
</svg>