<svg xmlns="http://www.w3.org/2000/svg" width="16" height="16" fill="none" viewBox="0 0 16 16">
  <path stroke="#3F3F46" stroke-linecap="round" stroke-linejoin="round"
    d="M3.568.604a1 1 0 0 1 .388.341l.83 1.25.734-.702a1 1 0 0 1 1.6.26L8.5 4.51h-8l1.729-3.458a1 1 0 0 1 1.339-.45ZM13.5 2l-2 5.5h4l-2-5.5ZM13.5 7.5v2M2.5 8l-2 5.5h4L2.5 8ZM2.5 13.5v2M13 13.133c.394.378.685.85.846 1.371M10 11.899c.16.038.325.072.499.101.341.055.677.14 1.005.25M7.133 9.778c.216.429.51.813.867 1.133M6.5 6.5c-.002.39.018.78.058 1.167" />
</svg>