<svg xmlns="http://www.w3.org/2000/svg" width="16" height="16" fill="none" viewBox="0 0 16 16">
  <path stroke="#3F3F46" stroke-linecap="round" stroke-linejoin="round"
    d="M10.711 2h2.955a1 1 0 0 1 1 1v10a1 1 0 0 1-1 1h-2.955M8.069 15.328l-6.286-.838a.534.534 0 0 1-.322-.163.47.47 0 0 1-.128-.32V2.603c0-.112.041-.221.116-.308a.53.53 0 0 1 .298-.17L8.033.676a.56.56 0 0 1 .439.098c.06.046.11.104.143.17a.462.462 0 0 1 .051.21v13.69c0 .07-.016.139-.047.202a.493.493 0 0 1-.133.167.536.536 0 0 1-.418.114ZM5.667 8h1" />
</svg>