<svg xmlns="http://www.w3.org/2000/svg" width="32" height="32" fill="none" viewBox="0 0 32 32">
  <path stroke="#3F3F46" stroke-linecap="round" stroke-linejoin="round" stroke-width="2"
    d="M21.4 4h5.934a2 2 0 0 1 2 2v20a2 2 0 0 1-2 2H21.4M16.138 30.657 3.567 28.98a1.07 1.07 0 0 1-.644-.327.94.94 0 0 1-.256-.64V5.207c0-.224.082-.441.233-.615.15-.174.36-.295.595-.342l12.572-2.895a1.12 1.12 0 0 1 .463.005c.152.034.294.099.415.19.122.092.22.208.287.34a.924.924 0 0 1 .102.422v27.377c0 .14-.033.279-.095.406a.987.987 0 0 1-.267.332c-.113.092-.246.16-.39.2a1.12 1.12 0 0 1-.444.03ZM11.334 16h2" />
</svg>