<svg xmlns="http://www.w3.org/2000/svg" width="16" height="16" fill="none" viewBox="0 0 16 16">
  <path stroke="#3F3F46" stroke-linecap="round" stroke-linejoin="round"
    d="M13.963 1.333H2.037a.483.483 0 0 0-.306.11.502.502 0 0 0-.172.282L.667 5.167c0 .397.154.779.43 1.06.274.282.647.44 1.036.44a1.45 1.45 0 0 0 1.037-.44c.275-.281.43-.663.43-1.06 0 .397.154.779.43 1.06.274.282.648.44 1.036.44a1.45 1.45 0 0 0 1.038-.44c.275-.281.43-.663.43-1.06 0 .397.154.779.429 1.06.275.282.648.44 1.037.44a1.45 1.45 0 0 0 1.037-.44c.275-.281.43-.663.43-1.06 0 .397.154.779.43 1.06.274.282.647.44 1.036.44a1.45 1.45 0 0 0 1.037-.44c.275-.281.43-.663.43-1.06 0 .397.154.779.43 1.06.274.282.647.44 1.037.44a1.45 1.45 0 0 0 1.037-.44c.275-.281.43-.663.43-1.06l-.894-3.442a.5.5 0 0 0-.171-.282.482.482 0 0 0-.306-.11ZM1.333 8.667v4.666c0 .737.597 1.334 1.334 1.334h10.666c.737 0 1.334-.597 1.334-1.334V8.667" />
  <rect width="2.667" height="2.667" x="4" y="9.333" stroke="#3F3F46" rx=".333" />
  <path stroke="#3F3F46"
    d="M12 14.667v-4.334a.333.333 0 0 0-.333-.333h-2a.333.333 0 0 0-.333.333v4.334" />
</svg>