<svg xmlns="http://www.w3.org/2000/svg" width="32" height="32" fill="none" viewBox="0 0 32 32">
  <path stroke="#3F3F46" stroke-linecap="round" stroke-linejoin="round" stroke-width="2"
    d="M27.926 2.667H4.074a.966.966 0 0 0-.612.22c-.174.142-.295.34-.344.562l-1.784 6.884c0 .796.309 1.559.859 2.121a2.9 2.9 0 0 0 2.074.88 2.9 2.9 0 0 0 2.074-.88c.55-.562.86-1.325.86-2.12 0 .795.308 1.558.858 2.12a2.9 2.9 0 0 0 2.075.88 2.9 2.9 0 0 0 2.074-.88c.55-.562.859-1.325.859-2.12 0 .795.309 1.558.859 2.12a2.9 2.9 0 0 0 2.074.88 2.9 2.9 0 0 0 2.074-.88c.55-.562.86-1.325.86-2.12 0 .795.308 1.558.859 2.12a2.9 2.9 0 0 0 2.074.88 2.9 2.9 0 0 0 2.074-.88c.55-.562.86-1.325.86-2.12 0 .795.308 1.558.858 2.12a2.9 2.9 0 0 0 2.075.88 2.9 2.9 0 0 0 2.074-.88c.55-.562.859-1.325.859-2.12L28.88 3.448a1.003 1.003 0 0 0-.343-.563.963.963 0 0 0-.612-.22ZM2.667 17.333v9.334a2.667 2.667 0 0 0 2.666 2.666h21.334a2.667 2.667 0 0 0 2.666-2.666v-9.334" />
  <rect width="5.333" height="5.333" x="8" y="18.666" stroke="#3F3F46" stroke-width="2" rx=".667" />
  <path stroke="#3F3F46" stroke-width="2"
    d="M24 29.333v-8.666a.667.667 0 0 0-.667-.667h-4a.667.667 0 0 0-.666.667v8.666" />
</svg>