<svg width="24" height="24" viewBox="0 0 24 24" fill="none" xmlns="http://www.w3.org/2000/svg">
<path d="M20.9447 2H3.05529C2.88838 1.99997 2.72644 2.0581 2.59616 2.1648C2.46588 2.27151 2.37503 2.42042 2.33858 2.587L1 7.75C1 8.34674 1.23178 8.91903 1.64437 9.34099C2.05695 9.76295 2.61652 10 3.2 10C3.78348 10 4.34305 9.76295 4.75563 9.34099C5.16821 8.91903 5.4 8.34674 5.4 7.75C5.4 8.34674 5.63179 8.91903 6.04437 9.34099C6.45695 9.76295 7.01652 10 7.6 10C8.18348 10 8.74305 9.76295 9.15563 9.34099C9.56821 8.91903 9.8 8.34674 9.8 7.75C9.8 8.34674 10.0318 8.91903 10.4444 9.34099C10.8569 9.76295 11.4165 10 12 10C12.5835 10 13.1431 9.76295 13.5556 9.34099C13.9682 8.91903 14.2 8.34674 14.2 7.75C14.2 8.34674 14.4318 8.91903 14.8444 9.34099C15.2569 9.76295 15.8165 10 16.4 10C16.9835 10 17.5431 9.76295 17.9556 9.34099C18.3682 8.91903 18.6 8.34674 18.6 7.75C18.6 8.34674 18.8318 8.91903 19.2444 9.34099C19.6569 9.76295 20.2165 10 20.8 10C21.3835 10 21.9431 9.76295 22.3556 9.34099C22.7682 8.91903 23 8.34674 23 7.75L21.6604 2.587C21.6244 2.42041 21.5337 2.27142 21.4036 2.16467C21.2734 2.05793 21.1115 1.99983 20.9447 2Z" stroke="#71717A" stroke-width="1.5" stroke-linecap="round" stroke-linejoin="round"/>
<path d="M2 13V20C2 21.1046 2.89543 22 4 22H20C21.1046 22 22 21.1046 22 20V13" stroke="#71717A" stroke-width="1.5" stroke-linecap="round" stroke-linejoin="round"/>
<rect x="6" y="14" width="4" height="4" rx="0.5" stroke="#71717A" stroke-width="1.5"/>
<path d="M18 22V15.5C18 15.2239 17.7761 15 17.5 15H14.5C14.2239 15 14 15.2239 14 15.5V22" stroke="#71717A" stroke-width="1.5"/>
</svg>
