<svg xmlns="http://www.w3.org/2000/svg" width="24" height="24" fill="none" viewBox="0 0 24 24">
  <path stroke="#3F3F46" stroke-linecap="round" stroke-linejoin="round" stroke-width="1.5"
    d="M20.538 2.25H3.462a.699.699 0 0 0-.684.55L1.5 7.64c0 .56.221 1.097.615 1.492a2.095 2.095 0 0 0 2.97 0c.394-.395.615-.932.615-1.491 0 .56.221 1.096.615 1.491a2.095 2.095 0 0 0 2.97 0c.394-.395.615-.932.615-1.491 0 .56.221 1.096.615 1.491a2.095 2.095 0 0 0 2.97 0c.394-.395.615-.932.615-1.491 0 .56.221 1.096.615 1.491a2.095 2.095 0 0 0 2.97 0c.394-.395.615-.932.615-1.491 0 .56.221 1.096.615 1.491a2.095 2.095 0 0 0 2.97 0c.394-.395.615-.932.615-1.491L21.221 2.8a.703.703 0 0 0-.683-.551ZM2.25 12.944V19.8a2.7 2.7 0 0 0 2.7 2.7h14.1a2.7 2.7 0 0 0 2.7-2.7v-6.856" />
  <path stroke="#3F3F46" stroke-width="1.5"
    d="M6 14.917c0-.368.298-.667.667-.667h2.416c.369 0 .667.299.667.667v2.416a.667.667 0 0 1-.667.667H6.667A.667.667 0 0 1 6 17.333v-2.416ZM18 22.5v-6.083a.667.667 0 0 0-.667-.667h-2.416a.667.667 0 0 0-.667.667V22.5" />
</svg>