<svg width="24" height="24" viewBox="0 0 24 24" fill="none" xmlns="http://www.w3.org/2000/svg">
<path d="M10 8L6 11.625L10 16" stroke="#71717A" stroke-width="1.5" stroke-miterlimit="10" stroke-linecap="round" stroke-linejoin="round"/>
<path d="M12 0.75C5.7868 0.749999 0.75 5.78679 0.75 12C0.749999 18.2132 5.78679 23.25 12 23.25C18.2132 23.25 23.25 18.2132 23.25 12C23.25 5.7868 18.2132 0.75 12 0.75Z" stroke="#71717A" stroke-width="1.5" stroke-miterlimit="10" stroke-linecap="round"/>
<path d="M6 8L6 16" stroke="#71717A" stroke-width="1.5" stroke-miterlimit="10" stroke-linecap="round" stroke-linejoin="round"/>
<path d="M13 8L13 16" stroke="#71717A" stroke-width="1.5" stroke-miterlimit="10" stroke-linecap="round" stroke-linejoin="round"/>
<path d="M13 8L15 8C16.1046 8 17 8.89543 17 10C17 11.1046 16.1046 12 15 12H13" stroke="#71717A" stroke-width="1.5" stroke-miterlimit="10" stroke-linecap="round" stroke-linejoin="round"/>
<path d="M13 12L17 16" stroke="#71717A" stroke-width="1.5" stroke-miterlimit="10" stroke-linecap="round" stroke-linejoin="round"/>
</svg>
