<svg xmlns="http://www.w3.org/2000/svg" width="16" height="16" fill="none" viewBox="0 0 16 16">
  <path stroke="#3F3F46" stroke-linecap="round" stroke-linejoin="round"
    d="M8 .667v14.666M4 15.333h8M3.344 9.318l-2.66-2.66a.621.621 0 0 1 .183-1.006l2.451-1.094a.621.621 0 0 1 .692.128l1.267 1.267a.62.62 0 0 1 .133.68L4.355 9.12a.62.62 0 0 1-1.011.197v0ZM15.15 4.786l-2.63 2.63a.614.614 0 0 1-1-.192l-1.036-2.411a.613.613 0 0 1 .134-.678l1.254-1.254a.616.616 0 0 1 .678-.134l2.408 1.04a.614.614 0 0 1 .192 1v0ZM7.333 2H9.42a1 1 0 0 1 .707.293l1.083 1.182M8.666 4h-2.25a1 1 0 0 0-.707.293L4.68 5.33" />
</svg>