<svg xmlns="http://www.w3.org/2000/svg" width="32" height="32" fill="none" viewBox="0 0 32 32">
  <path stroke="#3F3F46" stroke-linecap="round" stroke-linejoin="round" stroke-width="2"
    d="M19.667 1H2.334C1.597 1 1 1.597 1 2.333v27.334C1 30.403 1.597 31 2.334 31h17.333c.736 0 1.333-.597 1.333-1.333V2.333C21 1.597 20.404 1 19.668 1Z" />
  <path stroke="#3F3F46" stroke-linecap="round" stroke-linejoin="round" stroke-width="2"
    d="M14.667 20.444c0 .943-.351 1.848-.976 2.515a3.231 3.231 0 0 1-2.357 1.04 3.231 3.231 0 0 1-2.357-1.04A3.68 3.68 0 0 1 8 20.444c0-1.963 3.334-7.11 3.334-7.11s3.333 5.146 3.333 7.11Z" />
  <path stroke="#3F3F46" stroke-linecap="round" stroke-linejoin="round" stroke-width="2"
    d="m31 12-.89 1.333A6.612 6.612 0 0 0 29 17v12a2 2 0 0 1-4 0V9a2 2 0 0 0-2-2H1.334M29 17h2" />
</svg>