<svg xmlns="http://www.w3.org/2000/svg" width="24" height="24" fill="none" viewBox="0 0 24 24">
  <path stroke="#3F3F46" stroke-miterlimit="10" stroke-width="1.5"
    d="M12 23.25c6.213 0 11.25-5.037 11.25-11.25S18.213.75 12 .75.75 5.787.75 12 5.787 23.25 12 23.25Z" />
  <path fill="#3F3F46"
    d="M8.102 9.098C8.16 9.033 8.246 9 8.36 9h.515c.113 0 .2.032.258.097.06.065.089.159.089.282v5.24c0 .124-.03.218-.09.282-.059.065-.145.098-.257.098h-.693c-.18 0-.319-.086-.416-.254l-1.14-2.045a29.991 29.991 0 0 1-.963-1.808c.032.694.048 1.468.048 2.324v1.402c0 .125-.03.219-.09.283-.06.065-.145.098-.258.098h-.516c-.113 0-.2-.033-.259-.097-.059-.065-.088-.16-.088-.283V9.381c0-.124.03-.218.088-.283.06-.065.146-.097.259-.097h.723c.092 0 .17.02.234.06a.507.507 0 0 1 .174.193l1.255 2.248c.384.682.655 1.18.808 1.495a55.889 55.889 0 0 1-.032-2.07V9.381c0-.124.03-.218.09-.283h.003Z" />
  <path fill="#3F3F46" fill-rule="evenodd"
    d="M14.535 12.377c.179.244.268.555.268.932 0 .53-.154.943-.462 1.243-.307.298-.72.447-1.239.447H10.6c-.113 0-.199-.032-.258-.097-.06-.065-.089-.16-.089-.282V9.38c0-.124.03-.218.089-.282.059-.065.145-.098.258-.098h2.34c.488 0 .888.137 1.2.41.314.274.47.654.47 1.145 0 .325-.074.6-.222.819-.15.22-.355.377-.616.474.328.106.582.283.762.528Zm-3.042-1.02h1.132c.252 0 .443-.06.577-.18.135-.123.2-.29.2-.504 0-.423-.256-.634-.77-.634h-1.14v1.318Zm2.063 1.834c0 .247-.076.438-.23.57v.002c-.154.13-.383.197-.686.197h-1.147v-1.546h1.147c.303 0 .532.07.685.207.155.138.231.328.231.57Z"
    clip-rule="evenodd" />
  <path fill="#3F3F46"
    d="M19.411 9.097c.06.065.089.16.089.283v.389c0 .124-.03.218-.089.283-.059.065-.145.097-.258.097h-2.34v1.344h2.148c.113 0 .2.033.259.098.059.064.088.16.088.283v.389c0 .123-.03.217-.088.283-.06.065-.146.096-.259.096h-2.147v1.977c0 .124-.03.218-.089.282-.059.066-.145.098-.258.098h-.554c-.113 0-.199-.032-.258-.097-.06-.065-.089-.16-.089-.282V9.38c0-.124.03-.218.089-.282.059-.065.145-.098.258-.098h3.241c.114 0 .2.033.259.097h-.002Z" />
</svg>