<svg xmlns="http://www.w3.org/2000/svg" width="32" height="32" fill="none" viewBox="0 0 32 32">
  <path stroke="#3F3F46" stroke-miterlimit="10" stroke-width="2"
    d="M16 31c8.284 0 15-6.716 15-15 0-8.284-6.716-15-15-15C7.716 1 1 7.716 1 16c0 8.284 6.716 15 15 15Z" />
  <path fill="#3F3F46"
    d="M11.469 12.13c.079-.085.193-.129.344-.129h.687c.15 0 .265.044.345.13.078.086.117.212.117.376v6.986c0 .165-.04.291-.119.377-.079.087-.193.13-.344.13h-.924c-.239 0-.424-.114-.553-.338l-1.52-2.727a40.075 40.075 0 0 1-1.284-2.41c.042.925.063 1.957.063 3.098v1.87c0 .165-.04.291-.119.377-.08.087-.195.13-.345.13H7.13c-.152 0-.267-.043-.346-.129-.079-.087-.117-.213-.117-.377v-6.985c0-.166.038-.292.117-.377.08-.087.194-.13.345-.13h.964c.123 0 .227.025.312.08a.676.676 0 0 1 .232.257l1.673 2.997c.513.91.874 1.573 1.078 1.994a74.429 74.429 0 0 1-.042-2.76v-2.061c0-.166.04-.292.119-.377l.004-.002Z" />
  <path fill="#3F3F46" fill-rule="evenodd"
    d="M20.047 16.502c.238.326.357.74.357 1.244 0 .706-.205 1.256-.615 1.656-.41.398-.961.597-1.653.597H14.8c-.15 0-.265-.044-.344-.13-.08-.086-.118-.212-.118-.376v-6.986c0-.165.039-.291.118-.377.079-.087.193-.13.344-.13h3.12c.65 0 1.184.183 1.6.546.42.366.628.873.628 1.527 0 .434-.1.8-.297 1.092-.2.294-.474.503-.821.632.437.142.775.377 1.015.704l.002.001Zm-4.057-1.36h1.51c.336 0 .591-.08.77-.24.179-.163.266-.386.266-.671 0-.564-.342-.846-1.026-.846h-1.52v1.757Zm2.751 2.446c0 .33-.102.584-.307.76-.205.176-.51.265-.914.265h-1.53V16.55h1.53c.404 0 .709.094.914.277.205.184.307.438.307.76Z"
    clip-rule="evenodd" />
  <path fill="#3F3F46"
    d="M26.549 12.13c.079.086.118.212.118.376v.519c0 .166-.04.291-.118.377-.079.087-.194.13-.344.13h-3.12v1.792h2.863c.151 0 .266.043.345.13.08.086.118.213.118.377v.52c0 .164-.039.29-.118.376-.079.087-.194.13-.344.13h-2.863v2.634c0 .166-.04.292-.119.378-.079.086-.193.13-.344.13h-.739c-.15 0-.265-.044-.344-.13-.079-.086-.118-.212-.118-.376v-6.986c0-.165.04-.291.118-.377.08-.087.194-.13.344-.13h4.322c.151 0 .266.043.345.13h-.002Z" />
</svg>