<svg xmlns="http://www.w3.org/2000/svg" width="16" height="16" fill="none" viewBox="0 0 16 16">
  <path stroke="#3F3F46" stroke-miterlimit="10" d="M8 15.5a7.5 7.5 0 1 0 0-15 7.5 7.5 0 0 0 0 15Z" />
  <path fill="#3F3F46"
    d="M5.735 6.065c.04-.043.096-.065.172-.065h.343c.076 0 .133.022.172.065.04.043.06.106.06.189v3.492c0 .083-.02.146-.06.189-.04.043-.097.065-.172.065h-.462c-.12 0-.212-.057-.277-.17l-.76-1.362c-.277-.488-.49-.89-.642-1.206.021.463.032.979.032 1.55v.934c0 .083-.02.146-.06.189-.04.043-.097.065-.172.065h-.344c-.076 0-.133-.022-.173-.065-.039-.043-.058-.106-.058-.188V6.254c0-.083.019-.146.058-.188.04-.044.097-.066.173-.066h.482c.061 0 .113.014.156.04a.338.338 0 0 1 .116.13l.836 1.498c.257.454.437.786.54.997a37.237 37.237 0 0 1-.022-1.38v-1.03c0-.084.02-.147.06-.19h.002Z" />
  <path fill="#3F3F46" fill-rule="evenodd"
    d="M10.023 8.251c.12.163.18.37.18.622 0 .353-.103.628-.309.828-.205.199-.48.298-.826.298H7.4c-.075 0-.133-.021-.172-.064-.04-.044-.06-.106-.06-.189V6.254c0-.083.02-.146.06-.189.04-.043.097-.065.172-.065h1.56c.325 0 .592.091.8.273.21.183.314.437.314.763 0 .218-.05.4-.149.547a.833.833 0 0 1-.41.316c.218.07.388.188.508.352Zm-2.028-.68h.755c.168 0 .295-.04.385-.12a.43.43 0 0 0 .133-.336c0-.281-.171-.423-.513-.423h-.76v.88Zm1.376 1.223c0 .165-.051.292-.154.38-.103.088-.255.132-.457.132h-.765v-1.03h.765c.202 0 .354.047.457.138a.484.484 0 0 1 .154.38Z"
    clip-rule="evenodd" />
  <path fill="#3F3F46"
    d="M13.275 6.065c.04.043.059.106.059.188v.26c0 .082-.02.145-.06.188-.039.043-.096.065-.171.065h-1.56v.896h1.431c.076 0 .133.022.173.065.04.043.059.106.059.189v.26c0 .081-.02.144-.06.188-.039.043-.096.064-.171.064h-1.432v1.318c0 .083-.02.145-.06.188-.039.044-.096.065-.171.065h-.37c-.075 0-.132-.021-.172-.064-.04-.044-.059-.106-.059-.189V6.254c0-.083.02-.146.06-.189.039-.043.096-.065.171-.065h2.161c.076 0 .133.022.173.065h-.001Z" />
</svg>