<svg xmlns="http://www.w3.org/2000/svg" width="16" height="16" fill="none" viewBox="0 0 16 16">
  <path stroke="#3F3F46" stroke-linecap="round" stroke-linejoin="round"
    d="M12.667 6.333H3.333V3h9.334v3.333ZM3.333 9.333h4M3.333 12h3" />
  <path stroke="#3F3F46" stroke-linecap="round" stroke-linejoin="round"
    d="M6.333 15.333h-4A1.333 1.333 0 0 1 1 14V2C1 1.263 1.597.667 2.333.667h11.334C14.403.667 15 1.263 15 2v4.333" />
  <path stroke="#3F3F46" stroke-linecap="round" stroke-linejoin="round"
    d="M12 15.333a3.333 3.333 0 1 0 0-6.667 3.333 3.333 0 0 0 0 6.667ZM12 10.666v2.667M10.666 12h2.667" />
</svg>