<svg xmlns="http://www.w3.org/2000/svg" width="32" height="32" fill="none" viewBox="0 0 32 32">
  <path stroke="#3F3F46" stroke-linecap="round" stroke-linejoin="round" stroke-width="2"
    d="M1.333 29.333V16.667c0-.369.299-.667.667-.667h28c.369 0 .667.299.667.667v2.666M24 16v-3.333c0-.368.299-.667.667-.667h2.667c.368 0 .666.299.666.667v2.666" />
  <path stroke="#3F3F46" stroke-linecap="round" stroke-linejoin="round" stroke-width="2"
    d="M17.334 20v8.667c0 .368.298.666.666.666h12a.667.667 0 0 0 .667-.666v-9.334M17.334 24h13.333M1.333 20h29.334M15.667 2.667h-10c-.92 0-1.667.716-1.667 1.6V10.4c0 .884.747 1.6 1.667 1.6h10c.92 0 1.667-.716 1.667-1.6V4.267c0-.884-.746-1.6-1.667-1.6ZM10.667 12v4" />
</svg>