<svg xmlns="http://www.w3.org/2000/svg" width="24" height="24" fill="none" viewBox="0 0 24 24">
  <path stroke="#3F3F46" stroke-linecap="round" stroke-linejoin="round" stroke-width="1.5"
    d="M.75 21.75V12.5a.5.5 0 0 1 .5-.5h21.5a.5.5 0 0 1 .5.5V15M18 12V9.5a.5.5 0 0 1 .5-.5h2a.5.5 0 0 1 .5.5v2" />
  <path stroke="#3F3F46" stroke-linecap="round" stroke-linejoin="round" stroke-width="1.5"
    d="M12.75 15v6.25a.5.5 0 0 0 .5.5h9.5a.5.5 0 0 0 .5-.5V15M13 18h10M1 15h22M11.438 2.25H3.561c-.724 0-1.312.518-1.312 1.157v4.436C2.25 8.482 2.838 9 3.563 9h7.874c.725 0 1.313-.518 1.313-1.157V3.407c0-.639-.588-1.157-1.313-1.157ZM7.5 9v3" />
</svg>