<svg xmlns="http://www.w3.org/2000/svg" width="24" height="24" fill="none" viewBox="0 0 24 24">
  <path stroke="#3F3F46" stroke-linecap="round" stroke-linejoin="round" stroke-width="1.5"
    d="M1.583 10.547 10.94 1.44a1.5 1.5 0 0 1 2.122 0l9.356 9.107M16.5 4.629v-1.5H20v4.703" />
  <path stroke="#3F3F46" stroke-linecap="round" stroke-linejoin="round" stroke-width="1.5"
    d="M3 9.5V21.655c0 .357.172.699.48.951.306.252.722.394 1.156.394h14.728c.434 0 .85-.142 1.157-.394.307-.252.479-.594.479-.95V9.5" />
  <path stroke="#3F3F46" stroke-width="1.5" d="M15 23v-5a3 3 0 1 0-6 0v5" />
  <path stroke="#3F3F46" stroke-linecap="round" stroke-width="1.5" d="M9 11h6M9 8h6" />
</svg>