<svg xmlns="http://www.w3.org/2000/svg" width="32" height="32" fill="none" viewBox="0 0 32 32">
  <path stroke="#3F3F46" stroke-linecap="round" stroke-linejoin="round" stroke-width="2"
    d="M2.114 14.06 14.585 1.92a2 2 0 0 1 2.83 0l12.47 12.14M22 6.171v-2h4.667v6.287" />
  <path stroke="#3F3F46" stroke-linecap="round" stroke-linejoin="round" stroke-width="2"
    d="M4 12.666v16.207c0 .476.23.932.64 1.268.409.337.964.526 1.542.526H25.82c.578 0 1.133-.19 1.542-.526.41-.336.64-.792.64-1.268V12.666" />
  <path stroke="#3F3F46" stroke-width="2" d="M20 30.667V24a4 4 0 1 0-8 0v6.667" />
  <path stroke="#3F3F46" stroke-linecap="round" stroke-width="2" d="M12 14.666h8M12 10.666h8" />
</svg>