<svg xmlns="http://www.w3.org/2000/svg" width="24" height="24" fill="none" viewBox="0 0 24 24">
  <path stroke="#3F3F46" stroke-linecap="round" stroke-linejoin="round" stroke-width="1.5"
    d="m22.731 10.112.278-.275a.805.805 0 0 0-.5-1.374l-6.44-.638L12.73 1.2a.819.819 0 0 0-1.459 0L7.924 7.825l-6.44.638a.805.805 0 0 0-.5 1.374l5.3 5.253-1.956 7.138a.813.813 0 0 0 1.151.935l3.685-1.825" />
  <path stroke="#3F3F46" stroke-linecap="round" stroke-linejoin="round" stroke-width="1.5"
    d="M17.25 23.25a6 6 0 1 0 0-12 6 6 0 0 0 0 12Z" />
  <path stroke="#3F3F46" stroke-linecap="round" stroke-linejoin="round" stroke-width="1.5"
    d="m14.388 17.96 1.5 1.5a.751.751 0 0 0 1.13-.081l2.89-3.85" />
</svg>