<svg xmlns="http://www.w3.org/2000/svg" width="32" height="32" fill="none" viewBox="0 0 32 32">
  <path stroke="#3F3F46" stroke-linecap="round" stroke-linejoin="round" stroke-width="2"
    d="m30.31 13.482.37-.366a1.073 1.073 0 0 0-.666-1.832l-8.587-.851L16.973 1.6a1.092 1.092 0 0 0-1.944 0l-4.462 8.833-8.586.85a1.074 1.074 0 0 0-.667 1.833L8.38 20.12l-2.608 9.517a1.084 1.084 0 0 0 1.534 1.247l4.87-2.413" />
  <path stroke="#3F3F46" stroke-linecap="round" stroke-linejoin="round" stroke-width="2"
    d="M23 31a8 8 0 1 0 0-16 8 8 0 0 0 0 16Z" />
  <path stroke="#3F3F46" stroke-linecap="round" stroke-linejoin="round" stroke-width="2"
    d="m19.184 23.947 2 2a1.002 1.002 0 0 0 1.508-.108l3.79-5.054" />
</svg>