<svg xmlns="http://www.w3.org/2000/svg" width="32" height="32" fill="none" viewBox="0 0 32 32">
  <path stroke="#3F3F46" stroke-linecap="round" stroke-linejoin="round" stroke-width="2"
    d="M9.334 13.333a4 4 0 1 0 0-8 4 4 0 0 0 0 8ZM9.334 26.666a4 4 0 1 0 0-8 4 4 0 0 0 0 8ZM22.666 13.333a4 4 0 1 0 0-8 4 4 0 0 0 0 8Z" />
  <rect width="29.333" height="29.333" x="1.333" y="1.333" stroke="#3F3F46" stroke-linecap="round"
    stroke-linejoin="round" stroke-width="2" rx="2" />
  <path stroke="#3F3F46" stroke-linecap="round" stroke-linejoin="round" stroke-width="2"
    d="M18.666 26.667v-1.334M22.666 26.667v-1.334M26.666 26.667v-1.334" />
</svg>