<svg xmlns="http://www.w3.org/2000/svg" width="32" height="32" fill="none" viewBox="0 0 32 32">
  <path fill="#3F3F46"
    d="M8.592.781C9.092.281 9.77 0 10.477 0h11.046c.707 0 1.385.281 1.886.781l7.81 7.81c.5.5.781 1.179.781 1.886v11.046c0 .707-.281 1.385-.781 1.886l-7.81 7.81c-.5.5-1.179.781-1.886.781H10.477a2.667 2.667 0 0 1-1.885-.781L.78 23.409c-.5-.5-.781-1.179-.781-1.886V10.477c0-.707.281-1.385.781-1.885L8.591.78Z" />
  <path fill="#fff" fill-rule="evenodd"
    d="M16 6.5A1.5 1.5 0 0 1 17.5 8v10a1.5 1.5 0 0 1-3 0V8A1.5 1.5 0 0 1 16 6.5Z"
    clip-rule="evenodd" />
  <path fill="#fff" d="M17.6 23.6a1.6 1.6 0 1 1-3.2 0 1.6 1.6 0 0 1 3.2 0Z" />
</svg>