<svg xmlns="http://www.w3.org/2000/svg" width="16" height="16" fill="none" viewBox="0 0 16 16">
  <path fill="#3F3F46"
    d="M4.296.39c.25-.25.589-.39.943-.39h5.522c.354 0 .693.14.943.39l3.905 3.906c.25.25.391.589.391.943v5.522c0 .354-.14.693-.39.943l-3.906 3.905c-.25.25-.589.391-.943.391H5.24c-.354 0-.693-.14-.943-.39L.39 11.704c-.25-.25-.391-.589-.391-.943V5.24c0-.354.14-.693.39-.943L4.297.39Z" />
  <path fill="#fff" fill-rule="evenodd"
    d="M8 3.25a.75.75 0 0 1 .75.75v5a.75.75 0 1 1-1.5 0V4A.75.75 0 0 1 8 3.25Z" clip-rule="evenodd" />
  <path fill="#fff" d="M8.8 11.8a.8.8 0 1 1-1.6 0 .8.8 0 0 1 1.6 0Z" />
</svg>