<svg xmlns="http://www.w3.org/2000/svg" width="24" height="24" fill="none" viewBox="0 0 24 24">
  <path fill="#3F3F46"
    d="M6.444.586A2 2 0 0 1 7.858 0h8.284a2 2 0 0 1 1.414.586l5.858 5.858A2 2 0 0 1 24 7.858v8.284a2 2 0 0 1-.586 1.414l-5.858 5.858a2 2 0 0 1-1.414.586H7.858a2 2 0 0 1-1.414-.586L.586 17.556A2 2 0 0 1 0 16.142V7.858a2 2 0 0 1 .586-1.414L6.444.586Z" />
  <path fill="#fff" fill-rule="evenodd"
    d="M12 4.875c.621 0 1.125.504 1.125 1.125v7.5a1.125 1.125 0 0 1-2.25 0V6c0-.621.504-1.125 1.125-1.125Z"
    clip-rule="evenodd" />
  <path fill="#fff" d="M13.2 17.7a1.2 1.2 0 1 1-2.4 0 1.2 1.2 0 0 1 2.4 0Z" />
</svg>