<svg width="32" height="32" viewBox="0 0 32 32" fill="none" xmlns="http://www.w3.org/2000/svg">
<path d="M23.9998 28C22.5271 28 21.3332 26.8061 21.3332 25.3334C21.3332 23.8606 22.5271 22.6667 23.9998 22.6667C25.4726 22.6667 26.6665 23.8606 26.6665 25.3334C26.6665 26.8061 25.4726 28 23.9998 28Z" stroke="#71717A" stroke-width="1.5" stroke-linecap="round" stroke-linejoin="round"/>
<path d="M9.33333 28C7.86057 28 6.66667 26.8061 6.66667 25.3334C6.66667 23.8606 7.86057 22.6667 9.33333 22.6667C10.8061 22.6667 12 23.8606 12 25.3334C12 26.8061 10.8061 28 9.33333 28Z" stroke="#71717A" stroke-width="1.5" stroke-linecap="round" stroke-linejoin="round"/>
<path d="M21.3335 24H12.0002" stroke="#71717A" stroke-width="1.5" stroke-linecap="round" stroke-linejoin="round"/>
<path d="M20 24V8.00002C20 5.79088 18.2091 4.00002 16 4.00002L3.5 4C2.94772 4 2.5 4.44772 2.5 5V6.66667" stroke="#71717A" stroke-width="1.5" stroke-linecap="round"/>
<path d="M12 12H1.33333" stroke="#71717A" stroke-width="1.5" stroke-linecap="round"/>
<path d="M12 16H5.33333" stroke="#71717A" stroke-width="1.5" stroke-linecap="round"/>
<path d="M27 16H19.9998" stroke="#71717A" stroke-width="1.5" stroke-linecap="round"/>
<path d="M2.5 21.3333V23C2.5 23.5523 2.94772 24 3.5 24H6.6665" stroke="#71717A" stroke-width="1.5" stroke-linecap="round"/>
<path d="M20 11L23.7279 11C24.1365 10.9999 24.5371 11.1118 24.8848 11.3233C25.2324 11.5348 25.5134 11.8375 25.6962 12.1974L27 16L30.0267 17.135C30.6121 17.3546 31 17.9142 31 18.5395V22.5C31 23.3284 30.3284 24 29.5 24H26.875" stroke="#71717A" stroke-width="1.5" stroke-linecap="round" stroke-linejoin="round"/>
</svg>
