<svg width="16" height="16" viewBox="0 0 16 16" fill="none" xmlns="http://www.w3.org/2000/svg">
<path d="M11.5 14C10.6716 14 10 13.3284 10 12.5C10 11.6716 10.6716 11 11.5 11C12.3284 11 13 11.6716 13 12.5C13 13.3284 12.3284 14 11.5 14Z" stroke="#71717A" stroke-width="1.5" stroke-linecap="round" stroke-linejoin="round"/>
<path d="M4.5 14C3.67157 14 3 13.3284 3 12.5C3 11.6716 3.67157 11 4.5 11C5.32843 11 6 11.6716 6 12.5C6 13.3284 5.32843 14 4.5 14Z" stroke="#71717A" stroke-width="1.5" stroke-linecap="round" stroke-linejoin="round"/>
<path d="M10 12H6" stroke="#71717A" stroke-width="1.5" stroke-linecap="round" stroke-linejoin="round"/>
<path d="M3 12H1.5" stroke="#71717A" stroke-width="1.5" stroke-linecap="round" stroke-linejoin="round"/>
<path d="M10 12V4C10 2.89543 9.10457 2 8 2H1.5" stroke="#71717A" stroke-width="1.5" stroke-linecap="round"/>
<path d="M7 5H1" stroke="#71717A" stroke-width="1.5" stroke-linecap="round"/>
<path d="M7 8H4.00016" stroke="#71717A" stroke-width="1.5" stroke-linecap="round"/>
<path d="M13.1251 11.7916H14.5C14.7761 11.7916 15 11.5677 15 11.2916V8.99162C15 8.79403 14.8836 8.61497 14.7031 8.53471L13.5 8.00001L12.614 5.34189C12.5459 5.13772 12.3548 5 12.1396 5H10" stroke="#71717A" stroke-width="1.5" stroke-linecap="round" stroke-linejoin="round"/>
</svg>
