<svg width="24" height="24" viewBox="0 0 24 24" fill="none" xmlns="http://www.w3.org/2000/svg">
<path d="M18 21C16.8954 21 16 20.1046 16 19C16 17.8954 16.8954 17 18 17C19.1046 17 20 17.8954 20 19C20 20.1046 19.1046 21 18 21Z" stroke="#71717A" stroke-width="1.5" stroke-linecap="round" stroke-linejoin="round"/>
<path d="M7 21C5.89543 21 5 20.1046 5 19C5 17.8954 5.89543 17 7 17C8.10457 17 9 17.8954 9 19C9 20.1046 8.10457 21 7 21Z" stroke="#71717A" stroke-width="1.5" stroke-linecap="round" stroke-linejoin="round"/>
<path d="M16 18H9" stroke="#71717A" stroke-width="1.5" stroke-linecap="round" stroke-linejoin="round"/>
<path d="M15 18V7C15 4.79086 13.2091 3 11 3H3C2.44772 3 2 3.44772 2 4V5" stroke="#71717A" stroke-width="1.5" stroke-linecap="round"/>
<path d="M9 9H1" stroke="#71717A" stroke-width="1.5" stroke-linecap="round"/>
<path d="M9 12H4" stroke="#71717A" stroke-width="1.5" stroke-linecap="round"/>
<path d="M20 12H15" stroke="#71717A" stroke-width="1.5" stroke-linecap="round"/>
<path d="M2 16V17C2 17.5523 2.44772 18 3 18H5" stroke="#71717A" stroke-width="1.5" stroke-linecap="round"/>
<path d="M15 8L17.7112 8C18.0084 7.99991 18.2997 8.08603 18.5526 8.24873C18.8054 8.41142 19.0097 8.64425 19.1427 8.92111L20 12L21.9743 12.6581C22.5869 12.8623 23 13.4355 23 14.0811V16.5C23 17.3284 22.3284 18 21.5 18H20" stroke="#71717A" stroke-width="1.5" stroke-linecap="round" stroke-linejoin="round"/>
</svg>
