<svg xmlns="http://www.w3.org/2000/svg" width="32" height="32" fill="none" viewBox="0 0 32 32">
  <path stroke="#3F3F46" stroke-linecap="round" stroke-linejoin="round" stroke-width="2"
    d="M27.933 14.603c0 7.329-5.954 13.27-13.3 13.27-7.345 0-13.3-5.941-13.3-13.27s5.955-13.27 13.3-13.27c7.346 0 13.3 5.941 13.3 13.27Z" />
  <path stroke="#3F3F46" stroke-linecap="round" stroke-linejoin="round" stroke-width="2"
    d="M20.49 11.534a2.817 2.817 0 0 0-2.038-.868 2.83 2.83 0 0 0-2.038.868l-1.747 1.795-1.746-1.795a2.817 2.817 0 0 0-2.038-.868 2.83 2.83 0 0 0-2.038.868 3.023 3.023 0 0 0 0 4.189l5.201 5.346a.858.858 0 0 0 .959.195.858.858 0 0 0 .283-.195l5.201-5.346a3.023 3.023 0 0 0 0-4.189ZM23.247 24.715l6.087 5.951" />
</svg>