<svg xmlns="http://www.w3.org/2000/svg" width="16" height="16" fill="none" viewBox="0 0 16 16">
  <path stroke="#3F3F46" stroke-linecap="round" stroke-linejoin="round"
    d="M13.966 7.302c0 3.664-2.977 6.635-6.65 6.635-3.672 0-6.65-2.971-6.65-6.635 0-3.665 2.978-6.635 6.65-6.635 3.673 0 6.65 2.97 6.65 6.635Z" />
  <path stroke="#3F3F46" stroke-linecap="round" stroke-linejoin="round"
    d="M10.244 5.767a1.408 1.408 0 0 0-1.573-.32 1.408 1.408 0 0 0-.465.32l-.873.897-.873-.897a1.408 1.408 0 0 0-1.574-.32 1.408 1.408 0 0 0-.464.32 1.512 1.512 0 0 0 0 2.094l2.6 2.673a.428.428 0 0 0 .621 0l2.601-2.673a1.512 1.512 0 0 0 0-2.094ZM11.623 12.358l3.043 2.975" />
</svg>