<svg xmlns="http://www.w3.org/2000/svg" width="32" height="32" fill="none" viewBox="0 0 32 32">
  <path stroke="#3F3F46" stroke-linecap="round" stroke-linejoin="round" stroke-width="2"
    d="M11.737 23.421 8 27.001v-6H3.898A1.897 1.897 0 0 1 2 19.102V3.897A1.897 1.897 0 0 1 3.898 2h21.205A1.897 1.897 0 0 1 27 3.897v5.648M6.667 6.667h14.667M6.667 12h6.667" />
  <path stroke="#3F3F46" stroke-linecap="round" stroke-linejoin="round" stroke-width="2"
    d="M22.667 25.667a5.333 5.333 0 1 0 0-10.667 5.333 5.333 0 0 0 0 10.667ZM29.334 29.667c-.645-.806-1.605-1.48-2.78-1.95-1.174-.469-2.517-.717-3.887-.717s-2.713.248-3.887.718-2.135 1.143-2.78 1.949" />
</svg>