<svg xmlns="http://www.w3.org/2000/svg" width="16" height="16" fill="none" viewBox="0 0 16 16">
  <path fill="#3F3F46" fill-rule="evenodd"
    d="M7.832 2.667c-.662.002-3.197.02-4.967.153-.287.035-.912.038-1.47.643-.44.46-.583 1.505-.583 1.505S.678 6.093.667 7.266V8.73c.011 1.172.145 2.297.145 2.297s.143 1.045.583 1.506c.558.604 1.291.585 1.618.648 1.073.106 4.356.146 4.907.151h.273c.706-.004 3.196-.026 4.94-.157.288-.035.913-.038 1.47-.642.44-.46.584-1.506.584-1.506s.146-1.227.146-2.454V7.423c0-1.228-.146-2.455-.146-2.455s-.143-1.045-.583-1.505c-.558-.605-1.183-.608-1.47-.643-1.77-.132-4.305-.151-4.968-.153h-.334Zm-1.348 3.04 3.964 2.138L6.485 9.97V5.707Z"
    clip-rule="evenodd" />
</svg>