<svg xmlns="http://www.w3.org/2000/svg" width="32" height="32" fill="none" viewBox="0 0 32 32">
  <path fill="#3F3F46" fill-rule="evenodd"
    d="M15.665 5.333c-1.325.005-6.394.042-9.935.307-.573.07-1.824.076-2.94 1.285-.88.92-1.165 3.011-1.165 3.011s-.268 2.25-.292 4.595v2.93c.024 2.346.292 4.595.292 4.595s.286 2.09 1.166 3.011c1.115 1.209 2.582 1.17 3.235 1.296 2.147.214 8.712.292 9.815.304h.545c1.412-.008 6.391-.054 9.882-.315.574-.07 1.824-.076 2.94-1.285.88-.92 1.166-3.011 1.166-3.011s.293-2.454.293-4.909v-2.302c0-2.455-.294-4.909-.294-4.909s-.285-2.091-1.165-3.01c-1.116-1.21-2.366-1.215-2.94-1.286-3.54-.265-8.61-.302-9.936-.306h-.667Zm-2.696 6.08 7.927 4.278-7.925 4.249-.002-8.526Z"
    clip-rule="evenodd" />
</svg>