<svg xmlns="http://www.w3.org/2000/svg" width="32" height="32" fill="none" viewBox="0 0 32 32">
  <path stroke="#3F3F46" stroke-linecap="round" stroke-linejoin="round" stroke-width="2"
    d="M15.422 1.356a.648.648 0 0 1 1.158 0l1.345 2.712a.644.644 0 0 0 .484.35l3.019.435a.641.641 0 0 1 .518.431.627.627 0 0 1-.161.65l-2.184 2.125a.63.63 0 0 0-.184.558l.517 2.996a.632.632 0 0 1-.258.62.651.651 0 0 1-.679.047l-2.695-1.405a.642.642 0 0 0-.602 0l-2.688 1.405a.65.65 0 0 1-.898-.32.632.632 0 0 1-.04-.347l.518-2.996a.632.632 0 0 0-.184-.558l-2.191-2.126a.627.627 0 0 1 .037-.938.641.641 0 0 1 .32-.142l3.019-.436a.644.644 0 0 0 .484-.349l1.345-2.712ZM6.98 2.992a.645.645 0 0 0-.58.356L5.055 6.06a.644.644 0 0 1-.485.35l-3.018.435a.641.641 0 0 0-.518.431.63.63 0 0 0 .16.65l2.192 2.12a.628.628 0 0 1 .182.56L3.051 13.6a.632.632 0 0 0 .591.74c.12.007.24-.018.347-.073l2.686-1.4a.653.653 0 0 1 .604 0l1.113.58M25.022 2.992a.645.645 0 0 1 .578.356l1.347 2.707a.643.643 0 0 0 .485.349l3.018.436a.641.641 0 0 1 .518.43.629.629 0 0 1-.16.65l-2.192 2.127a.628.628 0 0 0-.182.558l.516 2.995a.633.633 0 0 1-.591.74.655.655 0 0 1-.347-.073l-2.686-1.402a.654.654 0 0 0-.604 0l-1.125.588M4 18.667h24M4 29.334h24M4 24h18.667" />
</svg>