<svg xmlns="http://www.w3.org/2000/svg" width="16" height="16" fill="none" viewBox="0 0 16 16">
  <path stroke="#3F3F46" stroke-linecap="round" stroke-linejoin="round"
    d="M7.71.678a.324.324 0 0 1 .58 0l.672 1.356a.322.322 0 0 0 .242.175l1.51.218a.32.32 0 0 1 .265.39.314.314 0 0 1-.087.15L9.8 4.03a.315.315 0 0 0-.092.279l.258 1.498a.316.316 0 0 1-.129.31.325.325 0 0 1-.34.023L8.15 5.438a.321.321 0 0 0-.3 0l-1.345.702a.325.325 0 0 1-.449-.16.316.316 0 0 1-.02-.173l.26-1.498a.315.315 0 0 0-.093-.28L5.108 2.968a.313.313 0 0 1 .018-.47.32.32 0 0 1 .16-.07l1.51-.218a.322.322 0 0 0 .242-.175L7.71.678ZM3.49 1.496a.323.323 0 0 0-.29.178L2.526 3.03a.322.322 0 0 1-.242.175l-1.509.218a.32.32 0 0 0-.26.215.315.315 0 0 0 .08.325l1.097 1.06a.314.314 0 0 1 .091.28L1.525 6.8a.316.316 0 0 0 .296.37c.06.004.12-.009.173-.037l1.343-.7a.327.327 0 0 1 .302 0l.556.29M12.51 1.496a.323.323 0 0 1 .29.178l.673 1.353a.322.322 0 0 0 .243.175l1.508.218a.32.32 0 0 1 .26.215.314.314 0 0 1-.08.325l-1.096 1.063a.314.314 0 0 0-.092.28l.258 1.497a.315.315 0 0 1-.128.31.327.327 0 0 1-.34.023l-1.344-.7a.327.327 0 0 0-.302 0l-.562.294" />
  <path stroke="#3F3F46" stroke-linecap="round" stroke-linejoin="round" stroke-width="1.5"
    d="M2 9.334h12M2 14.667h12M2 12h9.333" />
</svg>