<svg width="32" height="32" viewBox="0 0 32 32" fill="none" xmlns="http://www.w3.org/2000/svg">
<path d="M15.4214 2.356C15.4754 2.24885 15.558 2.15879 15.6602 2.09587C15.7624 2.03295 15.88 1.99963 16 1.99963C16.12 1.99963 16.2376 2.03295 16.3398 2.09587C16.442 2.15879 16.5247 2.24885 16.5787 2.356L17.924 5.068C17.9705 5.16097 18.0388 5.2413 18.1231 5.30213C18.2074 5.36296 18.3051 5.40249 18.408 5.41734L21.4267 5.85334C21.5446 5.8699 21.6556 5.91896 21.7472 5.99502C21.8388 6.07108 21.9074 6.17115 21.9454 6.284C21.9826 6.39642 21.9871 6.51708 21.9586 6.632C21.93 6.74692 21.8695 6.8514 21.784 6.93334L19.6 9.05867C19.5263 9.12983 19.471 9.21789 19.4389 9.31524C19.4068 9.41258 19.399 9.51627 19.416 9.61734L19.9333 12.6133C19.9529 12.7305 19.939 12.8509 19.8932 12.9606C19.8475 13.0702 19.7717 13.1648 19.6747 13.2333C19.5769 13.3031 19.4618 13.3444 19.3419 13.3527C19.2221 13.3609 19.1024 13.3357 18.996 13.28L16.3014 11.8747C16.2085 11.8254 16.1051 11.7996 16 11.7996C15.895 11.7996 15.7915 11.8254 15.6987 11.8747L13.0107 13.28C12.9043 13.3357 12.7846 13.3609 12.6648 13.3527C12.5449 13.3444 12.4298 13.3031 12.332 13.2333C12.235 13.1648 12.1592 13.0702 12.1135 12.9606C12.0677 12.8509 12.0538 12.7305 12.0734 12.6133L12.5907 9.61734C12.6077 9.51627 12.5999 9.41258 12.5678 9.31524C12.5357 9.21789 12.4804 9.12983 12.4067 9.05867L10.216 6.93334C10.1305 6.8514 10.07 6.74692 10.0414 6.632C10.0129 6.51708 10.0175 6.39642 10.0547 6.284C10.0926 6.17115 10.1613 6.07108 10.2529 5.99502C10.3445 5.91896 10.4554 5.8699 10.5734 5.85334L13.592 5.41734C13.6949 5.40249 13.7926 5.36296 13.8769 5.30213C13.9612 5.2413 14.0295 5.16097 14.076 5.068L15.4214 2.356Z" stroke="#71717A" stroke-width="1.5" stroke-linecap="round" stroke-linejoin="round"/>
<path d="M6.97882 3.99201C6.8588 3.99167 6.74107 4.0248 6.63884 4.08769C6.53662 4.15058 6.45396 4.24073 6.40015 4.34801L5.05349 7.06001C5.00687 7.15314 4.93835 7.23358 4.85382 7.29442C4.76929 7.35526 4.67127 7.3947 4.56815 7.40934L1.55082 7.84534C1.43291 7.8619 1.32194 7.91096 1.23033 7.98703C1.13873 8.06309 1.07011 8.16315 1.03215 8.27601C0.995106 8.38834 0.990466 8.50884 1.01877 8.62368C1.04706 8.73853 1.10716 8.84308 1.19215 8.92534L3.38415 11.0467C3.45786 11.1178 3.51304 11.2059 3.54488 11.3033C3.57672 11.4007 3.58425 11.5044 3.56682 11.6053L3.05082 14.6C3.03088 14.7173 3.04446 14.8378 3.08998 14.9477C3.1355 15.0577 3.21113 15.1525 3.30815 15.2213C3.40641 15.2906 3.52184 15.3315 3.64179 15.3395C3.76174 15.3475 3.88157 15.3223 3.98815 15.2667L6.67482 13.8667C6.76806 13.8181 6.87167 13.7927 6.97682 13.7927C7.08197 13.7927 7.18557 13.8181 7.27882 13.8667L8.4106 14.4568" stroke="#71717A" stroke-width="1.5" stroke-linecap="round" stroke-linejoin="round"/>
<path d="M25.0216 3.99201C25.1416 3.99167 25.2593 4.0248 25.3616 4.08769C25.4638 4.15058 25.5465 4.24073 25.6003 4.34801L26.9469 7.05467C26.9935 7.14781 27.0621 7.22824 27.1466 7.28909C27.2311 7.34993 27.3291 7.38936 27.4323 7.40401L30.4496 7.84001C30.5675 7.85657 30.6785 7.90563 30.7701 7.98169C30.8617 8.05776 30.9303 8.15782 30.9683 8.27067C31.0053 8.38301 31.0099 8.5035 30.9816 8.61835C30.9533 8.7332 30.8933 8.83775 30.8083 8.92001L28.6163 11.0467C28.5426 11.1178 28.4874 11.2059 28.4555 11.3033C28.4237 11.4007 28.4162 11.5044 28.4336 11.6053L28.9496 14.6C28.9695 14.7173 28.956 14.8378 28.9104 14.9477C28.8649 15.0577 28.7893 15.1525 28.6923 15.2213C28.594 15.2906 28.4786 15.3315 28.3586 15.3395C28.2387 15.3475 28.1188 15.3223 28.0123 15.2667L25.3256 13.8653C25.2323 13.8167 25.1287 13.7914 25.0236 13.7914C24.9184 13.7914 24.8148 13.8167 24.7216 13.8653L23.5942 14.4545" stroke="#71717A" stroke-width="1.5" stroke-linecap="round" stroke-linejoin="round"/>
<path d="M4 20H28" stroke="#71717A" stroke-width="1.5" stroke-linecap="round" stroke-linejoin="round"/>
<path d="M4 30H28" stroke="#71717A" stroke-width="1.5" stroke-linecap="round" stroke-linejoin="round"/>
<path d="M4 25H22.6667" stroke="#71717A" stroke-width="1.5" stroke-linecap="round" stroke-linejoin="round"/>
</svg>
