<svg xmlns="http://www.w3.org/2000/svg" width="24" height="24" fill="none" viewBox="0 0 24 24">
  <path stroke="#3F3F46" stroke-linecap="round" stroke-linejoin="round" stroke-width="1.5"
    d="M11.566 1.767a.486.486 0 0 1 .868 0l1.009 2.034a.483.483 0 0 0 .363.262l2.264.327a.481.481 0 0 1 .389.323.47.47 0 0 1-.121.487L14.7 6.794a.473.473 0 0 0-.138.419l.388 2.247a.475.475 0 0 1-.194.465.487.487 0 0 1-.51.035l-2.02-1.054a.482.482 0 0 0-.452 0L9.758 9.96a.487.487 0 0 1-.673-.24.474.474 0 0 1-.03-.26l.388-2.247a.473.473 0 0 0-.138-.419L7.662 5.2a.47.47 0 0 1 .028-.704.48.48 0 0 1 .24-.106l2.264-.327a.483.483 0 0 0 .363-.262l1.009-2.034ZM5.234 2.994a.484.484 0 0 0-.434.267L3.79 5.295a.483.483 0 0 1-.364.262l-2.263.327a.481.481 0 0 0-.389.323.472.472 0 0 0 .12.487l1.644 1.59a.471.471 0 0 1 .137.42l-.387 2.246a.474.474 0 0 0 .443.555c.09.005.18-.013.26-.055l2.015-1.05a.49.49 0 0 1 .453 0l.85.442M18.766 2.994a.484.484 0 0 1 .434.267l1.01 2.03a.483.483 0 0 0 .364.262l2.263.327a.48.48 0 0 1 .39.323.472.472 0 0 1-.12.487l-1.645 1.595a.47.47 0 0 0-.137.419l.387 2.246a.473.473 0 0 1-.193.466.491.491 0 0 1-.51.034l-2.015-1.051a.49.49 0 0 0-.453 0l-.845.442M3 15h18M3 22.5h18M3 18.75h14" />
</svg>