<svg width="24" height="24" viewBox="0 0 24 24" fill="none" xmlns="http://www.w3.org/2000/svg">
<path d="M11.5662 1.01726C11.6067 0.936901 11.6688 0.86936 11.7454 0.82217C11.822 0.774979 11.9102 0.749991 12.0002 0.749991C12.0902 0.749991 12.1785 0.774979 12.2551 0.82217C12.3317 0.86936 12.3937 0.936901 12.4342 1.01726L13.4432 3.05124C13.4781 3.12096 13.5293 3.18121 13.5925 3.22684C13.6557 3.27246 13.7291 3.3021 13.8062 3.31324L16.0702 3.64023C16.1586 3.65266 16.2419 3.68945 16.3106 3.7465C16.3793 3.80354 16.4307 3.87859 16.4592 3.96323C16.4871 4.04754 16.4905 4.13804 16.4691 4.22423C16.4477 4.31042 16.4023 4.38878 16.3382 4.45023L14.7002 6.04421C14.6449 6.09758 14.6034 6.16362 14.5794 6.23663C14.5553 6.30964 14.5494 6.38741 14.5622 6.4632L14.9502 8.71018C14.9649 8.79808 14.9544 8.88834 14.9201 8.97059C14.8858 9.05283 14.829 9.12374 14.7562 9.17517C14.6829 9.2275 14.5965 9.25848 14.5067 9.26466C14.4168 9.27084 14.327 9.25198 14.2472 9.21017L12.2262 8.15618C12.1566 8.11924 12.079 8.09992 12.0002 8.09992C11.9214 8.09992 11.8438 8.11924 11.7742 8.15618L9.75827 9.21017C9.67849 9.25198 9.58868 9.27084 9.49882 9.26466C9.40896 9.25848 9.32258 9.2275 9.24927 9.17517C9.17649 9.12374 9.11969 9.05283 9.08537 8.97059C9.05106 8.88834 9.04063 8.79808 9.05528 8.71018L9.44327 6.4632C9.45604 6.38741 9.45015 6.30964 9.42611 6.23663C9.40206 6.16362 9.36059 6.09758 9.30527 6.04421L7.66229 4.45023C7.59817 4.38878 7.55277 4.31042 7.53136 4.22423C7.50995 4.13804 7.51339 4.04754 7.54129 3.96323C7.56976 3.87859 7.62122 3.80354 7.68993 3.7465C7.75863 3.68945 7.84186 3.65266 7.93029 3.64023L10.1943 3.31324C10.2714 3.3021 10.3447 3.27246 10.4079 3.22684C10.4712 3.18121 10.5224 3.12096 10.5573 3.05124L11.5662 1.01726Z" stroke="#71717A" stroke-width="1.5" stroke-linecap="round" stroke-linejoin="round"/>
<path d="M5.23418 2.24424C5.14416 2.24398 5.05586 2.26884 4.9792 2.316C4.90253 2.36317 4.84054 2.43078 4.80018 2.51124L3.79019 4.54521C3.75523 4.61506 3.70384 4.67539 3.64045 4.72102C3.57705 4.76665 3.50353 4.79623 3.4262 4.80721L1.16322 5.13421C1.07479 5.14663 0.991565 5.18342 0.922862 5.24047C0.854159 5.29752 0.802693 5.37256 0.774228 5.4572C0.746443 5.54145 0.742963 5.63182 0.764187 5.71796C0.785412 5.80409 0.830481 5.8825 0.894226 5.9442L2.53821 7.53518C2.59349 7.58855 2.63487 7.65463 2.65875 7.72766C2.68263 7.80069 2.68828 7.87846 2.67521 7.95417L2.28821 10.2001C2.27326 10.2881 2.28344 10.3785 2.31758 10.4609C2.35172 10.5434 2.40844 10.6145 2.48121 10.6661C2.5549 10.7181 2.64147 10.7487 2.73143 10.7547C2.82139 10.7607 2.91127 10.7418 2.9912 10.7001L5.00618 9.65015C5.07611 9.6137 5.15381 9.59466 5.23268 9.59466C5.31154 9.59466 5.38924 9.6137 5.45917 9.65015L6.29339 10.0851" stroke="#71717A" stroke-width="1.5" stroke-linecap="round" stroke-linejoin="round"/>
<path d="M18.7659 2.24424C18.8559 2.24398 18.9442 2.26884 19.0208 2.316C19.0975 2.36317 19.1595 2.43078 19.1999 2.51124L20.2098 4.54121C20.2448 4.61106 20.2962 4.67139 20.3596 4.71702C20.423 4.76265 20.4965 4.79223 20.5738 4.80321L22.8368 5.13021C22.9252 5.14263 23.0085 5.17942 23.0772 5.23647C23.1459 5.29352 23.1973 5.36856 23.2258 5.4532C23.2536 5.53745 23.2571 5.62782 23.2358 5.71396C23.2146 5.80009 23.1696 5.8785 23.1058 5.9402L21.4618 7.53518C21.4065 7.58855 21.3652 7.65463 21.3413 7.72766C21.3174 7.80069 21.3118 7.87846 21.3248 7.95417L21.7118 10.2001C21.7268 10.2881 21.7166 10.3785 21.6825 10.4609C21.6483 10.5434 21.5916 10.6145 21.5188 10.6661C21.4451 10.7181 21.3586 10.7487 21.2686 10.7547C21.1786 10.7607 21.0888 10.7418 21.0088 10.7001L18.9939 9.64915C18.9239 9.6127 18.8462 9.59366 18.7674 9.59366C18.6885 9.59366 18.6108 9.6127 18.5409 9.64915L17.6971 10.0901" stroke="#71717A" stroke-width="1.5" stroke-linecap="round" stroke-linejoin="round"/>
<path d="M2.99997 14.0001H20.9998" stroke="#71717A" stroke-width="1.5" stroke-linecap="round" stroke-linejoin="round"/>
<path d="M2.99997 22H20.9998" stroke="#71717A" stroke-width="1.5" stroke-linecap="round" stroke-linejoin="round"/>
<path d="M2.99997 18.0001H16.9998" stroke="#71717A" stroke-width="1.5" stroke-linecap="round" stroke-linejoin="round"/>
</svg>
