<svg xmlns="http://www.w3.org/2000/svg" width="32" height="32" fill="none" viewBox="0 0 32 32">
  <path stroke="#3F3F46" stroke-linecap="round" stroke-linejoin="round" stroke-width="2"
    d="M9.832 1.445a1 1 0 0 0-1.664 0L3 10h3l-3.866 5.504A1 1 0 0 0 3 17h12a1 1 0 0 0 .868-1.496L12 10h3L9.832 1.445ZM9 17v6.11M25.683 1.364a.819.819 0 0 0-1.361 0L20.092 8h2.455l-3.437 4.776A.818.818 0 0 0 19.82 14h10.36a.817.817 0 0 0 .711-1.224L27.457 8h2.454l-4.228-6.636ZM25.002 14v5.38M1.074 24a18.022 18.022 0 0 1 20.86 6.95" />
  <path stroke="#3F3F46" stroke-linecap="round" stroke-linejoin="round" stroke-width="2"
    d="M31 19.093A21.26 21.26 0 0 0 29 19a20.933 20.933 0 0 0-14.278 5.6" />
</svg>