<svg xmlns="http://www.w3.org/2000/svg" width="32" height="32" fill="none" viewBox="0 0 32 32">
  <path stroke="#3F3F46" stroke-linecap="round" stroke-linejoin="round" stroke-width="2"
    d="M29.667 1H2.333C1.597 1 1 1.597 1 2.333v27.334C1 30.403 1.597 31 2.333 31h27.334c.736 0 1.333-.597 1.333-1.333V2.333C31 1.597 30.403 1 29.667 1Z" />
  <path stroke="#3F3F46" stroke-linecap="round" stroke-linejoin="round" stroke-width="2"
    d="M8 31V14a1 1 0 0 1 1-1h14a1 1 0 0 1 1 1v16.947M16 13v18M18.688 5.362 20.667 8l1.978-2.638M9.39 7.924l1.944-2.59 1.943 2.59" />
</svg>