<svg xmlns="http://www.w3.org/2000/svg" width="24" height="24" fill="none" viewBox="0 0 24 24">
  <path stroke="#3F3F46" stroke-linecap="round" stroke-linejoin="round" stroke-width="1.5"
    d="M22.25.75H1.75a1 1 0 0 0-1 1v20.5a1 1 0 0 0 1 1h20.5a1 1 0 0 0 1-1V1.75a1 1 0 0 0-1-1Z" />
  <path stroke="#3F3F46" stroke-linecap="round" stroke-linejoin="round" stroke-width="1.5"
    d="M6 23.25V10.5a.75.75 0 0 1 .75-.75h10.5a.75.75 0 0 1 .75.75v12.625M12 9.75v13.5M14.013 4.017 15.5 6l1.488-1.983M9.99 5.987 8.5 4 7.01 5.987" />
</svg>