<svg xmlns="http://www.w3.org/2000/svg" width="16" height="16" fill="none" viewBox="0 0 16 16">
  <path stroke="#3F3F46" stroke-linecap="round" stroke-linejoin="round"
    d="M15.333 5.333a.667.667 0 0 1-.667.667h-1.333a.667.667 0 0 1-.667-.667V2c0-.368.299-.667.667-.667h1.333c.368 0 .667.299.667.667v3.333ZM3.333 5.333A.667.667 0 0 1 2.666 6H1.333a.667.667 0 0 1-.667-.667V2c0-.368.299-.667.667-.667h1.333c.369 0 .667.299.667.667v3.333ZM3.333 13.667h9.333M3.333 3.667h9.333M9.333 15.334H6.666M9.333 2H6.666" />
</svg>