<svg xmlns="http://www.w3.org/2000/svg" width="32" height="32" fill="none" viewBox="0 0 32 32">
  <path stroke="#3F3F46" stroke-linecap="round" stroke-linejoin="round" stroke-width="2"
    d="M30.667 10.667c0 .736-.597 1.333-1.333 1.333h-2.667a1.333 1.333 0 0 1-1.333-1.333V4c0-.736.597-1.333 1.333-1.333h2.667c.736 0 1.333.597 1.333 1.333v6.667ZM6.667 10.667c0 .736-.597 1.333-1.333 1.333H2.667a1.333 1.333 0 0 1-1.333-1.333V4c0-.736.597-1.333 1.333-1.333h2.667c.736 0 1.333.597 1.333 1.333v6.667ZM6.667 27.333h18.667M6.667 7.333h18.667M18.667 30.667h-5.333M18.667 4h-5.333" />
</svg>