<svg width="24" height="24" viewBox="0 0 24 24" fill="none" xmlns="http://www.w3.org/2000/svg">
<path d="M23 8C23 8.55229 22.5523 9 22 9L20 9C19.4477 9 19 8.55229 19 8L19 3C19 2.44772 19.4477 2 20 2L22 2C22.5523 2 23 2.44772 23 3L23 8Z" stroke="#71717A" stroke-width="1.5" stroke-linecap="round" stroke-linejoin="round"/>
<path d="M5 8C5 8.55228 4.55228 9 4 9L2 9C1.44772 9 1 8.55228 1 8L1 3C1 2.44771 1.44772 2 2 2L4 2C4.55229 2 5 2.44772 5 3L5 8Z" stroke="#71717A" stroke-width="1.5" stroke-linecap="round" stroke-linejoin="round"/>
<path d="M5 20.5L12 20.5L19 20.5" stroke="#71717A" stroke-width="1.5" stroke-linecap="round" stroke-linejoin="round"/>
<path d="M5 5.5L12 5.5L19 5.5" stroke="#71717A" stroke-width="1.5" stroke-linecap="round" stroke-linejoin="round"/>
<path d="M14 23L10 23" stroke="#71717A" stroke-width="1.5" stroke-linecap="round" stroke-linejoin="round"/>
<path d="M14 3L10 3" stroke="#71717A" stroke-width="1.5" stroke-linecap="round" stroke-linejoin="round"/>
</svg>
