<svg width="32" height="32" viewBox="0 0 32 32" fill="none" xmlns="http://www.w3.org/2000/svg">
<path d="M1.6665 2.66667C1.6665 1.93029 2.26346 1.33334 2.99984 1.33334H5.6665C6.40288 1.33334 6.99984 1.93029 6.99984 2.66667V9.33334C6.99984 10.0697 6.40288 10.6667 5.6665 10.6667H2.99984C2.26346 10.6667 1.6665 10.0697 1.6665 9.33334V2.66667Z" stroke="#71717A" stroke-width="1.5" stroke-linecap="round" stroke-linejoin="round"/>
<path d="M24.9995 2.66667C24.9995 1.93029 25.5965 1.33334 26.3328 1.33334H28.9995C29.7359 1.33334 30.3328 1.93029 30.3328 2.66667V9.33334C30.3328 10.0697 29.7359 10.6667 28.9995 10.6667H26.3328C25.5965 10.6667 24.9995 10.0697 24.9995 9.33334V2.66667Z" stroke="#71717A" stroke-width="1.5" stroke-linecap="round" stroke-linejoin="round"/>
<path d="M24.9997 6H16H7" stroke="#71717A" stroke-width="1.5" stroke-linecap="round" stroke-linejoin="round"/>
<path d="M25.3332 26H15.9998H6.6665" stroke="#71717A" stroke-width="1.5" stroke-linecap="round" stroke-linejoin="round"/>
<path d="M13.333 2.50001L18.6663 2.50001" stroke="#71717A" stroke-width="1.5" stroke-linecap="round" stroke-linejoin="round"/>
<path d="M13.333 29.5H18.6663" stroke="#71717A" stroke-width="1.5" stroke-linecap="round" stroke-linejoin="round"/>
</svg>
