<svg width="24" height="24" fill="none" xmlns="http://www.w3.org/2000/svg"><path d="M8 17.5v-6M11 17.5l-3-3 3-3" stroke="#47474F" stroke-width="1.5" stroke-linecap="round" stroke-linejoin="round"/><path d="M6.698 7h10.604a2 2 0 0 1 1.96 1.6l2.186 10.7a2.25 2.25 0 0 1-2.204 2.7H4.756a2.25 2.25 0 0 1-2.204-2.7L4.738 8.6A2 2 0 0 1 6.698 7Z" stroke="#47474F" stroke-width="1.5" stroke-linecap="round" stroke-linejoin="round"/><path d="m16 7-.73-3.784A1.5 1.5 0 0 0 13.796 2h-3.594a1.5 1.5 0 0 0-1.472 1.216L8 7M16 11.5h-1a2 2 0 0 0-2 2v2a2 2 0 0 0 2 2h1v-2.8h-.857" stroke="#47474F" stroke-width="1.5" stroke-linecap="round" stroke-linejoin="round"/></svg>