<svg width="16" height="16" fill="none" xmlns="http://www.w3.org/2000/svg"><g clip-path="url(#a)" stroke="#47474F" stroke-width="1.5" stroke-linecap="round" stroke-linejoin="round"><path d="M5.333 11.666v-4M7.333 11.666l-2-2 2-2"/><path d="M4.465 4.667h7.07c.634 0 1.18.445 1.306 1.066l1.458 7.133a1.5 1.5 0 0 1-1.47 1.8H3.171a1.5 1.5 0 0 1-1.47-1.8L3.16 5.733a1.333 1.333 0 0 1 1.306-1.066ZM10.667 4.667l-.487-2.523a1 1 0 0 0-.982-.81H6.802a1 1 0 0 0-.981.81l-.487 2.523"/><path d="M10.666 7.667H10c-.737 0-1.334.596-1.334 1.333v1.333c0 .737.597 1.333 1.334 1.333h.666V9.8"/></g><defs><clipPath id="a"><path fill="#fff" d="M0 0h16v16H0z"/></clipPath></defs></svg>