<svg xmlns="http://www.w3.org/2000/svg" width="32" height="32" fill="none" viewBox="0 0 32 32">
  <path stroke="#3F3F46" stroke-linecap="round" stroke-linejoin="round" stroke-width="2"
    d="M26.667 10.667V3.334c0-.53-.206-1.04-.57-1.415a1.924 1.924 0 0 0-1.379-.586H3.282c-.517 0-1.012.211-1.378.586-.365.375-.57.884-.57 1.414v16c0 .53.205 1.04.57 1.415.366.375.861.585 1.378.585h7.333M1.333 6.667h25.334M5.333 12H12M5.333 16h4M26 20l-3.334 4.667-2-2" />
  <path stroke="#3F3F46" stroke-linejoin="round" stroke-width="2"
    d="M30.666 22v-6c0-.736-.596-1.333-1.333-1.333H16c-.736 0-1.334.597-1.334 1.333v6a8 8 0 0 0 4.924 7.385l2.564 1.068c.328.137.697.137 1.025 0l2.564-1.068A8 8 0 0 0 30.667 22Z" />
</svg>