<svg xmlns="http://www.w3.org/2000/svg" width="16" height="16" fill="none" viewBox="0 0 16 16">
  <path stroke="#3F3F46" stroke-linecap="round" stroke-linejoin="round"
    d="M13.333 5.333V1.666c0-.265-.103-.52-.285-.707a.962.962 0 0 0-.69-.292H1.642a.962.962 0 0 0-.69.292 1.014 1.014 0 0 0-.284.708v8c0 .265.102.52.285.707.183.187.43.292.689.292h3.666M.667 3.333h12.666M2.667 6H6M2.667 8h2M13 10l-1.666 2.333-1-1" />
  <path stroke="#3F3F46" stroke-linejoin="round"
    d="M15.334 11V8a.667.667 0 0 0-.667-.667H8A.667.667 0 0 0 7.333 8v3a4 4 0 0 0 2.462 3.693l1.282.534a.667.667 0 0 0 .513 0l1.282-.534A4 4 0 0 0 15.334 11Z" />
</svg>