<svg xmlns="http://www.w3.org/2000/svg" width="32" height="32" fill="none" viewBox="0 0 32 32">
  <path stroke="#3F3F46" stroke-linecap="round" stroke-linejoin="round" stroke-width="2"
    d="M10 1H4a2 2 0 0 0-2 2v26a2 2 0 0 0 2 2h6a2 2 0 0 0 2-2V3a2 2 0 0 0-2-2ZM12 29 22.319 6.053a1.999 1.999 0 0 0-1.085-2.612L15.778 1.19" />
  <path stroke="#3F3F46" stroke-linecap="round" stroke-linejoin="round" stroke-width="2"
    d="m11.766 29.94 17.581-14.957a2 2 0 0 0 .134-2.826l-3.962-4.353M2 7h10M2 13h10M2 19h10" />
</svg>