<svg xmlns="http://www.w3.org/2000/svg" width="24" height="24" fill="none" viewBox="0 0 24 24">
  <path stroke="#3F3F46" stroke-linecap="round" stroke-linejoin="round" stroke-width="1.5"
    d="M7.5.75H3a1.5 1.5 0 0 0-1.5 1.5v19.5a1.5 1.5 0 0 0 1.5 1.5h4.5a1.5 1.5 0 0 0 1.5-1.5V2.25A1.5 1.5 0 0 0 7.5.75ZM11.765.864l4.159 1.717a1.5 1.5 0 0 1 .814 1.959L9 21.75" />
  <path stroke="#3F3F46" stroke-linecap="round" stroke-linejoin="round" stroke-width="1.5"
    d="m19.08 5.79 3.03 3.328a1.5 1.5 0 0 1-.1 2.119L8.824 22.455M1.5 5.25H9M1.5 9.75H9M1.5 14.25H9" />
</svg>