<svg xmlns="http://www.w3.org/2000/svg" width="32" height="32" fill="none" viewBox="0 0 32 32">
  <path fill="#3F3F46" fill-rule="evenodd"
    d="M7.762 30.825c-1.117.576-2.422-.354-2.209-1.574l1.573-8.999L.461 13.88c-.903-.863-.405-2.368.844-2.546l9.21-1.313 4.12-8.188c.558-1.11 2.172-1.11 2.73 0l4.12 8.188 9.21 1.313c1.249.178 1.747 1.683.844 2.546l-6.665 6.373 1.573 9c.213 1.219-1.092 2.15-2.209 1.573L16 26.577l-8.238 4.248ZM16 23.201l6.972 3.596-1.33-7.606 5.57-5.325-7.703-1.098-3.51-6.974-3.508 6.974-7.703 1.098 5.57 5.325-1.33 7.606L16 23.2Z"
    clip-rule="evenodd" />
</svg>