<svg width="42" height="28" viewBox="0 0 42 28" fill="none" xmlns="http://www.w3.org/2000/svg">
<path d="M14 5V7.85714L15 9" stroke="#9BA8BA" stroke-width="2" stroke-linecap="round" stroke-linejoin="round"/>
<path d="M20 7C20 10.3137 17.3137 13 14 13C10.6863 13 8 10.3137 8 7C8 3.68629 10.6863 1 14 1C17.3137 1 20 3.68629 20 7Z" stroke="#9BA8BA" stroke-width="2" stroke-linecap="round" stroke-linejoin="round"/>
<path d="M35 12H29" stroke="#9BA8BA" stroke-width="2" stroke-linecap="round" stroke-linejoin="round"/>
<path d="M36 23H41V16.5352C41 16.2008 40.8329 15.8886 40.5547 15.7031L35 12L31.4 7.2C29.8892 5.18555 27.5181 4 25 4H23" stroke="#9BA8BA" stroke-width="2" stroke-linecap="round" stroke-linejoin="round"/>
<path d="M27 23H14" stroke="#9BA8BA" stroke-width="2" stroke-linecap="round" stroke-linejoin="round"/>
<path d="M36 22.5C36 24.9853 33.9853 27 31.5 27C29.0147 27 27 24.9853 27 22.5C27 20.0147 29.0147 18 31.5 18C33.9853 18 36 20.0147 36 22.5Z" stroke="#9BA8BA" stroke-width="2" stroke-linecap="round"/>
<path d="M14 22.5C14 24.9853 11.9853 27 9.5 27C7.01472 27 5 24.9853 5 22.5C5 20.0147 7.01472 18 9.5 18C11.9853 18 14 20.0147 14 22.5Z" stroke="#9BA8BA" stroke-width="2" stroke-linecap="round"/>
<path d="M5 23H3C1.89543 23 1 22.1046 1 21V13L3.5 6.5L2 4H5" stroke="#9BA8BA" stroke-width="2" stroke-linecap="round" stroke-linejoin="round"/>
</svg>
