<svg xmlns="http://www.w3.org/2000/svg" width="42" height="28" fill="none" viewBox="0 0 42 28">
  <path stroke="#9BA8BA" stroke-linecap="round" stroke-linejoin="round" stroke-width="2"
    d="M14.89 6.344V8.79l.855.978" />
  <path stroke="#9BA8BA" stroke-linecap="round" stroke-linejoin="round" stroke-width="2"
    d="M20.025 8.056a5.136 5.136 0 1 1-10.272 0 5.136 5.136 0 0 1 10.272 0ZM32.864 12.336H27.73M33.72 21.75H38v-5.533a.856.856 0 0 0-.381-.712l-4.755-3.17-3.081-4.108a6.848 6.848 0 0 0-5.478-2.74h-1.712M26.017 21.751H14.889" />
  <path stroke="#9BA8BA" stroke-linecap="round" stroke-width="2"
    d="M33.72 21.323a3.852 3.852 0 1 1-7.703 0 3.852 3.852 0 0 1 7.703 0ZM14.89 21.323a3.852 3.852 0 1 1-7.704 0 3.852 3.852 0 0 1 7.703 0Z" />
  <path stroke="#9BA8BA" stroke-linecap="round" stroke-linejoin="round" stroke-width="2"
    d="M7.186 21.75H5.474a1.712 1.712 0 0 1-1.712-1.711v-6.848l2.14-5.563-1.284-2.14h2.568" />
</svg>