<svg xmlns="http://www.w3.org/2000/svg" width="16" height="16" fill="none" viewBox="0 0 16 16">
  <path stroke="#3F3F46" stroke-linecap="round" stroke-linejoin="round"
    d="M6.667 1.333h2.666M12.666 3H3.333M8 13H3.333m-2 2.334h1.334a.667.667 0 0 0 .666-.667v-3.333a.667.667 0 0 0-.667-.667H1.334a.667.667 0 0 0-.666.667v3.333c0 .368.298.667.666.667ZM12.666 11.334c0-.368.299-.667.667-.667h1.333c.369 0 .667.299.667.667v3.333a.667.667 0 0 1-.667.667h-1.333a.667.667 0 0 1-.667-.667v-3.333ZM12.666 13H3.333M6.667 14.667h2.666" />
</svg>