<svg xmlns="http://www.w3.org/2000/svg" width="32" height="32" fill="none" viewBox="0 0 32 32">
  <path stroke="#3F3F46" stroke-linecap="round" stroke-linejoin="round" stroke-width="2"
    d="M25.001 22.667c0-.737.597-1.334 1.333-1.334h2.667c.736 0 1.333.598 1.333 1.334v6.666c0 .737-.597 1.334-1.333 1.334h-2.667a1.333 1.333 0 0 1-1.333-1.334v-6.666ZM1.667 22.667c0-.737.597-1.334 1.333-1.334h2.667c.736 0 1.333.598 1.333 1.334v6.666c0 .737-.597 1.334-1.333 1.334H3a1.333 1.333 0 0 1-1.333-1.334v-6.666Z" />
  <path stroke="#3F3F46" stroke-linecap="round" stroke-linejoin="round" stroke-width="2"
    d="M25.001 22.667c0-.737.597-1.334 1.333-1.334h2.667c.736 0 1.333.598 1.333 1.334v6.666c0 .737-.597 1.334-1.333 1.334h-2.667a1.333 1.333 0 0 1-1.333-1.334v-6.666ZM13.334 2.5h5.333M25.334 6H6.667M1.667 22.667c0-.737.597-1.334 1.333-1.334h2.667c.736 0 1.333.598 1.333 1.334v6.666c0 .737-.597 1.334-1.333 1.334H3a1.333 1.333 0 0 1-1.333-1.334v-6.666ZM13.334 29.5h5.333M25 26H7" />
</svg>