<svg xmlns="http://www.w3.org/2000/svg" width="24" height="24" fill="none" viewBox="0 0 24 24">
  <path stroke="#3F3F46" stroke-linecap="round" stroke-linejoin="round" stroke-width="1.5"
    d="M12 23.25c6.213 0 11.25-5.037 11.25-11.25S18.213.75 12 .75.75 5.787.75 12 5.787 23.25 12 23.25ZM7.5 15.75h9" />
  <path stroke="#3F3F46" stroke-linecap="round" stroke-linejoin="round" stroke-width="1.5"
    d="M18.75 9a2.25 2.25 0 0 1-4.243 0M9.493 9A2.25 2.25 0 0 1 5.25 9" />
  <path stroke="#3F3F46" stroke-linecap="round" stroke-linejoin="round" stroke-width="1.5"
    d="M14.528 9.056a2.25 2.25 0 0 0 4.201 0M5.263 9.035a2.25 2.25 0 0 0 4.218 0" />
</svg>