<svg xmlns="http://www.w3.org/2000/svg" width="32" height="32" fill="none" viewBox="0 0 32 32">
  <path stroke="#3F3F46" stroke-linecap="round" stroke-linejoin="round" stroke-width="2"
    d="M1.333 2.667c0-.737.597-1.333 1.334-1.333h2.667c.736 0 1.333.596 1.333 1.333v6.667c0 .736-.597 1.333-1.333 1.333H2.667a1.333 1.333 0 0 1-1.333-1.333V2.667ZM1.333 22.667c0-.737.597-1.334 1.334-1.334h2.667c.736 0 1.333.597 1.333 1.334v6.666c0 .737-.597 1.334-1.333 1.334H2.667a1.333 1.333 0 0 1-1.333-1.334v-6.666ZM25.334 2.667c0-.737.596-1.333 1.333-1.333h2.666c.737 0 1.334.596 1.334 1.333v6.667c0 .736-.597 1.333-1.334 1.333h-2.666a1.333 1.333 0 0 1-1.334-1.333V2.667ZM25.334 22.667c0-.737.596-1.334 1.333-1.334h2.666c.737 0 1.334.597 1.334 1.334v6.666c0 .737-.597 1.334-1.334 1.334h-2.666a1.333 1.333 0 0 1-1.334-1.334v-6.666ZM25.334 26H6.667M13.334 2.667h5.333M13.334 29.334h5.333M16.001 6v20M25.334 6H6.667" />
</svg>