<svg xmlns="http://www.w3.org/2000/svg" width="16" height="16" fill="none" viewBox="0 0 16 16">
  <path stroke="#3F3F46" stroke-linecap="round" stroke-linejoin="round" stroke-width="1.5"
    d="M1.667 2.334c0-.369.298-.667.666-.667h1.333c.369 0 .667.298.667.667v3.333a.667.667 0 0 1-.667.667H2.333a.667.667 0 0 1-.667-.667V2.334ZM1.667 10.334c0-.369.298-.667.666-.667h1.333c.369 0 .667.298.667.667v3.333a.667.667 0 0 1-.667.667H2.333a.667.667 0 0 1-.667-.667v-3.333ZM11.666 2.334c0-.369.299-.667.667-.667h1.333c.369 0 .667.298.667.667v3.333a.667.667 0 0 1-.667.667h-1.333a.667.667 0 0 1-.667-.667V2.334ZM11.666 10.334c0-.369.299-.667.667-.667h1.333c.369 0 .667.298.667.667v3.333a.667.667 0 0 1-.667.667h-1.333a.667.667 0 0 1-.667-.667v-3.333ZM11.663 12h-7.33M8 4v8M11.663 4h-7.33" />
</svg>