<svg xmlns="http://www.w3.org/2000/svg" width="16" height="16" fill="none" viewBox="0 0 16 16">
  <path stroke="#3F3F46" stroke-linecap="round"
    d="m7.75 12.19-2.16.864a.666.666 0 0 1-.495 0l-4.148-1.66a.667.667 0 0 1-.42-.618V1.86c0-.472.477-.794.915-.62l3.653 1.462a.667.667 0 0 0 .495 0L9.91.974a.667.667 0 0 1 .495 0l4.148 1.66c.253.1.42.346.42.619v2.919" />
  <path stroke="#3F3F46" stroke-linecap="round" stroke-linejoin="round"
    d="M5.342 2.801v10.111M10.158 1.357V5.69" />
  <path stroke="#3F3F46"
    d="M14.972 10.264c0 1.596-2.738 4.815-2.889 4.815-.15 0-2.889-3.22-2.889-4.815a2.889 2.889 0 1 1 5.778 0Z" />
  <path stroke="#3F3F46" stroke-linecap="round" d="M11.666 10.666h1" />
</svg>