<svg xmlns="http://www.w3.org/2000/svg" width="32" height="32" fill="none" viewBox="0 0 32 32">
  <path stroke="#3F3F46" stroke-linecap="round" stroke-width="2"
    d="m15.5 24.38-4.32 1.728a1.333 1.333 0 0 1-.99 0L1.893 22.79a1.333 1.333 0 0 1-.838-1.238V3.72c0-.943.953-1.588 1.829-1.238l7.306 2.923c.318.127.672.127.99 0l8.64-3.456c.317-.127.672-.127.99 0l8.296 3.318c.506.203.838.693.838 1.238v5.838" />
  <path stroke="#3F3F46" stroke-linecap="round" stroke-linejoin="round" stroke-width="2"
    d="M10.685 5.603v20.222M20.315 2.714v8.666" />
  <path stroke="#3F3F46" stroke-width="2"
    d="M29.944 20.529c0 3.19-5.476 9.63-5.777 9.63-.303 0-5.778-6.44-5.778-9.63a5.778 5.778 0 1 1 11.555 0Z" />
  <path stroke="#3F3F46" stroke-linecap="round" stroke-width="2" d="M23.334 21.333h2" />
</svg>