<svg width="24" height="24" viewBox="0 0 24 24" fill="none" xmlns="http://www.w3.org/2000/svg">
<path d="M11.6248 18.2853L8.38512 19.5812C8.14671 19.6765 7.88075 19.6765 7.64234 19.5812L1.42011 17.0923C1.04046 16.9404 0.791504 16.5727 0.791504 16.1638V2.79008C0.791504 2.08262 1.50603 1.59886 2.16289 1.86161L7.64234 4.05338C7.88075 4.14875 8.14671 4.14875 8.38512 4.05338L14.8646 1.46161C15.103 1.36624 15.3689 1.36624 15.6073 1.46161L21.8296 3.95049C22.2092 4.10236 22.4582 4.47007 22.4582 4.87897V9.25749" stroke="#71717A" stroke-width="1.5" stroke-linecap="round"/>
<path d="M8.01367 4.20197V19.3686" stroke="#71717A" stroke-width="1.5" stroke-linecap="round" stroke-linejoin="round"/>
<path d="M15.2363 2.03528V8.53528" stroke="#71717A" stroke-width="1.5" stroke-linecap="round" stroke-linejoin="round"/>
<path d="M22.4582 15.3964C22.4582 17.7896 18.3514 22.6186 18.1248 22.6186C17.8983 22.6186 13.7915 17.7896 13.7915 15.3964C13.7915 13.0032 15.7316 11.0631 18.1248 11.0631C20.5181 11.0631 22.4582 13.0032 22.4582 15.3964Z" stroke="#71717A" stroke-width="1.5"/>
<path d="M17.5 16H19" stroke="#71717A" stroke-width="1.5" stroke-linecap="round"/>
</svg>
