<svg xmlns="http://www.w3.org/2000/svg" width="24" height="24" fill="none" viewBox="0 0 24 24">
  <path stroke="#3F3F46" stroke-linecap="round" stroke-width="1.5"
    d="m12 18.75-3.379 1.351a1 1 0 0 1-.742 0l-6.5-2.6a1 1 0 0 1-.629-.928V2.602a1 1 0 0 1 1.371-.928L7.88 3.976a1 1 0 0 0 .742 0l6.758-2.702a1 1 0 0 1 .742 0l6.5 2.6a1 1 0 0 1 .629.928v4.573" />
  <path stroke="#3F3F46" stroke-linecap="round" stroke-linejoin="round" stroke-width="1.5"
    d="M8.25 4.125v15.75M15.75 1.875v6.75" />
  <path stroke="#3F3F46" stroke-width="1.5"
    d="M23.25 15.75c0 2.485-4.265 7.5-4.5 7.5-.235 0-4.5-5.015-4.5-7.5a4.5 4.5 0 1 1 9 0Z" />
  <path stroke="#3F3F46" stroke-linecap="round" stroke-width="1.5" d="M17.625 16.5h2.25" />
</svg>