<svg xmlns="http://www.w3.org/2000/svg" width="32" height="32" fill="none" viewBox="0 0 32 32">
  <path stroke="#3F3F46" stroke-linecap="round" stroke-linejoin="round" stroke-width="2"
    d="M22.667 16v13.333H5.333V16M22.667 29.333H30v-24a2.667 2.667 0 0 0-2.666-2.666h-2a2.667 2.667 0 0 0-2.667 2.666V12M18.534 28.817 9.467 21.45" />
  <path stroke="#3F3F46" stroke-linecap="round" stroke-linejoin="round" stroke-width="2"
    d="M18.667 29.333v-8H9.333v8M22.667 9.333H30M22.667 21.333H30M22.667 25.333H30M2.667 17.333l11.333-8 11.334 8" />
  <path stroke="#3F3F46" stroke-linecap="round" stroke-linejoin="round" stroke-width="2"
    d="m12 15.917 2-1.25 2 1.25M2.667 8l2 1.417 2-1.417M8 2.667l2 1.416 2-1.416" />
</svg>