<svg xmlns="http://www.w3.org/2000/svg" width="24" height="24" fill="none" viewBox="0 0 24 24">
  <path stroke="#3F3F46" stroke-linecap="round" stroke-linejoin="round" stroke-width="1.5"
    d="M17.25 12v10.5H3.75V12" />
  <path stroke="#3F3F46" stroke-linecap="round" stroke-linejoin="round" stroke-width="1.5"
    d="M17 22.5h5.5V4.125A2.625 2.625 0 0 0 19.875 1.5v0a2.625 2.625 0 0 0-2.625 2.625V9M13.55 22.125 7.5 16.5M13.5 22.5v-6h-6v6M17.25 6.75h5.25M17.25 16.5h5.25M17.25 19.5h5.25" />
  <path stroke="#3F3F46" stroke-linecap="round" stroke-linejoin="round" stroke-width="1.5"
    d="m2.25 12.75 8.25-6 8.25 6" />
  <path stroke="#3F3F46" stroke-linecap="round" stroke-linejoin="round" stroke-width="1.5"
    d="m9 12.188 1.5-.938 1.5.938M1.5 6 3 7.063 4.5 6M5.25 2.25l1.5 1.063 1.5-1.063" />
</svg>