<svg xmlns="http://www.w3.org/2000/svg" width="16" height="16" fill="none" viewBox="0 0 16 16">
  <path stroke="#3F3F46" stroke-linecap="round" stroke-linejoin="round"
    d="M10.988 9.86a2.8 2.8 0 0 0-1.356-2.076 3.157 3.157 0 0 0-3.251 0A2.8 2.8 0 0 0 5.025 9.86a1.454 1.454 0 0 1-.774 1.092 2.297 2.297 0 0 0-1.133 2.733 2.383 2.383 0 0 0 1.666 1.55 2.64 2.64 0 0 0 2.316-.444 1.496 1.496 0 0 1 1.812 0 2.637 2.637 0 0 0 2.316.444 2.383 2.383 0 0 0 1.667-1.55 2.297 2.297 0 0 0-1.133-2.733 1.453 1.453 0 0 1-.774-1.092v0ZM5.506 5.833c.829 0 1.5-.895 1.5-2 0-1.104-.671-2-1.5-2-.828 0-1.5.896-1.5 2 0 1.105.672 2 1.5 2ZM2.006 9.834c.829 0 1.5-.896 1.5-2 0-1.105-.671-2-1.5-2-.828 0-1.5.895-1.5 2 0 1.104.672 2 1.5 2ZM10.506 5.833c.829 0 1.5-.895 1.5-2 0-1.104-.671-2-1.5-2-.828 0-1.5.896-1.5 2 0 1.105.672 2 1.5 2ZM14.006 9.834c.829 0 1.5-.896 1.5-2 0-1.105-.671-2-1.5-2-.828 0-1.5.895-1.5 2 0 1.104.672 2 1.5 2ZM2.006 5.833v-1M5.506 1.833v-1M10.506 1.833v-1M14.006 5.833v-1" />
</svg>