<svg xmlns="http://www.w3.org/2000/svg" width="32" height="32" fill="none" viewBox="0 0 32 32">
  <path stroke="#3F3F46" stroke-linecap="round" stroke-linejoin="round" stroke-width="2"
    d="M21.976 19.72a5.599 5.599 0 0 0-2.712-4.152 6.314 6.314 0 0 0-6.502 0 5.599 5.599 0 0 0-2.712 4.152 2.908 2.908 0 0 1-1.548 2.184 4.593 4.593 0 0 0-2.266 5.467 4.766 4.766 0 0 0 3.333 3.1 5.279 5.279 0 0 0 4.632-.89 2.992 2.992 0 0 1 3.624 0 5.28 5.28 0 0 0 4.632.89 4.765 4.765 0 0 0 3.333-3.1 4.594 4.594 0 0 0-2.266-5.467 2.91 2.91 0 0 1-1.548-2.184v0ZM11.013 11.666c1.657 0 3-1.79 3-4 0-2.209-1.343-4-3-4s-3 1.791-3 4c0 2.21 1.343 4 3 4ZM4 19.666c1.657 0 3-1.79 3-4 0-2.209-1.343-4-3-4s-3 1.791-3 4c0 2.21 1.343 4 3 4ZM21.013 11.666c1.657 0 3-1.79 3-4 0-2.209-1.343-4-3-4s-3 1.791-3 4c0 2.21 1.343 4 3 4ZM28 19.666c1.657 0 3-1.79 3-4 0-2.209-1.343-4-3-4s-3 1.791-3 4c0 2.21 1.343 4 3 4ZM4.013 11.666v-2M11.013 3.667v-2M21.013 3.667v-2M28.013 11.666v-2" />
</svg>