<svg xmlns="http://www.w3.org/2000/svg" width="42" height="28" fill="none" viewBox="0 0 42 28">
  <path stroke="#9BA8BA" stroke-linecap="round" stroke-linejoin="round" stroke-width="2"
    d="M10.714 13.143 23.571 2.857 36.43 13.143M13.286 25.143V11.086M13.286 23.428c0-.946-.768-1.714-1.715-1.714h-.857a3.429 3.429 0 1 0-3.429 3.429h30.858" />
  <path stroke="#9BA8BA" stroke-linecap="round" stroke-linejoin="round" stroke-width="2"
    d="M33.857 25.143V6.286H30.43v2.057M26.143 24.286v-5.143a.857.857 0 0 0-.857-.857h-3.429a.857.857 0 0 0-.857.857v5.143M21 12.929v-2.143c0-.592.493-1.072 1.102-1.072h2.939c.608 0 1.102.48 1.102 1.072v2.143c0 .591-.494 1.071-1.102 1.071h-2.939C21.493 14 21 13.52 21 12.93Z" />
</svg>