<svg width="42" height="28" viewBox="0 0 42 28" fill="none" xmlns="http://www.w3.org/2000/svg">
<path d="M9 13L24 1L39 13" stroke="#9BA8BA" stroke-width="2" stroke-linecap="round" stroke-linejoin="round"/>
<path d="M12 27V10.6" stroke="#9BA8BA" stroke-width="2" stroke-linecap="round" stroke-linejoin="round"/>
<path d="M12 25C12 23.8954 11.1046 23 10 23H9C9 20.7909 7.20914 19 5 19C2.79086 19 1 20.7909 1 23C1 25.2091 2.79086 27 5 27H41" stroke="#9BA8BA" stroke-width="2" stroke-linecap="round" stroke-linejoin="round"/>
<path d="M36 27V5H32V7.4" stroke="#9BA8BA" stroke-width="2" stroke-linecap="round" stroke-linejoin="round"/>
<path d="M27 26V20C27 19.4477 26.5523 19 26 19H22C21.4477 19 21 19.4477 21 20V26" stroke="#9BA8BA" stroke-width="2" stroke-linecap="round" stroke-linejoin="round"/>
<path d="M21 12.75V10.25C21 9.55964 21.5756 9 22.2857 9H25.7143C26.4244 9 27 9.55964 27 10.25V12.75C27 13.4404 26.4244 14 25.7143 14H22.2857C21.5756 14 21 13.4404 21 12.75Z" stroke="#9BA8BA" stroke-width="2" stroke-linecap="round" stroke-linejoin="round"/>
</svg>
