<svg width="32" height="32" viewBox="0 0 32 32" fill="none" xmlns="http://www.w3.org/2000/svg">
<path d="M30.202 6.30049C29.658 5.19524 28.8706 4.23883 27.9039 3.5089C26.9371 2.77898 25.8182 2.29614 24.638 2.09959C23.4578 1.90303 22.2497 1.99831 21.1116 2.37768C19.9735 2.75705 18.9376 3.40981 18.0881 4.28297L16 6.26171L13.9119 4.28297C13.0621 3.40997 12.026 2.75744 10.8877 2.37838C9.74944 1.99932 8.54113 1.90442 7.36092 2.10138C6.1807 2.29835 5.06186 2.78162 4.09528 3.51196C3.1287 4.24229 2.34162 5.19909 1.79798 6.30464C1.08834 7.76472 0.843229 9.42102 1.09795 11.035C1.35266 12.649 2.09407 14.1374 3.21538 15.2859L16 29L28.7846 15.2817C29.9059 14.1332 30.6473 12.6448 30.9021 11.0309C31.1568 9.41687 30.9117 7.76057 30.202 6.30049Z" stroke="#71717A" stroke-width="1.5" stroke-linecap="round" stroke-linejoin="round"/>
<path d="M7 13H12L14.7556 18.052C14.8588 18.241 15.1319 18.2362 15.2282 18.0435L19.2772 9.94567C19.3724 9.75517 19.6415 9.7477 19.7472 9.93262L21.5 13H26" stroke="#71717A" stroke-width="1.5" stroke-linecap="round" stroke-linejoin="round"/>
</svg>
