<svg xmlns="http://www.w3.org/2000/svg" width="24" height="24" fill="none" viewBox="0 0 24 24">
  <path stroke="#3F3F46" stroke-linecap="round" stroke-linejoin="round" stroke-width="1.5"
    d="M22.651 4.725a5.865 5.865 0 0 0-1.723-2.093 5.588 5.588 0 0 0-2.45-1.057 5.498 5.498 0 0 0-2.644.208 5.666 5.666 0 0 0-2.268 1.43L12 4.695l-1.566-1.484a5.666 5.666 0 0 0-2.268-1.428 5.498 5.498 0 0 0-2.645-.208 5.589 5.589 0 0 0-2.45 1.058 5.865 5.865 0 0 0-1.723 2.094 5.991 5.991 0 0 0-.525 3.548 5.873 5.873 0 0 0 1.589 3.188L12 21.75l9.588-10.289a5.873 5.873 0 0 0 1.588-3.188 5.991 5.991 0 0 0-.524-3.548Z" />
  <path stroke="#3F3F46" stroke-linecap="round" stroke-linejoin="round" stroke-width="1.5"
    d="M5.25 9.75H9l2.006 3.677a.267.267 0 0 0 .472-.008l2.924-5.848a.267.267 0 0 1 .47-.013l1.253 2.192H19.5" />
</svg>