<svg xmlns="http://www.w3.org/2000/svg" width="16" height="16" fill="none" viewBox="0 0 16 16">
  <path stroke="#3F3F46" stroke-linecap="round" stroke-linejoin="round" stroke-width="1.5"
    d="M14.628 3.911a3.519 3.519 0 0 0-1.073-1.24 3.568 3.568 0 0 0-3.17-.503 3.554 3.554 0 0 0-1.41.847L8 3.895l-.974-.88a3.554 3.554 0 0 0-1.412-.847 3.584 3.584 0 0 0-3.17.504c-.45.325-.818.75-1.072 1.241a3.4 3.4 0 0 0 .662 3.992L8 14l5.966-6.097c.523-.51.87-1.172.988-1.89a3.4 3.4 0 0 0-.326-2.102Z" />
  <path stroke="#3F3F46" stroke-linecap="round" stroke-linejoin="round"
    d="M4 6.667h2l1.218 2.437a.133.133 0 0 0 .237.003l2.1-3.9a.133.133 0 0 1 .232-.006l.88 1.466h2" />
</svg>