<svg xmlns="http://www.w3.org/2000/svg" width="32" height="32" fill="none" viewBox="0 0 32 32">
  <path stroke="#3F3F46" stroke-linecap="round" stroke-linejoin="round" stroke-width="2"
    d="M29.887 6.702a7.412 7.412 0 0 0-2.247-2.62 7.445 7.445 0 0 0-6.642-1.061 7.436 7.436 0 0 0-2.956 1.788L16 6.665 13.96 4.81a7.437 7.437 0 0 0-6.406-2.047A7.445 7.445 0 0 0 4.36 4.085a7.413 7.413 0 0 0-2.246 2.62A7.226 7.226 0 0 0 3.5 15.132L16 28l12.5-12.872a7.226 7.226 0 0 0 1.386-8.427Z" />
  <path stroke="#3F3F46" stroke-linecap="round" stroke-linejoin="round" stroke-width="2"
    d="M8 13.333h4l2.437 4.874c.097.193.371.198.474.007l4.2-7.801a.267.267 0 0 1 .464-.011l1.759 2.931h4" />
</svg>