<svg width="24" height="24" viewBox="0 0 24 24" fill="none" xmlns="http://www.w3.org/2000/svg">
<path d="M22.4148 5.02627C22.0159 4.2485 21.4385 3.57547 20.7295 3.06182C20.0206 2.54817 19.2 2.20839 18.3346 2.07008C17.4691 1.93176 16.5831 1.99881 15.7485 2.26577C14.9139 2.53274 14.1543 2.99209 13.5313 3.60653L12 4.99898L10.4687 3.60653C9.84553 2.9922 9.08571 2.53301 8.25098 2.26627C7.41626 1.99952 6.53016 1.93274 5.66467 2.07134C4.79918 2.20995 3.9787 2.55003 3.26987 3.06397C2.56104 3.57791 1.98385 4.25121 1.58519 5.02919C1.06478 6.05666 0.885035 7.2222 1.07183 8.35797C1.25862 9.49374 1.80232 10.5411 2.62462 11.3493L12 21L21.3754 11.3464C22.1977 10.5382 22.7414 9.49082 22.9282 8.35505C23.115 7.21928 22.9352 6.05373 22.4148 5.02627Z" stroke="#71717A" stroke-width="1.5" stroke-linecap="round" stroke-linejoin="round"/>
<path d="M6 10H9L10.8277 13.6554C10.9002 13.8003 11.1059 13.8034 11.1827 13.6608L14.3333 7.80958C14.4068 7.67301 14.6011 7.6685 14.6809 7.8015L16 10H19" stroke="#71717A" stroke-width="1.5" stroke-linecap="round" stroke-linejoin="round"/>
</svg>
