<svg xmlns="http://www.w3.org/2000/svg" width="32" height="32" fill="none" viewBox="0 0 32 32">
  <path stroke="#3F3F46" stroke-linecap="round" stroke-linejoin="round" stroke-width="2"
    d="M30.5 11.5 29 12l-1 2-2.144-7.15A4 4 0 0 0 22.024 4H9.977a4 4 0 0 0-3.832 2.85L4 14l-1-2-1.5-.5M2 25.957V28a2 2 0 0 0 4 0V26.06M30 25.957V28a2 2 0 0 1-4 0V26.06" />
  <path stroke="#3F3F46" stroke-linecap="round" stroke-linejoin="round" stroke-width="2"
    d="M3.667 14h24.667c.707 0 1.385.306 1.885.852S31 16.138 31 16.91v7.637c0 .385-.14.755-.39 1.028a1.28 1.28 0 0 1-.943.426H2.334a1.28 1.28 0 0 1-.943-.426 1.524 1.524 0 0 1-.39-1.029V16.91c0-.771.28-1.511.78-2.057A2.559 2.559 0 0 1 3.668 14Z" />
  <path stroke="#3F3F46" stroke-linecap="round" stroke-linejoin="round" stroke-width="2"
    d="M1 19h6.5L9 22M19 22h-6M31 19h-6.5L23 22" />
</svg>