<svg xmlns="http://www.w3.org/2000/svg" width="24" height="24" fill="none" viewBox="0 0 24 24">
  <path fill="#3F3F46"
    d="M.367 18.014 9.24 1.626c1.173-2.168 4.349-2.168 5.522 0l8.872 16.388c1.101 2.035-.407 4.486-2.762 4.486H3.13c-2.355 0-3.863-2.45-2.762-4.486Z" />
  <path fill="#fff" fill-rule="evenodd"
    d="M12 4.875c.621 0 1.125.504 1.125 1.125v7.5a1.125 1.125 0 0 1-2.25 0V6c0-.621.504-1.125 1.125-1.125Z"
    clip-rule="evenodd" />
  <path fill="#fff" d="M13.2 17.7a1.2 1.2 0 1 1-2.4 0 1.2 1.2 0 0 1 2.4 0Z" />
</svg>