<svg xmlns="http://www.w3.org/2000/svg" width="32" height="32" fill="none" viewBox="0 0 32 32">
  <path fill="#3F3F46"
    d="M.49 24.019 12.32 2.169c1.564-2.892 5.799-2.892 7.364 0l11.828 21.85C32.98 26.733 30.968 30 27.829 30H4.172c-3.14 0-5.15-3.267-3.682-5.981Z" />
  <path fill="#fff" fill-rule="evenodd"
    d="M16 6.5A1.5 1.5 0 0 1 17.5 8v10a1.5 1.5 0 0 1-3 0V8A1.5 1.5 0 0 1 16 6.5Z"
    clip-rule="evenodd" />
  <path fill="#fff" d="M17.6 23.6a1.6 1.6 0 1 1-3.2 0 1.6 1.6 0 0 1 3.2 0Z" />
</svg>