<svg xmlns="http://www.w3.org/2000/svg" width="32" height="32" fill="none" viewBox="0 0 32 32">
  <path stroke="#3F3F46" stroke-linecap="round" stroke-linejoin="round" stroke-width="2"
    d="M12 24.961a10.548 10.548 0 0 1 6.306-2.294h12.628M29.384 9.68a1.305 1.305 0 0 0 .59-2.047A13.049 13.049 0 0 0 6.739 15.72a1.306 1.306 0 0 0 1.733 1.238L29.384 9.68ZM18.928 13.318l3.739 9.348M1 29.666a7.348 7.348 0 0 0 6-2 6.063 6.063 0 0 0 9 0 6.062 6.062 0 0 0 9 0 7.347 7.347 0 0 0 5.977 2.003M15.499 3.464 14.642 1" />
</svg>