<svg width="24" height="24" viewBox="0 0 24 24" fill="none" xmlns="http://www.w3.org/2000/svg">
<path d="M8.99992 18.721C10.3469 17.6479 12.0073 17.0437 13.7289 17.0001H23.1912" stroke="#71717A" stroke-width="1.5" stroke-linecap="round" stroke-linejoin="round"/>
<path d="M22.0375 7.26015C22.1852 7.20853 22.3183 7.12228 22.4258 7.00862C22.5333 6.89496 22.612 6.75721 22.6552 6.60689C22.6985 6.45657 22.7051 6.29807 22.6746 6.14466C22.644 5.99125 22.5771 5.84741 22.4795 5.72516C21.2152 4.14558 19.4924 2.9967 17.5483 2.43665C15.6041 1.87661 13.5341 1.93293 11.6233 2.59788C9.71242 3.26283 8.05465 4.5037 6.87814 6.1497C5.70164 7.7957 5.06423 9.7659 5.05367 11.7891C5.05302 11.9456 5.08988 12.1 5.16118 12.2393C5.23248 12.3786 5.33613 12.4988 5.46346 12.5897C5.59078 12.6807 5.73806 12.7399 5.89295 12.7622C6.04784 12.7845 6.20582 12.7694 6.35366 12.7181L22.0375 7.26015Z" stroke="#71717A" stroke-width="1.5" stroke-linecap="round" stroke-linejoin="round"/>
<path d="M14.1962 9.98914L17.0001 17.0001" stroke="#71717A" stroke-width="1.5" stroke-linecap="round" stroke-linejoin="round"/>
<path d="M0.749993 22.25C1.56442 22.3508 2.39108 22.2685 3.16961 22.0089C3.94814 21.7494 4.65889 21.3193 5.24995 20.75C5.67627 21.2222 6.19694 21.5997 6.77829 21.8581C7.35964 22.1165 7.98874 22.25 8.62492 22.25C9.2611 22.25 9.8902 22.1165 10.4716 21.8581C11.0529 21.5997 11.5736 21.2222 11.9999 20.75C12.4262 21.2222 12.9469 21.5997 13.5282 21.8581C14.1096 22.1165 14.7387 22.25 15.3749 22.25C16.011 22.25 16.6401 22.1165 17.2215 21.8581C17.8028 21.5997 18.3235 21.2222 18.7498 20.75C19.3409 21.3193 20.0516 21.7494 20.8302 22.0089C21.5933 22.2633 22.4027 22.3475 23.2014 22.2558" stroke="#71717A" stroke-width="1.5" stroke-linecap="round" stroke-linejoin="round"/>
<path d="M11.623 2.59788L10.9804 0.750207" stroke="#71717A" stroke-width="1.5" stroke-linecap="round" stroke-linejoin="round"/>
</svg>
