<svg width="16" height="16" viewBox="0 0 16 16" fill="none" xmlns="http://www.w3.org/2000/svg"><path d="m12.445 2.827-8.42 4.255-1.306-.985-1.4.616a.733.733 0 0 0-.149 1.213l2.663 2.267a1.46 1.46 0 0 0 1.6.2l2.414-1.2v3.724a.724.724 0 0 0 1.046.658l1.254-.622a.734.734 0 0 0 .386-.486L11.78 7.24l2.294-1.138a1.83 1.83 0 1 0-1.629-3.276Z" stroke="#1B1B1F" stroke-linecap="round" stroke-linejoin="round"/><path d="M10.26 3.933 7.288 2.427a.733.733 0 0 0-.654 0l-1.233.61a.733.733 0 0 0-.115 1.238L7 5.58" stroke="#1B1B1F" stroke-linecap="round" stroke-linejoin="round"/></svg>