<svg width="24" height="24" viewBox="0 0 24 24" fill="none" xmlns="http://www.w3.org/2000/svg"><path d="m18.668 4.24-12.63 6.383L4.08 9.145l-2.1.925a1.1 1.1 0 0 0-.224 1.819l3.995 3.4a2.19 2.19 0 0 0 2.4.3l3.62-1.8v5.587a1.085 1.085 0 0 0 1.57.986l1.88-.933a1.1 1.1 0 0 0 .58-.729l1.87-7.838 3.441-1.707a2.744 2.744 0 1 0-2.443-4.915Z" stroke="#1B1B1F" stroke-width="1.5" stroke-linecap="round" stroke-linejoin="round"/><path d="m15.39 5.9-4.46-2.259a1.1 1.1 0 0 0-.981 0l-1.85.913a1.1 1.1 0 0 0-.172 1.859L10.5 8.368" stroke="#1B1B1F" stroke-width="1.5" stroke-linecap="round" stroke-linejoin="round"/></svg>