<svg width="24" height="24" viewBox="0 0 24 24" fill="none" xmlns="http://www.w3.org/2000/svg">
<path d="M7 3.5C7 2.67157 7.67157 2 8.5 2H15.5C16.3284 2 17 2.67157 17 3.5V20.5C17 21.3284 16.3284 22 15.5 22H8.5C7.67157 22 7 21.3284 7 20.5V3.5Z" stroke="#71717A" stroke-width="1.5" stroke-linecap="round" stroke-linejoin="round"/>
<path d="M20.0195 5H22C22.5523 5 23 5.44772 23 6V18C23 18.5523 22.5523 19 22 19H20.0195" stroke="#71717A" stroke-width="1.5" stroke-linecap="round" stroke-linejoin="round"/>
<path d="M3.97266 5H2C1.44772 5 1 5.44772 1 6V18C1 18.5523 1.44772 19 2 19H3.97266" stroke="#71717A" stroke-width="1.5" stroke-linecap="round" stroke-linejoin="round"/>
</svg>
