<svg xmlns="http://www.w3.org/2000/svg" width="32" height="32" fill="none" viewBox="0 0 32 32">
  <path stroke="#3F3F46" stroke-linecap="round" stroke-linejoin="round" stroke-width="2"
    d="M14.062 3.25a2.61 2.61 0 0 0 3.877 0L19.2 1.868a2.612 2.612 0 0 1 4.547 1.884l-.095 1.866a2.61 2.61 0 0 0 2.735 2.739l1.867-.095a2.612 2.612 0 0 1 1.88 4.547l-1.39 1.253a2.612 2.612 0 0 0 0 3.879l1.39 1.253a2.612 2.612 0 0 1-1.884 4.547l-1.867-.095a2.61 2.61 0 0 0-2.741 2.742l.094 1.866a2.612 2.612 0 0 1-4.536 1.88l-1.254-1.388a2.611 2.611 0 0 0-3.878 0l-1.26 1.388a2.612 2.612 0 0 1-4.541-1.877l.096-1.867a2.61 2.61 0 0 0-2.741-2.741l-1.867.095A2.61 2.61 0 0 1 1.867 19.2l1.388-1.253a2.613 2.613 0 0 0 0-3.879l-1.388-1.26a2.61 2.61 0 0 1 1.879-4.541l1.866.094a2.61 2.61 0 0 0 2.744-2.746l-.089-1.868a2.612 2.612 0 0 1 4.541-1.88l1.254 1.384Z" />
  <path stroke="#3F3F46" stroke-linecap="round" stroke-linejoin="round" stroke-width="2"
    d="M16 21.334a5.333 5.333 0 1 0 0-10.667 5.333 5.333 0 0 0 0 10.667Z" />
</svg>