<svg xmlns="http://www.w3.org/2000/svg" width="16" height="16" fill="none" viewBox="0 0 16 16">
  <path stroke="#3F3F46" stroke-linecap="round" stroke-linejoin="round"
    d="M7.03 1.625a1.305 1.305 0 0 0 1.94 0L9.6.933a1.306 1.306 0 0 1 2.273.942l-.047.934a1.307 1.307 0 0 0 1.367 1.369l.934-.047a1.306 1.306 0 0 1 .94 2.273l-.695.627a1.307 1.307 0 0 0 0 1.939l.695.627a1.305 1.305 0 0 1-.942 2.273l-.934-.047a1.305 1.305 0 0 0-1.37 1.37l.047.934a1.305 1.305 0 0 1-2.268.94l-.627-.694a1.306 1.306 0 0 0-1.94 0l-.63.694a1.307 1.307 0 0 1-2.27-.939l.048-.933a1.305 1.305 0 0 0-1.37-1.371l-.934.047A1.306 1.306 0 0 1 .933 9.6l.694-.627a1.307 1.307 0 0 0 0-1.939l-.694-.63a1.305 1.305 0 0 1 .94-2.27l.933.047a1.305 1.305 0 0 0 1.372-1.374l-.045-.934a1.306 1.306 0 0 1 2.271-.94l.627.692Z" />
  <path stroke="#3F3F46" stroke-linecap="round" stroke-linejoin="round"
    d="M8 10.667a2.667 2.667 0 1 0 0-5.333 2.667 2.667 0 0 0 0 5.333Z" />
</svg>