<svg xmlns="http://www.w3.org/2000/svg" width="16" height="16" fill="none" viewBox="0 0 16 16">
  <path fill="#3F3F46"
    d="m7.648 2 .393-.31a.502.502 0 0 0-.02-.024L7.648 2Zm7.202 9.134.409-.287a.444.444 0 0 0-.017-.022l-.392.31ZM2 14.834A.833.833 0 0 1 1.167 14h-1c0 1.012.82 1.833 1.833 1.833v-1ZM1.167 4.666a3.5 3.5 0 0 1 3.5-3.5v-1a4.5 4.5 0 0 0-4.5 4.5h1Zm11.5 10.166H2v1h10.667v-1ZM.167 4.667V14h1V4.666h-1Zm4.5-3.5a3.49 3.49 0 0 1 2.609 1.166l.745-.667a4.49 4.49 0 0 0-3.354-1.5v1Zm2.589 1.142 7.201 9.135.785-.62-7.2-9.134-.786.62Zm7.185 9.113c.97 1.38-.053 3.411-1.774 3.411v1c2.545 0 4.02-2.955 2.592-4.986l-.818.575Z" />
  <path fill="#3F3F46"
    d="M14.441 11.422a.5.5 0 0 0 .818-.575l-.818.575Zm-1.774 3.411a2.167 2.167 0 0 1-2.166-2.166h-1a3.167 3.167 0 0 0 3.166 3.166v-1Zm-2.166-2.166c0-1.197.97-2.167 2.166-2.167v-1A3.167 3.167 0 0 0 9.5 12.667h1Zm2.166-2.167c.733 0 1.381.363 1.774.922l.818-.575A3.163 3.163 0 0 0 12.667 9.5v1Z" />
  <path stroke="#3F3F46" stroke-linecap="round"
    d="M3.334 14a1.333 1.333 0 1 1-2.667 0 1.333 1.333 0 0 1 2.667 0Z" />
  <path fill="#3F3F46"
    d="M8.021 1.667a.5.5 0 0 0-.745.666l.745-.666Zm.146 3a3.5 3.5 0 0 1-3.5 3.5v1a4.5 4.5 0 0 0 4.5-4.5h-1Zm-3.5 3.5a3.5 3.5 0 0 1-3.5-3.5h-1a4.5 4.5 0 0 0 4.5 4.5v-1Zm2.609-5.834c.554.62.891 1.437.891 2.334h1a4.485 4.485 0 0 0-1.146-3l-.745.666Z" />
  <path stroke="#3F3F46" stroke-linecap="round" d="M6.667 4.667a2 2 0 1 1-4 0 2 2 0 0 1 4 0Z" />
</svg>