<svg xmlns="http://www.w3.org/2000/svg" width="32" height="32" fill="none" viewBox="0 0 32 32">
  <path fill="#3F3F46"
    d="m15.296 4 .785-.619a.996.996 0 0 0-.04-.048L15.296 4Zm14.403 18.27.818-.576a1.084 1.084 0 0 0-.033-.044l-.785.62Zm-25.7 7.397c-.92 0-1.666-.746-1.666-1.667h-2A3.667 3.667 0 0 0 4 31.667v-2ZM2.334 9.333a7 7 0 0 1 7-7v-2a9 9 0 0 0-9 9h2Zm23 20.334H4v2h21.333v-2Zm-25-20.334V28h2V9.334h-2Zm9-7c2.073 0 3.935.9 5.218 2.334l1.49-1.334a8.98 8.98 0 0 0-6.708-3v2Zm5.178 2.286 14.402 18.27 1.571-1.239L16.081 3.381l-1.57 1.238Zm14.37 18.225c1.942 2.762-.106 6.823-3.548 6.823v2c5.09 0 8.04-5.91 5.184-9.973l-1.636 1.15Z" />
  <path fill="#3F3F46"
    d="M28.88 22.844a1 1 0 1 0 1.637-1.15l-1.636 1.15Zm-3.547 6.823A4.333 4.333 0 0 1 21 25.334h-2a6.333 6.333 0 0 0 6.333 6.333v-2ZM21 25.334A4.333 4.333 0 0 1 25.333 21v-2A6.333 6.333 0 0 0 19 25.334h2ZM25.333 21c1.466 0 2.762.727 3.548 1.844l1.636-1.15A6.327 6.327 0 0 0 25.332 19v2Z" />
  <path stroke="#3F3F46" stroke-linecap="round" stroke-width="2"
    d="M6.666 28a2.667 2.667 0 1 1-5.333 0 2.667 2.667 0 0 1 5.333 0Z" />
  <path fill="#3F3F46"
    d="M16.041 3.333a1 1 0 0 0-1.49 1.334l1.49-1.334Zm.292 6a7 7 0 0 1-7 7v2a9 9 0 0 0 9-9h-2Zm-7 7a7 7 0 0 1-7-7h-2a9 9 0 0 0 9 9v-2Zm5.218-11.666a6.97 6.97 0 0 1 1.782 4.667h2a8.97 8.97 0 0 0-2.292-6l-1.49 1.333Z" />
  <path stroke="#3F3F46" stroke-linecap="round" stroke-width="2"
    d="M13.333 9.334a4 4 0 1 1-8 0 4 4 0 0 1 8 0Z" />
</svg>