<svg xmlns="http://www.w3.org/2000/svg" width="24" height="24" fill="none" viewBox="0 0 24 24">
  <path fill="#3F3F46"
    d="m11.354 2.775.589-.464a.722.722 0 0 0-.03-.036l-.56.5ZM22.29 16.65l.614-.432a.877.877 0 0 0-.025-.033l-.589.465ZM2.775 22.276c-.704 0-1.275-.57-1.275-1.275H0a2.775 2.775 0 0 0 2.775 2.775v-1.5ZM1.5 6.826A5.325 5.325 0 0 1 6.825 1.5V0A6.825 6.825 0 0 0 0 6.825h1.5Zm17.476 15.45h-16.2v1.5h16.2v-1.5ZM0 6.826V21h1.5V6.825H0ZM6.825 1.5a5.31 5.31 0 0 1 3.97 1.775l1.117-1A6.81 6.81 0 0 0 6.825 0v1.5Zm3.94 1.74 10.937 13.873 1.178-.929L11.943 2.311l-1.178.928Zm10.913 13.84c1.479 2.103-.08 5.196-2.702 5.196v1.5c3.858 0 6.094-4.48 3.929-7.559l-1.227.863Z" />
  <path fill="#3F3F46"
    d="M21.678 17.08a.75.75 0 1 0 1.227-.863l-1.227.863Zm-2.702 5.196a3.3 3.3 0 0 1-3.3-3.3h-1.5a4.8 4.8 0 0 0 4.8 4.8v-1.5Zm-3.3-3.3a3.3 3.3 0 0 1 3.3-3.3v-1.5a4.8 4.8 0 0 0-4.8 4.8h1.5Zm3.3-3.3c1.116 0 2.103.553 2.702 1.404l1.227-.863a4.795 4.795 0 0 0-3.929-2.041v1.5Z" />
  <path stroke="#3F3F46" stroke-linecap="round" stroke-width="1.5"
    d="M4.8 21a2.025 2.025 0 1 1-4.05 0 2.025 2.025 0 0 1 4.05 0Z" />
  <path fill="#3F3F46"
    d="M11.912 2.275a.75.75 0 1 0-1.117 1l1.117-1Zm.238 4.55a5.325 5.325 0 0 1-5.325 5.326v1.5a6.825 6.825 0 0 0 6.825-6.826h-1.5Zm-5.325 5.326A5.325 5.325 0 0 1 1.5 6.825H0a6.825 6.825 0 0 0 6.825 6.826v-1.5Zm3.97-8.876a5.303 5.303 0 0 1 1.355 3.55h1.5a6.803 6.803 0 0 0-1.738-4.55l-1.117 1Z" />
  <path stroke="#3F3F46" stroke-linecap="round" stroke-width="1.5"
    d="M9.863 6.825a3.038 3.038 0 1 1-6.075 0 3.038 3.038 0 0 1 6.075 0Z" />
</svg>