<svg width="42" height="28" viewBox="0 0 42 28" fill="none" xmlns="http://www.w3.org/2000/svg">
<path d="M32.5 18C36.6421 18 40 14.6421 40 10.5C40 6.35786 36.6421 3 32.5 3C28.3579 3 25 6.35786 25 10.5C25 14.6421 28.3579 18 32.5 18Z" stroke="#9BA8BA" stroke-width="2" stroke-linecap="round" stroke-linejoin="round"/>
<path d="M29 11C29 8.79086 30.7909 7 33 7" stroke="#9BA8BA" stroke-width="2" stroke-linecap="round" stroke-linejoin="round"/>
<path d="M25 10C21.091 10.2573 18 13.5095 18 17.4836C18 21.6257 21.3579 24.9836 25.5 24.9836C29.3731 24.9836 32.5605 22.0478 32.9582 18.2801" stroke="#9BA8BA" stroke-width="2" stroke-linecap="round" stroke-linejoin="round"/>
<path d="M15.0001 24H3C2.44772 24 2 23.5523 2 23L2 5C2 4.44772 2.44772 4 3 4L23.0001 4" stroke="#9BA8BA" stroke-width="2" stroke-linecap="round" stroke-linejoin="round"/>
<path d="M7.00009 20H6" stroke="#9BA8BA" stroke-width="2" stroke-linecap="round" stroke-linejoin="round"/>
<path d="M7.00009 8H6" stroke="#9BA8BA" stroke-width="2" stroke-linecap="round" stroke-linejoin="round"/>
<path d="M14 16.7862C13.665 16.9241 13.2994 17 12.9165 17C11.3058 17 10 15.6569 10 14C10 12.3431 11.3058 11 12.9165 11C13.2994 11 13.665 11.0759 14 11.2138" stroke="#9BA8BA" stroke-width="2" stroke-linecap="round" stroke-linejoin="round"/>
</svg>
