<svg xmlns="http://www.w3.org/2000/svg" width="42" height="28" fill="none" viewBox="0 0 42 28">
  <path stroke="#47474F" stroke-linecap="round" stroke-linejoin="round" stroke-width="2"
    d="M17.857 20.143h10.286M17.857 18a6.428 6.428 0 1 1-12.855 0 6.428 6.428 0 0 1 12.855 0ZM37.572 19.714a4.714 4.714 0 1 1-9.43 0 4.714 4.714 0 0 1 9.43 0ZM28.57 7.714V3h2.117" />
  <path stroke="#47474F" stroke-linecap="round" stroke-width="2"
    d="M8.428 12V5a2 2 0 0 1 2-2h8.987a2 2 0 0 1 1.898 1.368l2.115 6.346" />
  <path stroke="#47474F" stroke-linecap="round" stroke-width="2"
    d="m35.428 15.428-.696-3.482a1 1 0 0 0-.98-.803h-14.61l-1.285-3.429" />
  <path stroke="#47474F" stroke-linecap="round" stroke-linejoin="round" stroke-width="2"
    d="M26.428 10.714v-3h4.286v3" />
</svg>