<svg xmlns="http://www.w3.org/2000/svg" width="16" height="16" fill="none" viewBox="0 0 16 16">
  <path stroke="#3F3F46" stroke-linecap="round" stroke-linejoin="round"
    d="M11.75 6a.756.756 0 0 1 .75.9 4.6 4.6 0 0 1-8.985 0 .755.755 0 0 1 .751-.9h7.484ZM13 15.5 10.822 9.55M3 15.5 5.178 9.55M12.267 13.5H3.731M11.674 4.095l.108-.144A1.056 1.056 0 0 0 11.62 2.5a1.057 1.057 0 0 1-.161-1.451l.4-.533M7.765 4.095l.108-.144A1.056 1.056 0 0 0 7.711 2.5a1.057 1.057 0 0 1-.161-1.451l.4-.533M3.765 4.095l.108-.144A1.056 1.056 0 0 0 3.711 2.5a1.057 1.057 0 0 1-.161-1.451l.4-.534" />
</svg>