<svg width="32" height="32" viewBox="0 0 32 32" fill="none" xmlns="http://www.w3.org/2000/svg">
<path d="M23.5003 12C23.7244 11.9977 23.9463 12.0453 24.1498 12.1393C24.3533 12.2333 24.5334 12.3714 24.6769 12.5435C24.8205 12.7157 24.924 12.9176 24.9799 13.1347C25.0358 13.3517 25.0428 13.5785 25.0003 13.7986C24.5494 15.8458 23.413 17.6776 21.7791 18.9908C20.1452 20.304 18.1118 21.0198 16.0156 21.0198C13.9194 21.0198 11.8861 20.304 10.2522 18.9908C8.61827 17.6776 7.48182 15.8458 7.03095 13.7986C6.98788 13.5783 6.99453 13.351 7.05041 13.1336C7.10629 12.9161 7.20999 12.7138 7.35396 12.5415C7.49793 12.3691 7.67853 12.2311 7.88261 12.1374C8.08668 12.0438 8.30909 11.9968 8.53362 12H23.5003Z" stroke="#71717A" stroke-width="1.5" stroke-linecap="round" stroke-linejoin="round"/>
<path d="M26.0005 31L21.6445 19.1027" stroke="#71717A" stroke-width="1.5" stroke-linecap="round" stroke-linejoin="round"/>
<path d="M6 31L10.356 19.1027" stroke="#71717A" stroke-width="1.5" stroke-linecap="round" stroke-linejoin="round"/>
<path d="M24.5359 27H7.46387" stroke="#71717A" stroke-width="1.5" stroke-linecap="round" stroke-linejoin="round"/>
<path d="M8.83374 8.19065L9.04974 7.90265C9.37988 7.47029 9.53058 6.92727 9.47048 6.38661C9.41038 5.84594 9.1441 5.34928 8.72707 4.99998C8.30914 4.65143 8.04189 4.15501 7.98103 3.61422C7.92017 3.07344 8.0704 2.53004 8.4004 2.09731L9.21372 1.0177" stroke="#71717A" stroke-width="1.5" stroke-linecap="round" stroke-linejoin="round"/>
<path d="M16.3487 8.19065L16.5647 7.90265C16.895 7.47025 17.0457 6.92705 16.9854 6.38628C16.925 5.84551 16.6582 5.34891 16.2407 4.99998C15.8237 4.65068 15.5574 4.15402 15.4973 3.61335C15.4372 3.07269 15.5879 2.52968 15.9181 2.09732L16.7281 1.01678" stroke="#71717A" stroke-width="1.5" stroke-linecap="round" stroke-linejoin="round"/>
<path d="M23.3487 8.19069L23.5647 7.90269C23.895 7.47029 24.0457 6.92709 23.9854 6.38632C23.925 5.84555 23.6583 5.34894 23.2407 5.00002C22.8237 4.65072 22.5574 4.15405 22.4973 3.61339C22.4372 3.07273 22.5879 2.52971 22.9181 2.09735L23.7234 1.02307" stroke="#71717A" stroke-width="1.5" stroke-linecap="round" stroke-linejoin="round"/>
</svg>
