<svg xmlns="http://www.w3.org/2000/svg" width="32" height="32" fill="none" viewBox="0 0 32 32">
  <path stroke="#3F3F46" stroke-linecap="round" stroke-linejoin="round" stroke-width="2"
    d="M23.5 12A1.512 1.512 0 0 1 25 13.8a9.2 9.2 0 0 1-17.97 0A1.51 1.51 0 0 1 8.535 12H23.5ZM26.001 31l-4.356-11.898M6 31l4.357-11.898M24.536 27H7.464M23.35 8.19l.215-.287A2.112 2.112 0 0 0 23.241 5a2.113 2.113 0 0 1-.322-2.903l.799-1.066M15.531 8.19l.216-.287A2.112 2.112 0 0 0 15.423 5a2.113 2.113 0 0 1-.322-2.903l.798-1.065M7.531 8.19l.216-.288A2.112 2.112 0 0 0 7.423 5a2.113 2.113 0 0 1-.322-2.903l.8-1.067" />
</svg>