<svg width="24" height="24" viewBox="0 0 24 24" fill="none" xmlns="http://www.w3.org/2000/svg">
<path d="M17.6248 8.99991C17.7929 8.99819 17.9593 9.03388 18.1119 9.10438C18.2646 9.17489 18.3996 9.27845 18.5073 9.40756C18.615 9.53668 18.6926 9.68812 18.7345 9.85093C18.7765 10.0137 18.7817 10.1838 18.7498 10.3489C18.4116 11.8842 17.5593 13.2581 16.3339 14.243C15.1085 15.2278 13.5835 15.7647 12.0114 15.7647C10.4392 15.7647 8.91422 15.2278 7.68881 14.243C6.4634 13.2581 5.61107 11.8842 5.27292 10.3489C5.24062 10.1836 5.24561 10.0132 5.28752 9.85009C5.32943 9.68698 5.4072 9.53527 5.51518 9.40603C5.62315 9.27679 5.7586 9.17326 5.91166 9.10301C6.06471 9.03275 6.23152 8.99753 6.39991 8.99991H17.6248Z" stroke="#71717A" stroke-width="1.5" stroke-linecap="round" stroke-linejoin="round"/>
<path d="M19.5002 23.2498L16.2333 14.3269" stroke="#71717A" stroke-width="1.5" stroke-linecap="round" stroke-linejoin="round"/>
<path d="M4.49996 23.2498L7.76693 14.3269" stroke="#71717A" stroke-width="1.5" stroke-linecap="round" stroke-linejoin="round"/>
<path d="M18.4015 20.2498H5.59761" stroke="#71717A" stroke-width="1.5" stroke-linecap="round" stroke-linejoin="round"/>
<path d="M17.5114 6.14293L17.6734 5.92693C17.9211 5.60264 18.0341 5.19524 17.9889 4.78967C17.9436 4.3841 17.7435 4.01165 17.4304 3.74995C17.1176 3.48798 16.9179 3.11549 16.8728 2.70999C16.8278 2.3045 16.9408 1.89724 17.1884 1.57297L17.7877 0.773522" stroke="#71717A" stroke-width="1.5" stroke-linecap="round" stroke-linejoin="round"/>
<path d="M11.6482 6.14295L11.8102 5.92695C12.0579 5.60266 12.1709 5.19526 12.1256 4.78969C12.0804 4.38412 11.8803 4.01166 11.5672 3.74997C11.2544 3.488 11.0547 3.1155 11.0096 2.71001C10.9645 2.30452 11.0776 1.89726 11.3252 1.57299L11.924 0.774163" stroke="#71717A" stroke-width="1.5" stroke-linecap="round" stroke-linejoin="round"/>
<path d="M5.64821 6.14293L5.81021 5.92693C6.05794 5.60264 6.17095 5.19524 6.12568 4.78967C6.08041 4.3841 5.88035 4.01164 5.56721 3.74995C5.25444 3.48798 5.05474 3.11548 5.00966 2.70999C4.96459 2.3045 5.07761 1.89724 5.32522 1.57297L5.9255 0.772271" stroke="#71717A" stroke-width="1.5" stroke-linecap="round" stroke-linejoin="round"/>
</svg>
