<svg xmlns="http://www.w3.org/2000/svg" width="16" height="16" fill="none" viewBox="0 0 16 16">
  <path stroke="#3F3F46" stroke-linecap="round" stroke-linejoin="round"
    d="M6.051 12.461 3.897 14v-3.077H1.743c-.285 0-.56-.108-.761-.3a1.001 1.001 0 0 1-.315-.726V1.692c0-.272.113-.533.315-.725.202-.192.476-.3.761-.3h12.513c.286 0 .56.108.762.3.202.192.315.453.315.725v3.045" />
  <path stroke="#3F3F46" stroke-linecap="round" stroke-linejoin="round"
    d="M3.995 7.133c.63.334 1.306.575 2.005.716M5.333 3.333v1M10.666 3.333v1M15.333 12.889a.667.667 0 0 1-.667.666h-1v1.778l-2.5-1.778H9.333a.667.667 0 0 1-.667-.666V9.333c0-.368.299-.667.667-.667h5.333c.369 0 .667.299.667.667v3.556Z" />
</svg>