<svg xmlns="http://www.w3.org/2000/svg" width="32" height="32" fill="none" viewBox="0 0 32 32">
  <path stroke="#3F3F46" stroke-linecap="round" stroke-linejoin="round" stroke-width="2"
    d="M12.103 24.923 7.795 28v-6.154H3.487a2.21 2.21 0 0 1-1.523-.601 2.003 2.003 0 0 1-.63-1.45V3.384c0-.545.226-1.067.63-1.451a2.21 2.21 0 0 1 1.523-.601h25.026c.571 0 1.12.216 1.523.6.404.385.63.907.63 1.451V9.5" />
  <path stroke="#3F3F46" stroke-linecap="round" stroke-linejoin="round" stroke-width="2"
    d="M7.991 14.267c1.261.667 2.611 1.15 4.01 1.432M10.667 6.667v2M21.334 6.667v2M30.667 25.777c0 .737-.597 1.334-1.334 1.334h-2v3.555l-5-3.555h-3.666a1.333 1.333 0 0 1-1.334-1.334v-7.11c0-.737.597-1.334 1.334-1.334h10.666c.737 0 1.334.597 1.334 1.333v7.111Z" />
</svg>