<svg xmlns="http://www.w3.org/2000/svg" width="32" height="32" fill="none" viewBox="0 0 32 32">
  <path stroke="#3F3F46" stroke-linecap="round" stroke-linejoin="round" stroke-width="2"
    d="M29.667 3.5H2.333C1.597 3.5 1 4.097 1 4.834v17.333c0 .736.597 1.333 1.333 1.333h27.334c.736 0 1.333-.597 1.333-1.333V4.834c0-.737-.597-1.334-1.333-1.334ZM10 28.5h12M16 23.5v5" />
  <path stroke="#3F3F46" stroke-linecap="round" stroke-linejoin="round" stroke-width="2"
    d="M29.667 3.5H2.333C1.597 3.5 1 4.097 1 4.834v17.333c0 .736.597 1.333 1.333 1.333h27.334c.736 0 1.333-.597 1.333-1.333V4.834c0-.737-.597-1.334-1.333-1.334ZM10 28.5h12M16 23.5v5" />
</svg>