<svg xmlns="http://www.w3.org/2000/svg" viewBox="0 0 42 28" width="42" height="28" fill="none"><path fill="#000" fill-rule="evenodd" d="M15.972 25h7.282a5.766 5.766 0 0 0 4.247-1.872l4.75-5.105c2.127-2.331 2.124-5.792.005-8.038l-4.769-5.173A5.784 5.784 0 0 0 23.297 3H16C13.243 3 11 5.258 11 8.034v11.96c0 2.76 2.231 5.005 4.972 5.005Zm4.961-7c-2.191 0-3.974-1.795-3.974-4 0-2.206 1.783-4 3.974-4 2.191 0 3.974 1.794 3.974 4 0 2.205-1.783 4-3.974 4Zm0-6a1.995 1.995 0 0 0-1.986 2c0 1.103.89 2 1.986 2a1.995 1.995 0 0 0 1.987-2c0-1.104-.89-2-1.987-2Z" clip-rule="evenodd"/></svg>