<svg xmlns="http://www.w3.org/2000/svg" width="24" height="24" fill="none" viewBox="0 0 24 24">
  <path stroke="#3F3F46" stroke-linecap="round" stroke-linejoin="round" stroke-width="1.5"
    d="m21.371 17.02-4.992 4.883c-.279.272-.61.488-.974.635a3.059 3.059 0 0 1-1.148.223H4.75c-.796 0-1.559-.31-2.121-.86a2.9 2.9 0 0 1-.879-2.073V3.694a2.9 2.9 0 0 1 .879-2.074A3.035 3.035 0 0 1 4.75.761h14.5c.796 0 1.559.309 2.121.86a2.9 2.9 0 0 1 .879 2.073v11.253c0 .778-.316 1.524-.879 2.073Z" />
  <path stroke="#3F3F46" stroke-linecap="round" stroke-linejoin="round" stroke-width="1.5"
    d="M15 22v-3a3 3 0 0 1 3-3h3.86M6 19h4M6 14h8M6 1.001v7.75l3-2.25 3 2.249V1" />
</svg>