<svg xmlns="http://www.w3.org/2000/svg" width="32" height="32" fill="none" viewBox="0 0 32 32">
  <path stroke="#3F3F46" stroke-linecap="round" stroke-linejoin="round" stroke-width="2"
    d="m28.495 22.448-6.656 6.435a4.012 4.012 0 0 1-1.298.838 4.118 4.118 0 0 1-1.532.294H6.334a4.07 4.07 0 0 1-2.829-1.133 3.802 3.802 0 0 1-1.171-2.734V4.881c0-1.025.42-2.009 1.171-2.734a4.071 4.071 0 0 1 2.829-1.132h19.333c1.06 0 2.078.407 2.828 1.132a3.803 3.803 0 0 1 1.172 2.734v14.833a3.802 3.802 0 0 1-1.172 2.734Z" />
  <path stroke="#3F3F46" stroke-linecap="round" stroke-linejoin="round" stroke-width="2"
    d="M20 29.667v-4.334a4 4 0 0 1 4-4h5.146M8 25.333h5.333M8 18.666h10.667M8 1.335v10.333l4-3 4 2.999V1.333" />
</svg>