<svg width="16" height="16" fill="none" xmlns="http://www.w3.org/2000/svg"><g clip-path="url(#a)" stroke="#47474F" stroke-width="1.5" stroke-linecap="round" stroke-linejoin="round"><path d="M12.691 14.667a2.222 2.222 0 1 0 0-4.444 2.222 2.222 0 0 0 0 4.444ZM5.449 14.667a2.222 2.222 0 1 0 0-4.444 2.222 2.222 0 0 0 0 4.444ZM10.333 12.5H7.666"/><path d="M3.174 12.691H.84l.988-2.469V8H15.16v1.688a.247.247 0 0 1-.012.078l-.482 1.444M6.025 8V1.333H1.086l.741 2.716V8M6.5 4h2.216l.766.955h4.938c.41 0 .74.331.74.74V8M13.68 3.308l-.988-.987H6.025"/></g><defs><clipPath id="a"><path fill="#fff" d="M0 0h16v16H0z"/></clipPath></defs></svg>