<svg width="24" height="24" fill="none" xmlns="http://www.w3.org/2000/svg"><path d="M19.037 22a3.334 3.334 0 1 0 0-6.667 3.334 3.334 0 0 0 0 6.667ZM8.173 22a3.333 3.333 0 1 0 0-6.667 3.333 3.333 0 0 0 0 6.667ZM15.5 18.75h-4" stroke="#47474F" stroke-width="1.5" stroke-linecap="round" stroke-linejoin="round"/><path d="M4.761 19.037H1.26l1.481-3.704V12h20v2.533a.37.37 0 0 1-.019.117L22 16.815M9.037 12V2H1.63L2.74 6.074V12M9.037 5.95h4.074l1.111 1.482h7.408c.613 0 1.11.498 1.11 1.111V12" stroke="#47474F" stroke-width="1.5" stroke-linecap="round" stroke-linejoin="round"/><path d="M6.075 2v5.556c0 .818-.664 1.481-1.482 1.481H2.741M20.519 4.963 19.037 3.48h-10M12.741 10.889V12M15.704 10.889V12M18.667 10.889V12" stroke="#47474F" stroke-width="1.5" stroke-linecap="round" stroke-linejoin="round"/></svg>