<svg xmlns="http://www.w3.org/2000/svg" width="42" height="28" fill="none" viewBox="0 0 42 28">
  <path stroke="#9BA8BA" stroke-linecap="round" stroke-linejoin="round" stroke-width="2"
    d="M33.857 9.16v2.054M38.143 20.25c0 2.722-2.303 4.929-5.143 4.929s-5.143-2.207-5.143-4.929c0-2.722 2.303-4.928 5.143-4.928s5.143 2.206 5.143 4.928ZM14.143 20.25c0 2.722-2.303 4.929-5.143 4.929s-5.143-2.207-5.143-4.929c0-2.722 2.302-4.928 5.143-4.928 2.84 0 5.143 2.206 5.143 4.928ZM14.143 12.036h6l1.24-2.378c.29-.556.884-.908 1.534-.908h8.369" />
  <path stroke="#9BA8BA" stroke-linecap="round" stroke-linejoin="round" stroke-width="2"
    d="M7.286 9.571H12l2.143 2.465 3.428 4.107v4.107h5.143l3.429-6.571 5.143-2.054V8.75M17.572 16.143l-3.858 1.643M31.286 8.75l-6-4.107M30.429 15.732l-1.715-2.875" />
</svg>