<svg xmlns="http://www.w3.org/2000/svg" width="32" height="32" fill="none" viewBox="0 0 32 32">
  <path stroke="#3F3F46" stroke-linecap="round" stroke-linejoin="round" stroke-width="2"
    d="M1.391 10.628 14.915 1.66a1.963 1.963 0 0 1 2.17 0l13.523 8.968M11.666 24.503a4.983 4.983 0 0 0 1.098-2.851c0-1.78-1.098-3.561-1.098-5.344a4.967 4.967 0 0 1 1.079-2.826M18.666 24.503a4.983 4.983 0 0 0 1.098-2.851c0-1.78-1.098-3.561-1.098-5.344a4.967 4.967 0 0 1 1.072-2.817" />
  <path fill="#3F3F46"
    d="M4.667 30.667h-1a1 1 0 0 0 1 1v-1Zm22.666 0v1a1 1 0 0 0 1-1h-1Zm1-22a1 1 0 1 0-2 0h2Zm-24.666 0v22h2v-22h-2Zm1 23h22.666v-2H4.667v2Zm23.666-1v-22h-2v22h2Z" />
</svg>