<svg xmlns="http://www.w3.org/2000/svg" width="16" height="16" fill="none" viewBox="0 0 16 16">
  <path stroke="#3F3F46" stroke-linecap="round" stroke-linejoin="round"
    d="M.695 5.314 7.457.83a.982.982 0 0 1 1.085 0l6.762 4.484M5.833 12.251c.328-.406.52-.904.549-1.425 0-.89-.549-1.78-.549-2.672.028-.516.217-1.01.54-1.413M9.333 12.251c.328-.406.52-.904.549-1.425 0-.89-.549-1.78-.549-2.672a2.483 2.483 0 0 1 .536-1.408" />
  <path fill="#3F3F46"
    d="M2.333 15.334h-.5a.5.5 0 0 0 .5.5v-.5Zm11.333 0v.5a.5.5 0 0 0 .5-.5h-.5Zm.5-11a.5.5 0 1 0-1 0h1Zm-12.333 0v11h1v-11h-1Zm.5 11.5h11.333v-1H2.333v1Zm11.833-.5v-11h-1v11h1Z" />
</svg>