<svg width="32" height="32" viewBox="0 0 32 32" fill="none" xmlns="http://www.w3.org/2000/svg">
<path d="M1.36719 10.644L14.915 1.65993C15.2362 1.44696 15.6136 1.33331 15.9997 1.33331C16.3857 1.33331 16.7631 1.44696 17.0844 1.65993L30.6322 10.644" stroke="#71717A" stroke-width="1.5" stroke-linecap="round" stroke-linejoin="round"/>
<path d="M11.667 24.5027C12.3222 23.6908 12.706 22.6937 12.7643 21.652C12.7643 19.872 11.667 18.0907 11.667 16.308C11.7235 15.2846 12.0952 14.3043 12.7305 13.501" stroke="#71717A" stroke-width="1.5" stroke-linecap="round" stroke-linejoin="round"/>
<path d="M18.667 24.5027C19.3222 23.6908 19.706 22.6937 19.7643 21.652C19.7643 19.872 18.667 18.0907 18.667 16.308C18.7234 15.2872 19.0933 14.3092 19.7256 13.5071" stroke="#71717A" stroke-width="1.5" stroke-linecap="round" stroke-linejoin="round"/>
<path d="M4.66699 30.6667H3.91699C3.91699 31.0809 4.25278 31.4167 4.66699 31.4167V30.6667ZM27.3337 30.6667V31.4167C27.7479 31.4167 28.0837 31.0809 28.0837 30.6667H27.3337ZM28.0837 8.66669C28.0837 8.25247 27.7479 7.91669 27.3337 7.91669C26.9194 7.91669 26.5837 8.25247 26.5837 8.66669H28.0837ZM3.91699 8.66669V30.6667H5.41699V8.66669H3.91699ZM4.66699 31.4167H27.3337V29.9167H4.66699V31.4167ZM28.0837 30.6667V8.66669H26.5837V30.6667H28.0837Z" fill="#71717A"/>
</svg>
