<svg xmlns="http://www.w3.org/2000/svg" viewBox="0 0 32 32" width="32" height="32" fill="none"><path stroke="#71717A" stroke-linecap="round" stroke-linejoin="round" stroke-width="2" d="M3 5.23v10.152A15.876 15.876 0 0 0 13.178 30.2l1.388.533a4 4 0 0 0 2.871 0l1.389-.533A15.876 15.876 0 0 0 29 15.382V5.23a1.982 1.982 0 0 0-1.157-1.816A28.933 28.933 0 0 0 16 1 28.933 28.933 0 0 0 4.158 3.414 1.983 1.983 0 0 0 3 5.23Z"/><path stroke="#71717A" stroke-linecap="round" stroke-linejoin="round" stroke-width="2" d="M20 13h-8a2 2 0 0 0-2 2v6a2 2 0 0 0 2 2h8a2 2 0 0 0 2-2v-6a2 2 0 0 0-2-2ZM14.5 18h3M12 13v-2a4 4 0 1 1 8 0v2"/></svg>