<svg width="24" height="24" fill="none" xmlns="http://www.w3.org/2000/svg"><path d="M14 12.5h5.2a2 2 0 0 0 1.828-1.188l1.16-2.61A.5.5 0 0 0 21.73 8H2.269a.5.5 0 0 0-.457.703l1.424 3.203a1 1 0 0 0 .914.594H5" stroke="#47474F" stroke-width="1.5" stroke-linecap="round" stroke-linejoin="round"/><path d="M13.288 4 10.5 10.5m0 0 .3 3.25-.464 1.306a1 1 0 0 1-1.278.607l-.86-.307a1 1 0 0 1-.586-1.33l.538-1.276 2.35-2.25ZM22.5 19.96a4.946 4.946 0 0 1-2.258-.235A5.11 5.11 0 0 1 18.3 18.5a4.259 4.259 0 0 1-1.427 1.077 4.1 4.1 0 0 1-3.446 0A4.259 4.259 0 0 1 12 18.5a4.259 4.259 0 0 1-1.427 1.077 4.1 4.1 0 0 1-3.446 0A4.258 4.258 0 0 1 5.7 18.5a5.11 5.11 0 0 1-1.942 1.225 4.945 4.945 0 0 1-2.258.234" stroke="#47474F" stroke-width="1.5" stroke-linecap="round" stroke-linejoin="round"/></svg>