<svg xmlns="http://www.w3.org/2000/svg" width="18" height="16" fill="none" viewBox="0 0 18 16">
  <path stroke="#3F3F46" stroke-width="1.5"
    d="M8.98 14.667c.404 0 .632-.353 1.283-1.043.813-.864 1.598-1.668 2.168-2.272 1.682-1.784 2.343-2.461 2.812-2.99 1.247-1.403 1.41-3.354.563-4.834-1.066-1.867-2.656-2.195-3.511-2.195-.856 0-1.467.328-2.547 1.172l-.749.7-.728-.7C7.099 1.503 6.25 1.334 5.706 1.334c-.454 0-2.35 0-3.572 2.194-.892 1.6-.426 3.573.71 4.834.203.226 1.042 1.105 2.496 2.686.586.637 1.415 1.513 2.025 2.178.346.376 1.21 1.44 1.614 1.44Z"
    clip-rule="evenodd" />
</svg>