<svg xmlns="http://www.w3.org/2000/svg" width="32" height="32" fill="none" viewBox="0 0 32 32">
  <rect width="29.333" height="25.333" x="1.333" y="5.333" stroke="#3F3F46" stroke-linecap="round"
    stroke-linejoin="round" stroke-width="2" rx="2.667" />
  <path stroke="#3F3F46" stroke-linecap="round" stroke-linejoin="round" stroke-width="2"
    d="M30.666 13.334H1.333M25.333 18.667H6.667M10.666 18.667v4a2.667 2.667 0 0 0 2.667 2.666h17.334M28 5.333V2.667c0-.737-.597-1.333-1.334-1.333H24c-.736 0-1.334.596-1.334 1.333v2.667M18.666 5.333V2.667c0-.737-.597-1.333-1.333-1.333h-2.667c-.736 0-1.333.596-1.333 1.333v2.667M9.333 5.333V2.667c0-.737-.597-1.333-1.333-1.333H5.333C4.596 1.333 4 1.93 4 2.667v2.667" />
</svg>