<svg xmlns="http://www.w3.org/2000/svg" width="16" height="16" fill="none" viewBox="0 0 16 16">
  <rect width="14.667" height="12.667" x=".667" y="2.667" stroke="#3F3F46" stroke-linecap="round"
    stroke-linejoin="round" rx="1.333" />
  <path stroke="#3F3F46" stroke-linecap="round" stroke-linejoin="round"
    d="M15.334 6.667H.667M12.667 9.334H3.333M5.333 9.334v2c0 .736.597 1.333 1.334 1.333h8.666M14 2.667V1.333a.667.667 0 0 0-.666-.666H12a.667.667 0 0 0-.666.666v1.334M9.334 2.667V1.333a.667.667 0 0 0-.667-.666H7.334a.667.667 0 0 0-.667.666v1.334M4.667 2.667V1.333A.667.667 0 0 0 4 .667H2.667A.667.667 0 0 0 2 1.333v1.334" />
</svg>