<svg xmlns="http://www.w3.org/2000/svg" width="24" height="24" fill="none" viewBox="0 0 24 24">
  <rect width="22" height="19" x="1" y="4" stroke="#3F3F46" stroke-linecap="round"
    stroke-linejoin="round" stroke-width="1.5" rx="2.667" />
  <path stroke="#3F3F46" stroke-linecap="round" stroke-linejoin="round" stroke-width="1.5"
    d="M23 10H1M19 14H5M8 14v2.333A2.667 2.667 0 0 0 10.667 19H23M21 4V2.333C21 1.597 20.403 1 19.667 1h-1.334C17.597 1 17 1.597 17 2.333V4M14 4V2.333C14 1.597 13.403 1 12.667 1h-1.334C10.597 1 10 1.597 10 2.333V4M7 4V2.333C7 1.597 6.403 1 5.667 1H4.333C3.597 1 3 1.597 3 2.333V4" />
</svg>