<svg xmlns="http://www.w3.org/2000/svg" width="32" height="32" fill="none" viewBox="0 0 32 32">
  <path stroke="#47474F" stroke-linecap="round" stroke-linejoin="round" stroke-width="2"
    d="M1.6 16.07H4.46c.366 0 .724-.023 1.029-.064.305-.042.542-.101.683-.17l3.215-1.555c.073-.035.197-.066.356-.086a3.98 3.98 0 0 1 .53-.03c.189.002.37.015.52.038.15.023.264.055.325.091l5.852 3.742c.061.037.174.069.325.091.15.024.332.037.52.038a3.98 3.98 0 0 0 .53-.03c.159-.02.283-.05.356-.086l3.209-1.745c.14-.07.378-.129.683-.17a7.775 7.775 0 0 1 1.029-.064h6.25M24.275 10l6.125 6.165-6.125 6.165" />
</svg>