<svg xmlns="http://www.w3.org/2000/svg" width="16" height="16" fill="none" viewBox="0 0 16 16">
  <path stroke="#47474F" stroke-linecap="round" stroke-linejoin="round" stroke-width="1.5"
    d="M.8 8.035h1.43c.184 0 .363-.011.515-.032.152-.021.271-.05.342-.085l1.607-.777a.636.636 0 0 1 .178-.044 1.989 1.989 0 0 1 .525.004.493.493 0 0 1 .162.046l2.927 1.871c.03.018.087.034.162.046a1.99 1.99 0 0 0 .525.004.636.636 0 0 0 .178-.043l1.604-.873c.07-.035.19-.064.342-.085.152-.021.331-.032.514-.032h3.126M12.137 5 15.2 8.083l-3.063 3.082" />
</svg>