<svg xmlns="http://www.w3.org/2000/svg" width="24" height="24" fill="none" viewBox="0 0 24 24">
  <path stroke="#47474F" stroke-linecap="round" stroke-linejoin="round" stroke-width="1.5"
    d="M1.2 12.052h2.146c.274 0 .543-.016.771-.048.229-.031.407-.076.513-.128l2.41-1.165a.954.954 0 0 1 .268-.065 2.998 2.998 0 0 1 .788.006.74.74 0 0 1 .243.069l4.39 2.806c.045.027.13.051.243.069a2.982 2.982 0 0 0 .788.006.953.953 0 0 0 .267-.065l2.406-1.309c.106-.052.284-.096.512-.128a5.84 5.84 0 0 1 .772-.048h4.688M18.206 7.5l4.594 4.624-4.594 4.624" />
</svg>