<svg width="24" height="24" fill="none" xmlns="http://www.w3.org/2000/svg"><g clip-path="url(#a)"><path d="m10.515 10.516 6.984 6.984" stroke="#47474F" stroke-width="1.5" stroke-linecap="round" stroke-linejoin="round"/><path fill-rule="evenodd" clip-rule="evenodd" d="M3.09 11.577a.75.75 0 0 1 0-1.06l7.425-7.426a.75.75 0 0 1 1.061 0l4.596 4.597a.75.75 0 0 1 0 1.06l-1.59 1.591a.75.75 0 0 1-.448.215l-2.92.325-.336.335-.324 2.92a.75.75 0 0 1-.215.448l-1.591 1.59a.75.75 0 0 1-1.06 0L3.09 11.578Zm1.592-.53 3.535 3.535.875-.875.325-2.92a.75.75 0 0 1 .215-.448l.707-.707a.75.75 0 0 1 .447-.215l2.92-.324.875-.875-3.535-3.536-6.364 6.364Z" fill="#47474F"/><path d="M1.5 8.925 8.925 1.5" stroke="#47474F" stroke-width="1.5" stroke-linecap="round" stroke-linejoin="round"/><circle cx="19.56" cy="19.56" r="2.744" transform="rotate(-45 19.56 19.56)" stroke="#47474F" stroke-width="1.5"/></g><defs><clipPath id="a"><path fill="#fff" d="M0 0h24v24H0z"/></clipPath></defs></svg>