<svg width="16" height="16" fill="none" xmlns="http://www.w3.org/2000/svg"><g clip-path="url(#a)"><path d="m7.01 7.01 4.656 4.657" stroke="#47474F" stroke-width="1.5" stroke-linecap="round" stroke-linejoin="round"/><path fill-rule="evenodd" clip-rule="evenodd" d="M1.799 7.5a.75.75 0 0 1 .22-.53l4.95-4.95a.75.75 0 0 1 1.06 0l2.93 2.928a.75.75 0 0 1 0 1.061L9.897 7.07a.75.75 0 0 1-.448.216l-1.86.206-.1.1-.206 1.86a.75.75 0 0 1-.215.447l-1.06 1.06a.75.75 0 0 1-1.061 0l-2.93-2.927a.75.75 0 0 1-.22-.53Zm1.81 0 1.87 1.868.343-.344.207-1.86a.75.75 0 0 1 .215-.448l.472-.471a.75.75 0 0 1 .447-.215l1.86-.207.344-.344L7.5 3.61l-3.89 3.89Z" fill="#47474F"/><path d="M1 5.95 5.95 1" stroke="#47474F" stroke-width="1.5" stroke-linecap="round" stroke-linejoin="round"/><circle cx="13.04" cy="13.04" r="1.829" transform="rotate(-45 13.04 13.04)" stroke="#47474F" stroke-width="1.5"/></g><defs><clipPath id="a"><path fill="#fff" d="M0 0h16v16H0z"/></clipPath></defs></svg>