<svg width="24" height="24" viewBox="0 0 24 24" fill="none" xmlns="http://www.w3.org/2000/svg">
<path d="M1.5 4.5H22.5" stroke="#71717A" stroke-width="1.5" stroke-linecap="round" stroke-linejoin="round"/>
<path d="M8.25 4.5V3C8.25 2.60218 8.40804 2.22064 8.68934 1.93934C8.97064 1.65804 9.35218 1.5 9.75 1.5H14.25C14.6478 1.5 15.0294 1.65804 15.3107 1.93934C15.592 2.22064 15.75 2.60218 15.75 3V4.5" stroke="#71717A" stroke-width="1.5" stroke-linecap="round" stroke-linejoin="round"/>
<path d="M9.75 17.25V9.75" stroke="#71717A" stroke-width="1.5" stroke-linecap="round" stroke-linejoin="round"/>
<path d="M14.25 17.25V9.75" stroke="#71717A" stroke-width="1.5" stroke-linecap="round" stroke-linejoin="round"/>
<path d="M3.75 4.5L5.136 21.124C5.16711 21.4991 5.33811 21.8488 5.61504 22.1037C5.89198 22.3586 6.25462 22.5 6.631 22.5H17.37C17.7464 22.5 18.109 22.3586 18.386 22.1037C18.6629 21.8488 18.8339 21.4991 18.865 21.124L20.25 4.5" stroke="#71717A" stroke-width="1.5" stroke-linecap="round" stroke-linejoin="round"/>
</svg>
