<svg xmlns="http://www.w3.org/2000/svg" width="32" height="32" fill="none" viewBox="0 0 32 32">
  <path stroke="#3F3F46" stroke-linecap="round" stroke-linejoin="round" stroke-width="2"
    d="M16 14a4 4 0 1 0 0-8 4 4 0 0 0 0 8Z" />
  <path stroke="#3F3F46" stroke-linecap="round" stroke-linejoin="round" stroke-width="2"
    d="M16 1a9 9 0 0 1 9 9c0 4.335-6.842 14.036-8.594 16.45a.502.502 0 0 1-.81 0C13.842 24.035 7 14.334 7 10a9 9 0 0 1 9-9v0Z" />
  <path stroke="#3F3F46" stroke-linecap="round" stroke-linejoin="round" stroke-width="2"
    d="M24.176 23.753C27.704 24.478 30 25.663 30 27c0 2.21-6.267 4-14 4-7.734 0-14-1.79-14-4 0-1.337 2.295-2.52 5.817-3.247" />
</svg>