<svg xmlns="http://www.w3.org/2000/svg" width="24" height="24" fill="none" viewBox="0 0 24 24">
  <path stroke="#3F3F46" stroke-linecap="round" stroke-linejoin="round" stroke-width="1.5"
    d="M12 10.5a3 3 0 1 0 0-6 3 3 0 0 0 0 6Z" />
  <path stroke="#3F3F46" stroke-linecap="round" stroke-linejoin="round" stroke-width="1.5"
    d="M12 .75a6.75 6.75 0 0 1 6.75 6.75c0 3.251-5.132 10.527-6.446 12.337a.377.377 0 0 1-.608 0C10.382 18.027 5.25 10.751 5.25 7.5A6.75 6.75 0 0 1 12 .75v0Z" />
  <path stroke="#3F3F46" stroke-linecap="round" stroke-linejoin="round" stroke-width="1.5"
    d="M18.071 17.802c2.68.543 4.429 1.438 4.429 2.448 0 1.657-4.7 3-10.5 3s-10.5-1.343-10.5-3c0-1.009 1.741-1.9 4.409-2.445" />
</svg>