<svg width="24" height="24" viewBox="0 0 24 24" fill="none" xmlns="http://www.w3.org/2000/svg">
<path d="M11 19V23" stroke="#71717A" stroke-width="1.5" stroke-linecap="round" stroke-linejoin="round"/>
<path d="M22 8H5.33333C4.44928 8 3.60143 8.33112 2.97631 8.92052C2.35119 9.50992 2 10.3093 2 11.1429V18.2143C2 18.4227 2.0878 18.6225 2.24408 18.7699C2.40036 18.9172 2.61232 19 2.83333 19H22V8Z" stroke="#71717A" stroke-width="1.5" stroke-linecap="round" stroke-linejoin="round"/>
<path d="M11 8V1" stroke="#71717A" stroke-width="1.5" stroke-linecap="round" stroke-linejoin="round"/>
<path d="M11 5L17 5L15.5 3L17 1L11 1" stroke="#71717A" stroke-width="1.5" stroke-linecap="round" stroke-linejoin="round"/>
<path d="M11 16V14M11 14V11H13C13.5523 11 14 11.4477 14 12V13C14 13.5523 13.5523 14 13 14H11Z" stroke="#71717A" stroke-width="1.5" stroke-linecap="round" stroke-linejoin="round"/>
</svg>
