<svg xmlns="http://www.w3.org/2000/svg" width="32" height="32" fill="none" viewBox="0 0 32 32">
  <path stroke="#3F3F46" stroke-linecap="round" stroke-linejoin="round" stroke-width="1.938"
    d="M14.666 25.333v4.305M29.333 10.667H7.111c-1.179 0-2.31.441-3.143 1.227a4.073 4.073 0 0 0-1.301 2.963v9.429c0 .278.117.544.325.74.208.197.49.307.786.307h25.555V10.667ZM14.666 10.667V1.333M14.666 6.667h8l-2-2.667 2-2.667h-8" />
  <path stroke="#3F3F46" stroke-linecap="round" stroke-linejoin="round" stroke-width="1.938"
    d="M14.666 21.333v-2.666m0 0v-4h2.709c.713 0 1.291.578 1.291 1.291v1.417c0 .713-.578 1.292-1.291 1.292h-2.709Z" />
</svg>