<svg xmlns="http://www.w3.org/2000/svg" width="24" height="24" fill="none" viewBox="0 0 24 24">
  <path stroke="#3F3F46" stroke-linecap="round" stroke-linejoin="round" stroke-width="1.5"
    d="M11.25 19.5v3.375" />
  <path stroke="#3F3F46" stroke-linecap="round" stroke-linejoin="round" stroke-width="1.549"
    d="M22.5 7.5H5.114c-.914 0-1.79.342-2.435.95a3.155 3.155 0 0 0-1.009 2.296v7.942c0 .216.091.422.253.574.161.152.38.238.608.238h19.97v-12Z" />
  <path stroke="#3F3F46" stroke-linecap="round" stroke-linejoin="round" stroke-width="1.5"
    d="M11.25 7.5v-6M11.25 5.25h6l-1.5-1.875 1.5-1.875h-6M11.25 16.25v-2m0 0v-3h1.667c.736 0 1.333.597 1.333 1.333v.334c0 .736-.597 1.333-1.333 1.333H11.25Z" />
</svg>