<svg xmlns="http://www.w3.org/2000/svg" width="32" height="32" fill="none" viewBox="0 0 32 32">
  <path stroke="#3F3F46" stroke-linecap="round" stroke-linejoin="round" stroke-width="2"
    d="m1.333 9.333 6.587-6.36a1.057 1.057 0 0 1 1.151-.226c.128.052.245.13.343.227L16 9.334M16 12l6.586-6.36a1.057 1.057 0 0 1 1.152-.227c.128.053.244.13.342.228L30.667 12" />
  <path stroke="#3F3F46" stroke-linecap="round" stroke-linejoin="round" stroke-width="2"
    d="M1.333 9.334v21.333H16V9.333M16 30.667h14.667V12" />
  <path stroke="#3F3F46" stroke-linecap="round" stroke-width="2"
    d="M6.667 30.667V26c0-.368.298-.666.666-.666H10c.368 0 .666.298.666.666v4.667M21.334 30.667V26c0-.368.298-.666.666-.666h2.667c.368 0 .666.298.666.666v4.667M20.666 16H26M6 13.334h5.333M22 12h2.667M7.333 9.334H10M16 9.334v-4M30.666 12V8" />
</svg>