<svg xmlns="http://www.w3.org/2000/svg" width="24" height="24" fill="none" viewBox="0 0 24 24">
  <path stroke="#3F3F46" stroke-linecap="round" stroke-linejoin="round" stroke-width="1.5"
    d="m1.5 6.75 4.715-5.008a.756.756 0 0 1 .246-.18.702.702 0 0 1 .578 0 .755.755 0 0 1 .246.18L12 6.75M12 9l4.715-5.008a.756.756 0 0 1 .245-.18.702.702 0 0 1 .58 0 .756.756 0 0 1 .245.18L22.5 9M1.5 6.75v16.5H12V6.75M12 23.25h10.5V9" />
  <path stroke="#3F3F46" stroke-linecap="round" stroke-width="1.5"
    d="M5.25 23.25v-4.2a.3.3 0 0 1 .3-.3h2.4a.3.3 0 0 1 .3.3v4.2M15.75 23.25v-4.2a.3.3 0 0 1 .3-.3h2.4a.3.3 0 0 1 .3.3v4.2M15.75 12h3M4.875 9.75h3.75M16.5 9H18M6 6.75h1.5M12 7V4M22.5 9V6" />
</svg>