<svg width="24" height="24" viewBox="0 0 24 24" fill="none" xmlns="http://www.w3.org/2000/svg">
<path d="M1 7L5.93967 2.23031C6.01323 2.1573 6.10059 2.09938 6.19673 2.05986C6.29287 2.02034 6.39593 2 6.5 2C6.60407 2 6.70713 2.02034 6.80327 2.05986C6.89941 2.09938 6.98677 2.1573 7.06033 2.23031L12 7" stroke="#71717A" stroke-width="1.5" stroke-linecap="round" stroke-linejoin="round"/>
<path d="M12 9L16.9397 4.23031C17.0132 4.1573 17.1006 4.09938 17.1967 4.05986C17.2929 4.02034 17.3959 4 17.5 4C17.6041 4 17.7071 4.02034 17.8033 4.05986C17.8994 4.09938 17.9868 4.1573 18.0603 4.23031L23 9" stroke="#71717A" stroke-width="1.5" stroke-linecap="round" stroke-linejoin="round"/>
<path d="M1 7V23H12V7" stroke="#71717A" stroke-width="1.5" stroke-linecap="round" stroke-linejoin="round"/>
<path d="M12 23H23V9" stroke="#71717A" stroke-width="1.5" stroke-linecap="round" stroke-linejoin="round"/>
<path d="M5 23V19.5C5 19.2239 5.22386 19 5.5 19H7.5C7.77614 19 8 19.2239 8 19.5V23" stroke="#71717A" stroke-width="1.5" stroke-linecap="round"/>
<path d="M16 23V19.5C16 19.2239 16.2239 19 16.5 19H18.5C18.7761 19 19 19.2239 19 19.5V23" stroke="#71717A" stroke-width="1.5" stroke-linecap="round"/>
<path d="M15.5 12H19.5" stroke="#71717A" stroke-width="1.5" stroke-linecap="round"/>
<path d="M4.5 10H8.5" stroke="#71717A" stroke-width="1.5" stroke-linecap="round"/>
<path d="M16.5 9H18.5" stroke="#71717A" stroke-width="1.5" stroke-linecap="round"/>
<path d="M5.5 7H7.5" stroke="#71717A" stroke-width="1.5" stroke-linecap="round"/>
<path d="M12 7V4" stroke="#71717A" stroke-width="1.5" stroke-linecap="round"/>
<path d="M23 9V6" stroke="#71717A" stroke-width="1.5" stroke-linecap="round"/>
</svg>
