<svg xmlns="http://www.w3.org/2000/svg" viewBox="0 0 42 28" width="42" height="28" fill="none"><path stroke="#71717A" stroke-linecap="round" stroke-linejoin="round" stroke-width="2" d="M13.25 26.188a2.437 2.437 0 1 0 0-4.875 2.437 2.437 0 0 0 0 4.875ZM24.625 26.188a2.437 2.437 0 1 0 0-4.875 2.437 2.437 0 0 0 0 4.875ZM26.25 18.063H13.706a1.625 1.625 0 0 1-1.576-1.231l-1.318-5.27h17.876"/><path stroke="#71717A" stroke-linecap="round" stroke-linejoin="round" stroke-width="2" d="m25.02 21.344 5.317-14.179a3.25 3.25 0 0 1 3.043-2.11h1.808M15.549 22.938h6.777M10.813 11.563a9.75 9.75 0 0 1 9.75-9.75v9.75M20.563 11.562 12.14 6.648M20.562 11.563 15.648 3.14"/></svg>