<svg xmlns="http://www.w3.org/2000/svg" width="16" height="16" fill="none" viewBox="0 0 16 16">
  <path stroke="#3F3F46" stroke-width="1.5"
    d="M7.98 14c.386 0 .604-.318 1.226-.939.776-.777 1.525-1.5 2.069-2.045 1.605-1.605 2.236-2.215 2.684-2.69 1.191-1.263 1.345-3.019.538-4.351C13.48 2.295 11.961 2 11.145 2c-.816 0-1.4.295-2.43 1.054l-.716.631-.695-.63C6.186 2.152 5.376 2 4.856 2c-.433 0-2.244 0-3.41 1.975-.851 1.44-.406 3.215.678 4.351.194.203.994.994 2.383 2.417.559.573 1.35 1.361 1.933 1.96C6.77 13.042 7.595 14 7.98 14Z"
    clip-rule="evenodd" />
</svg>