<svg xmlns="http://www.w3.org/2000/svg" width="32" height="32" fill="none" viewBox="0 0 32 32">
  <path stroke="#3F3F46" stroke-linecap="round" stroke-linejoin="round" stroke-width="2"
    d="M9 9a4 4 0 1 0 0-8H6v8h3ZM6 3H2M6 7H2" />
  <path stroke="#3F3F46" stroke-linecap="round" stroke-linejoin="round" stroke-width="2"
    d="M13 5h11a6 6 0 0 1 0 12H9a5 5 0 0 0 0 10h13.698" />
  <path stroke="#3F3F46" stroke-linecap="round" stroke-linejoin="round" stroke-width="2"
    d="M18.8 31a4 4 0 0 1-3.946-4.667A4.15 4.15 0 0 1 19.014 23h3.363a8 8 0 0 1 4.438 1.344l2.736 1.824a1 1 0 0 1 0 1.664l-2.736 1.824A8 8 0 0 1 22.376 31H18.8Z" />
</svg>