<svg xmlns="http://www.w3.org/2000/svg" width="24" height="24" fill="none" viewBox="0 0 24 24">
  <path stroke="#3F3F46" stroke-linecap="round" stroke-linejoin="round" stroke-width="1.5"
    d="M6.75 6.75a3 3 0 1 0 0-6H4.5v6h2.25ZM4.5 2.25h-3M4.5 5.25h-3" />
  <path stroke="#3F3F46" stroke-linecap="round" stroke-linejoin="round" stroke-width="1.5"
    d="M17.25 20.25H6.75a3.75 3.75 0 0 1 0-7.5H18a4.5 4.5 0 1 0 0-9H9.928" />
  <path stroke="#3F3F46" stroke-linecap="round" stroke-linejoin="round" stroke-width="1.5"
    d="M14.1 23.25a3 3 0 0 1-2.959-3.5 3.112 3.112 0 0 1 3.12-2.5h2.522a6 6 0 0 1 3.33 1.008l2.051 1.368a.75.75 0 0 1 0 1.248l-2.052 1.368a6 6 0 0 1-3.329 1.008H14.1Z" />
</svg>