<svg width="24" height="24" fill="none" xmlns="http://www.w3.org/2000/svg"><g clip-path="url(#a)" stroke="#47474F" stroke-width="1.5"><path d="M15 18.5h3.375V14l-2.625-1.5V7.125h-5L9.5 5.25H4.875L3.5 7.125h-2V15l2.25 3.5h4.875M22.5 14v2.25m0 2.25v-2.25m0 0h-3.75M5.001 1.5h2.25m2.25 0h-2.25m0 0v3.75" stroke-linecap="round" stroke-linejoin="round"/><path d="M8.136 9.176a1.5 1.5 0 0 1-2.772 1.148m2.772-1.148a1.5 1.5 0 0 0-2.772 1.148m2.772-1.148L14.25 18m-8.886-7.676L9.75 20.25" stroke-linecap="round" stroke-linejoin="round"/><circle cx="12.375" cy="19.875" r="2.625"/></g><defs><clipPath id="a"><path fill="#fff" d="M0 0h24v24H0z"/></clipPath></defs></svg>