<svg xmlns="http://www.w3.org/2000/svg" width="16" height="16" fill="none" viewBox="0 0 16 16">
  <path stroke="#3F3F46" stroke-linecap="round" stroke-linejoin="round"
    d="M8.667 15.333V6.667c0-.737-.597-1.334-1.333-1.334h-6V2c0-.736.596-1.333 1.333-1.333h11.666c.266 0 .52.103.708.286a.967.967 0 0 1 .293.692v12.71c0 .26-.106.509-.293.692a1.011 1.011 0 0 1-.707.286H8.667ZM4.667 5.333V13" />
  <path stroke="#3F3F46" stroke-linecap="round" stroke-linejoin="round"
    d="M5.46 7.333H3.873c-.667 0-1.207.54-1.207 1.206v2.588c0 .666.54 1.206 1.207 1.206H5.46c.667 0 1.207-.54 1.207-1.206V8.54c0-.666-.54-1.206-1.207-1.206ZM.667 15.333h8M12 12.667A1.333 1.333 0 1 0 12 10a1.333 1.333 0 0 0 0 2.667ZM3.333 2.667v.666M11.334 2.667v.666M9.334 2.667v.666M13.334 2.667v.666" />
</svg>