<svg xmlns="http://www.w3.org/2000/svg" width="24" height="24" fill="none" viewBox="0 0 24 24">
  <path stroke="#3F3F46" stroke-linecap="round" stroke-linejoin="round" stroke-width="1.5"
    d="M13.25 23.25v-13a2 2 0 0 0-2-2H1.5v-5.5a2 2 0 0 1 2-2h18.25a1.5 1.5 0 0 1 1.5 1.5v19.5a1.5 1.5 0 0 1-1.5 1.5h-8.5ZM6.75 8.25v11.5" />
  <path stroke="#3F3F46" stroke-linecap="round" stroke-linejoin="round" stroke-width="1.5"
    d="M7.941 11.25H5.559c-1 0-1.809.81-1.809 1.809v3.882c0 1 .81 1.809 1.809 1.809h2.382c1 0 1.809-.81 1.809-1.809v-3.882c0-1-.81-1.809-1.809-1.809ZM1 23.25h12.125M18 19.5a2.25 2.25 0 1 0 0-4.5 2.25 2.25 0 0 0 0 4.5ZM4.5 3.75v1.5M17.25 3.75v1.5M14.25 3.75v1.5M20.25 3.75v1.5" />
</svg>