<svg xmlns="http://www.w3.org/2000/svg" viewBox="0 0 32 32" width="32" height="32" fill="none"><path stroke="#71717A" stroke-linecap="round" stroke-linejoin="round" stroke-width="2" d="M17.333 30.667V13.333a2.667 2.667 0 0 0-2.666-2.666h-12V4a2.667 2.667 0 0 1 2.666-2.667h23.334c.53 0 1.039.207 1.414.573.375.367.585.864.585 1.383v25.422c0 .519-.21 1.016-.585 1.383a2.023 2.023 0 0 1-1.415.573H17.334ZM9.333 10.667V26"/><path stroke="#71717A" stroke-linecap="round" stroke-linejoin="round" stroke-width="2" d="M10.921 14.667H7.745a2.412 2.412 0 0 0-2.412 2.412v5.176a2.412 2.412 0 0 0 2.412 2.412h3.176a2.412 2.412 0 0 0 2.412-2.412v-5.176a2.412 2.412 0 0 0-2.412-2.412ZM1.333 30.667h16M24 25.333A2.667 2.667 0 1 0 24 20a2.667 2.667 0 0 0 0 5.333ZM6.667 5.333v1.334M22.666 5.333v1.334M18.666 5.333v1.334M26.666 5.333v1.334"/></svg>