<svg xmlns="http://www.w3.org/2000/svg" width="16" height="16" fill="none" viewBox="0 0 16 16">
  <path stroke="#3F3F46" stroke-linecap="round" stroke-linejoin="round"
    d="M2.667 6.667.667 12h4l-2-5.333ZM2.667 12v3.333M6.667 8.333v7h8v-7" />
  <path stroke="#3F3F46" stroke-linecap="round"
    d="M9.333 15.333v-3.667c0-.184.15-.333.333-.333h2c.184 0 .334.15.334.333v3.667M6 8.666l4.45-3.814a.333.333 0 0 1 .433 0l4.45 3.814M10 8h1.333M.667 15.333h6" />
  <path stroke="#3F3F46" stroke-linecap="round" stroke-linejoin="round"
    d="M6.377 4.666c.421.01.829-.16 1.133-.473.304-.313.48-.742.49-1.194a1.81 1.81 0 0 0-.45-1.127 1.589 1.589 0 0 0-1.031-.532 1.55 1.55 0 0 0-1.104.326 1.758 1.758 0 0 0-.631 1.022.984.984 0 0 0-1.144.19c-.19.196-.3.464-.307.746.006.282.116.55.306.746a.96.96 0 0 0 .709.296h2.029Z" />
</svg>