<svg xmlns="http://www.w3.org/2000/svg" width="32" height="32" fill="none" viewBox="0 0 32 32">
  <path stroke="#3F3F46" stroke-linecap="round" stroke-linejoin="round" stroke-width="2"
    d="M5 12 1 23h8L5 12ZM5 23v6.667" />
  <path stroke="#3F3F46" stroke-linecap="round" stroke-linejoin="round" stroke-width="2.042"
    d="M29 30V15.52M13 30V15.52" />
  <path stroke="#3F3F46" stroke-linecap="round" stroke-width="2"
    d="M18 30v-7.111c0-.491.398-.889.89-.889h4.222c.49 0 .889.398.889.889V30M11 17l9.445-7.556a.889.889 0 0 1 1.11 0L31 17M19 15h4M2 30h27" />
  <path stroke="#3F3F46" stroke-linecap="round" stroke-linejoin="round" stroke-width="2"
    d="M13.522 9a3.32 3.32 0 0 0 2.43-.995A3.665 3.665 0 0 0 17 5.499a3.759 3.759 0 0 0-.965-2.367 3.428 3.428 0 0 0-2.208-1.117 3.37 3.37 0 0 0-2.364.683 3.683 3.683 0 0 0-1.353 2.147 2.143 2.143 0 0 0-.935-.221 2.079 2.079 0 0 0-1.517.622c-.408.41-.644.973-.658 1.565.014.593.25 1.156.657 1.566.408.41.953.634 1.518.622h4.347Z" />
</svg>