<svg xmlns="http://www.w3.org/2000/svg" width="32" height="32" fill="none" viewBox="0 0 32 32">
  <path stroke="#3F3F46" stroke-linecap="round" stroke-linejoin="round" stroke-width="2"
    d="M16 14.667a6.667 6.667 0 1 0 0-13.333 6.667 6.667 0 0 0 0 13.333ZM5 31c-1.105 0-2.016-.9-1.846-1.992a13 13 0 0 1 25.692 0" />
  <path stroke="#3F3F46" stroke-linecap="round" stroke-linejoin="round" stroke-width="2"
    d="M10 4.667c-.889-.89-3.762-1.792-5.095.51-1.512 2.612 0 8.668 1.333 10.668L9.333 10M22 4.667c.889-.89 3.762-1.792 5.095.51 1.512 2.612 0 8.668-1.333 10.668L22.667 10M16 5.333c-.222 1.112-1.333 3.334-6.133 3.334M16 5.333c.222 1.112 1.333 3.334 6.133 3.334M22 20c-.667 1.556-2.8 3.334-6 3.334S10.667 21.556 10 20" />
</svg>