<svg xmlns="http://www.w3.org/2000/svg" width="16" height="16" fill="none" viewBox="0 0 16 16">
  <path stroke="#3F3F46" stroke-linecap="round" stroke-linejoin="round"
    d="M8 7.333A3.333 3.333 0 1 0 8 .667a3.333 3.333 0 0 0 0 6.666ZM2.5 15.5c-.552 0-1.008-.45-.923-.996a6.5 6.5 0 0 1 12.846 0" />
  <path stroke="#3F3F46" stroke-linecap="round" stroke-linejoin="round"
    d="M5 2.333c-.444-.444-1.88-.896-2.547.256-.756 1.305 0 4.333.666 5.333L4.667 5M11 2.333c.444-.444 1.88-.896 2.547.256.756 1.305 0 4.333-.666 5.333L11.333 5M8 2.667c-.111.555-.667 1.666-3.067 1.666M8 2.667c.111.555.667 1.666 3.067 1.666M11 10c-.333.778-1.4 1.667-3 1.667S5.333 10.777 5 10" />
</svg>