<svg xmlns="http://www.w3.org/2000/svg" width="32" height="32" fill="none" viewBox="0 0 32 32">
  <path stroke="#3F3F46" stroke-linecap="round" stroke-linejoin="round" stroke-width="2"
    d="m30.714 15.249-1.288-11.7a1.943 1.943 0 0 0-.734-1.315 2.02 2.02 0 0 0-1.469-.416L6.018 4.153a2.02 2.02 0 0 0-1.343.726 1.943 1.943 0 0 0-.43 1.443l.246 2.24" />
  <path stroke="#3F3F46" stroke-linecap="round" stroke-linejoin="round" stroke-width="2.026"
    d="M25.102 12.009H3.9a1.892 1.892 0 0 0-1.898 1.886v14.218c0 1.041.85 1.886 1.898 1.886h21.203A1.892 1.892 0 0 0 27 28.113V13.895c0-1.042-.85-1.886-1.898-1.886Z" />
  <path stroke="#3F3F46" stroke-linecap="round" stroke-linejoin="round" stroke-width="2"
    d="M2 25h25M7 17h3.334M9.885 8.823l2.982-.328" />
</svg>