<svg xmlns="http://www.w3.org/2000/svg" viewBox="0 0 16 16" width="16" height="16" fill="none"><path stroke="#71717A" stroke-linecap="round" stroke-linejoin="round" d="M15.356 7.625 14.7 1.66a1 1 0 0 0-1.104-.885L2.994 1.943a1 1 0 0 0-.885 1.104l.126 1.142"/><path stroke="#71717A" stroke-linecap="round" stroke-linejoin="round" d="M12.359 6H1.64a.978.978 0 0 0-.974.982v7.369c0 .542.436.982.974.982h10.718c.538 0 .974-.44.974-.982V6.982A.978.978 0 0 0 12.36 6ZM.667 12.667h12.666M3.333 8.667h1.333M4.942 4.412l1.49-.165"/></svg>