<svg xmlns="http://www.w3.org/2000/svg" width="16" height="16" fill="none" viewBox="0 0 16 16">
  <path stroke="#3F3F46" stroke-linecap="round" stroke-linejoin="round"
    d="M8 .667c1.414 0 2.77.607 3.771 1.687 1 1.08 1.562 2.545 1.562 4.073 0 2.343-2.893 6.442-4.417 8.44-.112.145-.251.263-.41.344a1.113 1.113 0 0 1-1.012 0 1.202 1.202 0 0 1-.41-.345c-1.523-1.995-4.417-6.096-4.417-8.44 0-1.527.561-2.992 1.562-4.072 1-1.08 2.356-1.687 3.77-1.687Z" />
  <path stroke="#3F3F46" stroke-linecap="round" stroke-linejoin="round"
    d="M8 8a2 2 0 1 0 0-4 2 2 0 0 0 0 4Z" />
</svg>