<svg xmlns="http://www.w3.org/2000/svg" width="32" height="32" fill="none" viewBox="0 0 32 32">
  <path stroke="#3F3F46" stroke-linecap="round" stroke-linejoin="round" stroke-width="2"
    d="M16 1.333c2.83 0 5.542 1.214 7.543 3.374 2 2.16 3.124 5.09 3.124 8.146 0 4.686-5.787 12.885-8.835 16.88a2.406 2.406 0 0 1-.819.689 2.225 2.225 0 0 1-1.012.245c-.35 0-.696-.084-1.012-.245a2.406 2.406 0 0 1-.819-.689c-3.048-3.992-8.837-12.194-8.837-16.88 0-3.055 1.124-5.985 3.125-8.146 2-2.16 4.713-3.373 7.542-3.373Z" />
  <path stroke="#3F3F46" stroke-linecap="round" stroke-linejoin="round" stroke-width="2"
    d="M16 16a4 4 0 1 0 0-8 4 4 0 0 0 0 8Z" />
</svg>