<svg xmlns="http://www.w3.org/2000/svg" width="32" height="32" fill="none" viewBox="0 0 32 32">
    <g clip-path="url(#a)">
        <path fill="#47474F" d="M9 31.998a1 1 0 0 1 0-2h10c2.757 0 5-2.243 5-5 0-3.082-2.11-4.974-5.52-7H1a1 1 0 0 1 0-2h13.977C11.333 13.882 8 11.46 8 6.998c0-3.73 3.568-7 7.636-7H25a1 1 0 0 1 0 2h-9.364c-3.225 0-5.636 2.64-5.636 5 0 3.914 3.639 5.96 7.49 8.128.513.288 1.025.577 1.533.872H31a1 1 0 0 1 0 2h-8.913c2.023 1.552 3.913 3.718 3.913 7 0 3.86-3.14 7-7 7H9Z"/>
    </g>
    <defs>
        <clipPath id="a">
            <path fill="#fff" d="M0 0h32v32H0z"/>
        </clipPath>
    </defs>
</svg>