<svg xmlns="http://www.w3.org/2000/svg" width="42" height="28" fill="none" viewBox="0 0 42 28">
  <path fill="#47474F"
    d="M37.571 3h1a1 1 0 0 0-1-1v1Zm-5.143 0V2a1 1 0 0 0-.774.367l.774.633Zm-7.714 9.428v1a1 1 0 0 0 .774-.366l-.774-.633Zm-5.571 0-.858.515a1 1 0 0 0 .858.486v-1Zm-.428-2.657A1 1 0 1 0 17 10.801l1.715-1.03Zm18.856 9.086v1a1 1 0 0 0 1-1h-1Zm-4.286 0-.913.406a1 1 0 0 0 .913.594v-1ZM31.571 15v-1a1 1 0 0 0-.914 1.406l.914-.406ZM10 12.429a1 1 0 0 0 2 0h-2Zm11.895-7.187-.923.384.923-.384ZM24.714 12h1v-.2l-.077-.185-.923.385Zm-1 6.428a1 1 0 1 0 2 0h-2Zm-10.143-5a1 1 0 1 0 0-2v2Zm-6.664 2.237-.774.632.774-.632Zm1.482 3.396a1 1 0 0 0 1.549-1.265l-1.55 1.265Zm.04.367H25.57v-2H8.43v2Zm0 6.858H25.57v-2H8.43v2Zm17.142 0A4.429 4.429 0 0 0 30 21.857h-2a2.429 2.429 0 0 1-2.429 2.429v2ZM4 21.857a4.429 4.429 0 0 0 4.429 4.429v-2A2.429 2.429 0 0 1 6 21.857H4Zm21.571-2.428A2.429 2.429 0 0 1 28 21.857h2a4.428 4.428 0 0 0-4.429-4.428v2Zm-17.142-2A4.429 4.429 0 0 0 4 21.857h2a2.429 2.429 0 0 1 2.429-2.428v-2ZM37.57 2h-5.143v2h5.143V2Zm-5.917.367-7.714 9.428 1.548 1.267 7.714-9.429-1.548-1.266ZM36.571 3v12h2V3h-2Zm-11.857 8.428h-5.571v2h5.571v-2ZM20 11.915l-1.285-2.143L17 10.801l1.285 2.142L20 11.914ZM36.571 15v3.857h2V15h-2Zm1 2.857h-4.286v2h4.286v-2Zm-3.372.594-1.714-3.857-1.828.812 1.715 3.857 1.827-.812ZM31.571 16h6v-2h-6v2ZM12 12.429V5.57h-2v6.858h2Zm8.972-6.803 2.82 6.759 1.845-.77-2.82-6.758-1.845.77ZM23.714 12v6.428h2V12h-2Zm-2.61-6.286a.143.143 0 0 1-.132-.088l1.846-.77a1.857 1.857 0 0 0-1.714-1.142v2ZM12 5.571a.143.143 0 0 1-.143.143v-2A1.857 1.857 0 0 0 10 5.571h2Zm-4.286 9.552v-2.266h-2v2.266h2Zm-.571-1.694h6.428v-2H7.143v2Zm-1.01 2.868 2.256 2.764 1.549-1.265-2.256-2.763-1.55 1.264Zm1.581-3.44a.571.571 0 0 1-.571.572v-2c-.79 0-1.429.64-1.429 1.428h2Zm-2 2.266c0 .428.148.843.419 1.174l1.549-1.264c.02.025.032.057.032.09h-2Zm6.143-9.409h9.247v-2h-9.247v2Z" />
</svg>