<svg xmlns="http://www.w3.org/2000/svg" width="24" height="24" fill="none" viewBox="0 0 24 24">
  <path stroke="#47474F" stroke-linecap="round" stroke-linejoin="round" stroke-width="1.5"
    d="M1 14.934V9.802c0-.39.178-.762.496-1.037.317-.275.747-.43 1.196-.43h4.874m-1.49 8.799H23M20.653 4.18v-.489l.418-1.828a.665.665 0 0 0-.08-.443.812.812 0 0 0-.358-.325.982.982 0 0 0-.984.084l-3.78 2.454a1.957 1.957 0 0 1-1.049.303H9.935a1.885 1.885 0 0 0-1.11.341 1.46 1.46 0 0 0-.593.88l-1.873 8.741a15.351 15.351 0 0 0-.192 5.025c.116 1.12.715 2.162 1.676 2.917.962.755 2.216 1.17 3.514 1.16h6.284c1.3.01 2.556-.406 3.517-1.164.962-.757 1.56-1.8 1.673-2.923a15.23 15.23 0 0 0-.147-4.956l-2.03-9.777Z" />
</svg>