<svg xmlns="http://www.w3.org/2000/svg" width="16" height="16" fill="none" viewBox="0 0 16 16">
  <path stroke="#47474F" stroke-linecap="round" stroke-linejoin="round"
    d="M.667 9.956V6.535c0-.26.118-.508.33-.692.212-.183.498-.286.798-.286h3.249m-.993 5.866h11.282M13.77 2.787V2.46l.278-1.219a.443.443 0 0 0-.054-.295.541.541 0 0 0-.238-.217.655.655 0 0 0-.656.056l-2.52 1.636c-.202.13-.447.201-.699.202H6.623a1.256 1.256 0 0 0-.74.228.973.973 0 0 0-.395.587L4.239 9.265a10.234 10.234 0 0 0-.128 3.35c.078.747.477 1.441 1.118 1.945.64.503 1.477.78 2.342.773h4.19c.866.006 1.703-.27 2.344-.775.642-.505 1.04-1.201 1.115-1.949.148-1.1.116-2.213-.097-3.304l-1.354-6.518Z" />
</svg>