<svg xmlns="http://www.w3.org/2000/svg" width="16" height="16" fill="none" viewBox="0 0 16 16">
  <path stroke="#3F3F46" stroke-linecap="round" stroke-linejoin="round"
    d="M8 4a1.333 1.333 0 1 0 0-2.667A1.333 1.333 0 0 0 8 4ZM10.5 9.333V8a2.5 2.5 0 0 0-5 0v1.333h1l.5 4h2l.5-4h1ZM3.333 5.333a1.333 1.333 0 1 0 0-2.666 1.333 1.333 0 0 0 0 2.666ZM2.63 6.528A2.502 2.502 0 0 0 .5 9v.333h1l.5 3.334h2l.25-1.671M12.667 5.333a1.333 1.333 0 1 0 0-2.666 1.333 1.333 0 0 0 0 2.666ZM13.37 6.528A2.501 2.501 0 0 1 15.5 9v.333h-1l-.5 3.334h-2l-.25-1.671M2.667 15.333h10.666" />
</svg>