<svg xmlns="http://www.w3.org/2000/svg" width="32" height="32" fill="none" viewBox="0 0 32 32">
  <path stroke="#3F3F46" stroke-linecap="round" stroke-linejoin="round" stroke-width="2"
    d="M7 26.865v2.086a2 2 0 0 0 4 0v-1.873M25 26.865v2.086a2 2 0 0 1-4 0v-1.889M1 13.95v-4a2 2 0 0 1 2-2h1.938M31 13.95v-4a2 2 0 0 0-2-2H27.08" />
  <path stroke="#3F3F46" stroke-linecap="round" stroke-linejoin="round" stroke-width="2"
    d="M24.334 1.95H7.667C6.194 1.95 5 3.098 5 4.514v19.872c0 1.416 1.194 2.564 2.667 2.564h16.667c1.473 0 2.666-1.148 2.666-2.564V4.514c0-1.416-1.193-2.564-2.666-2.564ZM27 19.95H5M19 23.95h4M9 23.95h4M13 5.95h6" />
</svg>