<svg xmlns="http://www.w3.org/2000/svg" width="16" height="16" fill="none" viewBox="0 0 16 16">
  <path stroke="#3F3F46" stroke-linecap="round" stroke-linejoin="round"
    d="M5.5 13.475v1a1 1 0 1 1-2 0v-.923M10.5 13.475v1a1 1 0 0 0 2 0v-1M.5 7.475v-2a1 1 0 0 1 1-1h.906M15.5 7.475v-2a1 1 0 0 0-1-1h-.917M12.166 1.475H3.833c-.737 0-1.333.551-1.333 1.23v9.54c0 .68.596 1.23 1.333 1.23h8.333c.737 0 1.333-.55 1.333-1.23v-9.54c0-.679-.596-1.23-1.333-1.23ZM13.5 9.475h-11M9.5 11.475h2M4.5 11.475h2M6.5 3.475h3" />
</svg>