<svg xmlns="http://www.w3.org/2000/svg" width="16" height="16" fill="none" viewBox="0 0 16 16">
  <path d="M2.08735 0.665771C1.71052 0.665771 1.34912 0.815467 1.08266 1.08193C0.8162 1.34839 0.666504 1.70979 0.666504 2.08662V6.03857C0.666638 6.66655 0.916251 7.26881 1.36035 7.7128L8.7045 15.0569C8.82567 15.1782 8.97748 15.2643 9.14373 15.306C9.31005 15.3478 9.48459 15.3436 9.64873 15.294C9.81286 15.2443 9.96044 15.151 10.0757 15.0241C10.191 14.8971 10.2696 14.7412 10.3033 14.5731L11.0149 11.0142L14.5738 10.3025C14.742 10.2689 14.8978 10.1903 15.0248 10.075C15.1517 9.95971 15.245 9.81213 15.2947 9.648C15.3443 9.48386 15.3485 9.30932 15.3067 9.143C15.265 8.97675 15.1789 8.82494 15.0577 8.70377L7.71348 1.35957C7.26949 0.915468 6.66718 0.665906 6.0392 0.665771H2.08735Z" stroke="#47474F" stroke-linecap="round" stroke-linejoin="round" clip-rule="evenodd"/>
  <path d="M3.16357 4.43975C3.16357 3.73453 3.73527 3.16284 4.44048 3.16284C5.1457 3.16284 5.7174 3.73453 5.7174 4.43975C5.7174 5.14497 5.1457 5.71666 4.44048 5.71666C3.73527 5.71666 3.16357 5.14497 3.16357 4.43975Z" stroke="#47474F" stroke-linecap="round" stroke-linejoin="round" clip-rule="evenodd"/>
</svg>
