<svg xmlns="http://www.w3.org/2000/svg" width="16" height="16" fill="none" viewBox="0 0 16 16">
  <path stroke="#3F3F46" stroke-linecap="round" stroke-linejoin="round"
    d="M13 7.463a1.75 1.75 0 1 0 0-3.5 1.75 1.75 0 0 0 0 3.5ZM4.919 9.333l2.554-1.6L5.6 5.596a2 2 0 0 1 .61-3.106l2.842-1.423a1 1 0 1 1 .895 1.788L7.68 3.99a.5.5 0 0 0-.147.777L11.1 8.842M15.5 11.333c-1 0-1.5 1-2.5 1s-1.5-1-2.5-1-1.5 1-2.5 1-1.5-1-2.5-1-1.5 1-2.5 1c-.994 0-1.494-.988-2.482-1M.5 14c1 0 1.5 1 2.5 1s1.5-1 2.5-1S7 15 8 15s1.5-1 2.5-1 1.5 1 2.5 1c.994 0 1.494-.99 2.484-1" />
</svg>