<svg xmlns="http://www.w3.org/2000/svg" width="24" height="24" fill="none" viewBox="0 0 24 24">
  <path stroke="#3F3F46" stroke-linecap="round" stroke-linejoin="round" stroke-width="1.5"
    d="M2.93.75A2.18 2.18 0 0 0 .75 2.93V8.99c0 .963.383 1.887 1.064 2.568L13.08 22.824a1.452 1.452 0 0 0 2.453-.742l1.091-5.459 5.459-1.091a1.454 1.454 0 0 0 .742-2.453L11.56 1.814A3.633 3.633 0 0 0 8.991.75H2.929Z"
    clip-rule="evenodd" />
  <path stroke="#3F3F46" stroke-linecap="round" stroke-linejoin="round" stroke-width="1.5"
    d="M4.5 6.375a1.875 1.875 0 1 1 3.75 0 1.875 1.875 0 0 1-3.75 0Z" clip-rule="evenodd" />
</svg>