<svg xmlns="http://www.w3.org/2000/svg" width="32" height="32" fill="none" viewBox="0 0 32 32">
  <path stroke="#3F3F46" stroke-linecap="round" stroke-linejoin="round" stroke-width="2"
    d="M4.174 1.331a2.842 2.842 0 0 0-2.842 2.842v7.904c0 1.256.5 2.46 1.388 3.348l14.688 14.689a1.895 1.895 0 0 0 3.198-.968l1.423-7.118 7.118-1.423a1.894 1.894 0 0 0 .967-3.198L15.426 2.72a4.737 4.737 0 0 0-3.349-1.388H4.174Z"
    clip-rule="evenodd" />
  <path stroke="#3F3F46" stroke-linecap="round" stroke-linejoin="round" stroke-width="2"
    d="M6.327 8.88a2.554 2.554 0 1 1 5.107 0 2.554 2.554 0 0 1-5.107 0Z" clip-rule="evenodd" />
</svg>