<svg width="32" height="32" viewBox="0 0 32 32" fill="none" xmlns="http://www.w3.org/2000/svg">
<path d="M8.99902 1V31" stroke="#71717A" stroke-width="1.5" stroke-linecap="round" stroke-linejoin="round"/>
<path d="M12.999 1V10C12.9959 11.0599 12.5734 12.0755 11.824 12.8249C11.0745 13.5744 10.0589 13.9968 8.99902 14C7.93913 13.9968 6.92355 13.5744 6.17409 12.8249C5.42463 12.0755 5.00219 11.0599 4.99902 10V1" stroke="#71717A" stroke-width="1.5" stroke-linecap="round" stroke-linejoin="round"/>
<path d="M20.998 31V2.00399C20.9994 1.78759 21.0704 1.57737 21.2005 1.40444C21.3306 1.23151 21.5129 1.10504 21.7205 1.04373C21.928 0.982429 22.1498 0.989544 22.353 1.06403C22.5561 1.13851 22.73 1.27641 22.8487 1.45732C26.5527 7.23999 26.7847 13.256 26.9994 19C27.0095 19.2653 26.9647 19.5299 26.8677 19.7772C26.7708 20.0244 26.6239 20.2489 26.4361 20.4367C26.2483 20.6245 26.0238 20.7714 25.7765 20.8683C25.5293 20.9653 25.2647 21.0101 24.9994 21H21.0989" stroke="#71717A" stroke-width="1.5" stroke-linecap="round" stroke-linejoin="round"/>
</svg>
