<svg xmlns="http://www.w3.org/2000/svg" viewBox="0 0 24 24" width="24" height="24" fill="none">
  <path stroke="#3F3F46" stroke-linecap="round" stroke-linejoin="round" stroke-width="1.5"
    d="M15.75 20.25h6l1.5 3h-9l1.5-3ZM9.75 15.75a4.5 4.5 0 1 0-9 0v6a1.5 1.5 0 0 0 1.5 1.5h6a1.5 1.5 0 0 0 1.5-1.5v-6Z" />
  <path stroke="#3F3F46" stroke-linecap="round" stroke-linejoin="round" stroke-width="1.5"
    d="M5.25 11.25V7.5a3.75 3.75 0 0 1 7.5 0v6.75a1.5 1.5 0 1 0 3 0v-12a1.5 1.5 0 1 1 3 0v18M.75 20.25h9M5.25 15.375a.375.375 0 1 1 0 .75.375.375 0 0 1 0-.75Z" />
</svg>