<svg xmlns="http://www.w3.org/2000/svg" width="32" height="32" fill="none" viewBox="0 0 32 32">
  <path stroke="#3F3F46" stroke-linecap="round" stroke-linejoin="round" stroke-width="2"
    d="M22.667 9.333h2.666M22.667 14.666h2.666M22.667 20h2.666M2.667 17.333h10.666M6.667 25.333h2.667M6.667 21.333h2.667M22.667 25.333h2.666M24 5.333V2.666M29.333 29.333V6a.667.667 0 0 0-.666-.667h-9.334a.667.667 0 0 0-.666.667v23.333M13.333 29.333V14a.667.667 0 0 0-.667-.667H3.333a.667.667 0 0 0-.667.667v15.333M2.667 29.333h26.666M9.333 4a2.666 2.666 0 0 0-2.607 2.094 1.727 1.727 0 0 0-.948-.316 1.778 1.778 0 1 0 0 3.555h3.555a2.667 2.667 0 1 0 0-5.333Z" />
</svg>