<svg xmlns="http://www.w3.org/2000/svg" width="16" height="16" fill="none" viewBox="0 0 16 16">
  <path stroke="#3F3F46" stroke-linecap="round" stroke-linejoin="round"
    d="M11.333 4.667h1.333M11.333 7.333h1.333M11.333 10h1.333M1.333 8.667h5.333M3.333 12.667h1.333M3.333 10.667h1.333M11.333 12.667h1.333M12 2.667V1.333M14.667 14.667V3a.333.333 0 0 0-.333-.333H9.667A.333.333 0 0 0 9.334 3v11.667M6.667 14.667V7a.333.333 0 0 0-.333-.333H1.667A.333.333 0 0 0 1.333 7v7.667M1.333 14.667h13.334M4.667 2a1.333 1.333 0 0 0-1.304 1.047.863.863 0 0 0-.474-.158.889.889 0 1 0 0 1.778h1.778a1.333 1.333 0 0 0 0-2.667Z" />
</svg>