<svg xmlns="http://www.w3.org/2000/svg" width="24" height="24" fill="none" viewBox="0 0 24 24">
  <path stroke="#3F3F46" stroke-linecap="round" stroke-linejoin="round" stroke-width="1.5"
    d="M16.875 7.5h3M16.875 11.25h3.063M16.875 15h3.063M4.125 15h3M4.125 18.75h3M16.875 18.75h3.063M1.5 12h8.25M18.375 3.375V1.5M22.5 22.5V4.396a.646.646 0 0 0-.646-.646h-6.958a.646.646 0 0 0-.646.646V22.5M9.75 22.5V9.646A.646.646 0 0 0 9.104 9H2.146a.646.646 0 0 0-.646.646V22.5M1.5 22.5h21M6.75 1.5a2.249 2.249 0 0 0-2.2 1.767A1.457 1.457 0 0 0 3.75 3a1.5 1.5 0 0 0 0 3h3a2.25 2.25 0 1 0 0-4.5Z" />
</svg>