<svg width="24" height="24" viewBox="0 0 24 24" fill="none" xmlns="http://www.w3.org/2000/svg">
<path d="M22 16C22 19.3137 19.3137 22 16 22C12.6863 22 10 19.3137 10 16C10 12.6863 12.6863 10 16 10C19.3137 10 22 12.6863 22 16Z" stroke="#71717A" stroke-width="1.5"/>
<path d="M1.5 13.5C1.94778 10.9515 4.46356 9 7.5 9C8.59117 9 9.61511 9.25202 10.5 9.69319" stroke="#71717A" stroke-width="1.5" stroke-linecap="round"/>
<path d="M10.5 5C10.5 6.65685 9.15685 8 7.5 8C5.84315 8 4.5 6.65685 4.5 5C4.5 3.34315 5.84315 2 7.5 2C9.15685 2 10.5 3.34315 10.5 5Z" stroke="#71717A" stroke-width="1.5"/>
<path d="M21 12.5L11 19.5" stroke="#71717A" stroke-width="1.5"/>
</svg>
