<svg width="16" height="16" viewBox="0 0 16 16" fill="none" xmlns="http://www.w3.org/2000/svg">
<path d="M15 11C15 13.2091 13.2091 15 11 15C8.79086 15 7 13.2091 7 11C7 8.79086 8.79086 7 11 7C13.2091 7 15 8.79086 15 11Z" stroke="#71717A" stroke-width="1.5"/>
<path d="M1 9C1.29852 7.30102 2.97571 6 5 6C5.72745 6 6.41007 6.16801 7 6.46213" stroke="#71717A" stroke-width="1.5" stroke-linecap="round"/>
<path d="M7 3C7 4.10457 6.10457 5 5 5C3.89543 5 3 4.10457 3 3C3 1.89543 3.89543 1 5 1C6.10457 1 7 1.89543 7 3Z" stroke="#71717A" stroke-width="1.5"/>
<path d="M14.5 8.5L7.5 13.5" stroke="#71717A" stroke-width="1.5"/>
</svg>
