<svg xmlns="http://www.w3.org/2000/svg" viewBox="0 0 16 16" width="16" height="16" fill="none"><g stroke="#71717A" stroke-linecap="round" stroke-linejoin="round" clip-path="url(#a)"><path d="M7 8.5a2.5 2.5 0 0 1-4.927.6.79.79 0 0 0-.767-.6.806.806 0 0 0-.806.806V14.5a1 1 0 0 0 1 1h13a1 1 0 0 0 1-1v-.856a2 2 0 0 0-.986-1.724L7 8.5ZM.5 13.5h15M8.5 11 9.749 9.75M10.5 12l1.31-1.31M9 7.5a2.5 2.5 0 0 1 4.927-.6.79.79 0 0 0 .767.6.806.806 0 0 0 .806-.806V1.5a1 1 0 0 0-1-1h-13a1 1 0 0 0-1 1v.856a2 2 0 0 0 .986 1.724L9 7.5ZM15.5 2.5H.5M7.5 5 6.25 6.249M5.5 4 4.19 5.31"/></g><defs><clipPath id="a"><path fill="#fff" d="M0 0h16v16H0z"/></clipPath></defs></svg>