<svg xmlns="http://www.w3.org/2000/svg" width="24" height="24" fill="none"><g stroke="#71717A" stroke-linecap="round" stroke-linejoin="round" stroke-width="1.5" clip-path="url(#a)"><path d="M10.5 12.75a3.75 3.75 0 0 1-7.391.9 1.185 1.185 0 0 0-1.15-.9A1.21 1.21 0 0 0 .75 13.959v7.791a1.5 1.5 0 0 0 1.5 1.5h19.5a1.5 1.5 0 0 0 1.5-1.5v-1.284a3 3 0 0 0-1.479-2.586L10.5 12.75ZM.75 20.25h22.5M12.75 16.5l1.873-1.873M15.75 18l1.966-1.966M13.5 11.25a3.75 3.75 0 0 1 7.391-.9 1.185 1.185 0 0 0 1.15.9 1.21 1.21 0 0 0 1.209-1.209V2.25a1.5 1.5 0 0 0-1.5-1.5H2.25a1.5 1.5 0 0 0-1.5 1.5v1.284A3 3 0 0 0 2.229 6.12L13.5 11.25ZM23.25 3.75H.75M11.25 7.5 9.377 9.373M8.25 6 6.284 7.966"/></g><defs><clipPath id="a"><path fill="#fff" d="M0 0h24v24H0z"/></clipPath></defs></svg>