<svg xmlns="http://www.w3.org/2000/svg" width="24" height="24" fill="none" viewBox="0 0 24 24">
  <path stroke="#3F3F46" stroke-linecap="round" stroke-linejoin="round" stroke-width="1.5"
    d="M.75 22.23a5.511 5.511 0 0 0 4.5-1.5 4.546 4.546 0 0 0 6.75 0 4.546 4.546 0 0 0 6.75 0 5.51 5.51 0 0 0 4.462 1.504M21.757 19.237a6.228 6.228 0 0 0 1.43-1.954.751.751 0 0 0-.687-1.054h-21a.75.75 0 0 0-.686 1.054 6.455 6.455 0 0 0 1.758 2.252M11.25 16.234v-3.58M11.01 1.328c.157.216.24.476.24.742l-.001 10.72L2.9 12.8a.75.75 0 0 1-.63-1.16L8.968 1.313a1.267 1.267 0 0 1 2.044.014ZM15.632 4.877a.75.75 0 0 0-1.381.406v7.946h5.376a.75.75 0 0 0 .63-1.156l-4.626-7.196Z" />
</svg>