<svg width="32" height="32" viewBox="0 0 32 32" fill="none" xmlns="http://www.w3.org/2000/svg">
<path d="M1.00049 30.9724C2.0864 31.1068 3.18863 30.997 4.22668 30.651C5.26473 30.305 6.2124 29.7315 7.00049 28.9724C7.56893 29.602 8.26315 30.1053 9.0383 30.4498C9.81344 30.7943 10.6522 30.9723 11.5005 30.9723C12.3487 30.9723 13.1876 30.7943 13.9627 30.4498C14.7378 30.1053 15.4321 29.602 16.0005 28.9724C16.5689 29.602 17.2632 30.1053 18.0383 30.4498C18.8134 30.7943 19.6523 30.9723 20.5005 30.9723C21.3488 30.9723 22.1876 30.7943 22.9627 30.4498C23.7378 30.1053 24.4321 29.602 25.0005 28.9724C25.7886 29.7315 26.7363 30.305 27.7743 30.651C28.7959 30.9915 29.8796 31.1033 30.9487 30.9786" stroke="#71717A" stroke-width="1.5" stroke-linecap="round" stroke-linejoin="round"/>
<path d="M29.0099 26.9831C29.8093 26.2477 30.4566 25.3625 30.9152 24.3778C30.9827 24.2255 31.0111 24.0588 30.9978 23.8927C30.9846 23.7267 30.93 23.5666 30.8391 23.427C30.7483 23.2874 30.624 23.1727 30.4775 23.0933C30.3311 23.0139 30.1671 22.9724 30.0005 22.9725H2.0005C1.83392 22.9724 1.66996 23.0139 1.52351 23.0933C1.37706 23.1727 1.25275 23.2874 1.16188 23.427C1.07102 23.5666 1.01647 23.7267 1.00318 23.8927C0.989902 24.0588 1.01831 24.2255 1.08583 24.3778C1.63331 25.5411 2.43435 26.5667 3.42991 27.3796" stroke="#71717A" stroke-width="1.5" stroke-linecap="round" stroke-linejoin="round"/>
<path d="M15.001 22.9724V16.8718" stroke="#71717A" stroke-width="1.5" stroke-linecap="round" stroke-linejoin="round"/>
<path d="M14.681 1.67224C14.889 1.96024 15.0009 2.30648 15.0008 2.66173L14.9981 16.9537L3.86743 16.9697C3.68692 16.9701 3.50968 16.9217 3.35449 16.8295C3.19931 16.7373 3.07197 16.6048 2.98598 16.4461C2.9 16.2874 2.85857 16.1084 2.86611 15.928C2.87364 15.7477 2.92984 15.5727 3.02876 15.4217L11.9554 1.65373C12.1673 1.36858 12.4637 1.15747 12.8024 1.05043C13.1412 0.943393 13.505 0.945864 13.8423 1.05749C14.1795 1.16913 14.473 1.38423 14.681 1.67224Z" stroke="#71717A" stroke-width="1.5" stroke-linecap="round" stroke-linejoin="round"/>
<path d="M20.8418 7.83644C20.725 7.65459 20.5524 7.51549 20.3499 7.43997C20.1473 7.36446 19.9258 7.35659 19.7184 7.41755C19.5111 7.47852 19.329 7.60503 19.1996 7.77814C19.0702 7.95124 19.0003 8.16163 19.0005 8.37777V18.9724H26.1685C26.348 18.9721 26.5241 18.9235 26.6784 18.8317C26.8327 18.74 26.9595 18.6084 27.0455 18.4509C27.1315 18.2933 27.1736 18.1155 27.1673 17.9361C27.161 17.7567 27.1066 17.5823 27.0098 17.4311L20.8418 7.83644Z" stroke="#71717A" stroke-width="1.5" stroke-linecap="round" stroke-linejoin="round"/>
</svg>
