<svg xmlns="http://www.w3.org/2000/svg" width="16" height="16" fill="none" viewBox="0 0 16 16">
  <path stroke="#3F3F46" stroke-linecap="round" stroke-linejoin="round"
    d="M.5 14.509a3.674 3.674 0 0 0 3-1 3.03 3.03 0 0 0 4.5 0 3.03 3.03 0 0 0 4.5 0 3.675 3.675 0 0 0 2.974 1.003M14.504 12.514c.4-.368.724-.81.953-1.303A.5.5 0 0 0 15 10.51H1a.5.5 0 0 0-.458.702 4.303 4.303 0 0 0 1.172 1.501M7.5 10.508v-2.05M7.34.859c.104.144.16.317.16.494L7.499 8.5l-5.566.008a.5.5 0 0 1-.42-.774L5.978.85A.845.845 0 0 1 7.34.86ZM10.42 2.94a.5.5 0 0 0-.92.271V8.51h3.584a.5.5 0 0 0 .42-.771L10.42 2.941Z" />
</svg>