<svg xmlns="http://www.w3.org/2000/svg" width="32" height="32" fill="none" viewBox="0 0 32 32">
  <path stroke="#3F3F46" stroke-linecap="round" stroke-linejoin="round" stroke-width="2"
    d="M1 30.017a7.348 7.348 0 0 0 6-2 6.063 6.063 0 0 0 9 0 6.062 6.062 0 0 0 9 0 7.348 7.348 0 0 0 5.949 2.007M29.01 26.028a8.305 8.305 0 0 0 1.905-2.605A1 1 0 0 0 30 22.017H2a1 1 0 0 0-.915 1.406 8.607 8.607 0 0 0 2.344 3.001M15 22.017v-5.1M14.68 1.717c.209.288.32.634.32.99l-.002 14.292-11.131.016a1 1 0 0 1-.839-1.548l8.927-13.768a1.69 1.69 0 0 1 2.726.018ZM20.842 6.881A1 1 0 0 0 19 7.423v10.594h7.168a1.002 1.002 0 0 0 .84-1.541l-6.167-9.595Z" />
</svg>