<svg width="24" height="25" viewBox="0 0 24 25" fill="none" xmlns="http://www.w3.org/2000/svg">
<path d="M0.750458 23.2621C1.56486 23.3628 2.39149 23.2805 3.17 23.021C3.94851 22.7615 4.65923 22.3314 5.25027 21.7621C5.67658 22.2343 6.19723 22.6118 6.77856 22.8701C7.3599 23.1285 7.98898 23.262 8.62514 23.262C9.2613 23.262 9.89038 23.1285 10.4717 22.8701C11.053 22.6118 11.5737 22.2343 12 21.7621C12.4263 22.2343 12.947 22.6118 13.5283 22.8701C14.1096 23.1285 14.7387 23.262 15.3749 23.262C16.011 23.262 16.6401 23.1285 17.2214 22.8701C17.8028 22.6118 18.3234 22.2343 18.7497 21.7621C19.3408 22.3314 20.0515 22.7615 20.83 23.021C21.5961 23.2764 22.4089 23.3602 23.2107 23.2667" stroke="#71717A" stroke-width="1.5" stroke-linecap="round" stroke-linejoin="round"/>
<path d="M21.7565 20.2702C22.356 19.7186 22.8415 19.0548 23.1854 18.3163C23.2361 18.202 23.2574 18.077 23.2474 17.9525C23.2375 17.8279 23.1965 17.7079 23.1284 17.6032C23.0602 17.4985 22.967 17.4124 22.8572 17.3529C22.7473 17.2934 22.6244 17.2622 22.4995 17.2623H1.50031C1.37538 17.2622 1.25242 17.2934 1.14258 17.3529C1.03275 17.4124 0.939525 17.4985 0.871377 17.6032C0.80323 17.7079 0.762318 17.8279 0.752357 17.9525C0.742397 18.077 0.763703 18.202 0.81434 18.3163C1.22493 19.1887 1.82569 19.9579 2.57233 20.5675" stroke="#71717A" stroke-width="1.5" stroke-linecap="round" stroke-linejoin="round"/>
<path d="M11.25 17.2623V12.687" stroke="#71717A" stroke-width="1.5" stroke-linecap="round" stroke-linejoin="round"/>
<path d="M11.0103 1.28782C11.1663 1.50381 11.2502 1.76348 11.2501 2.02991L11.2481 12.7485L2.90045 12.7605C2.76508 12.7608 2.63215 12.7244 2.51577 12.6553C2.39938 12.5861 2.30388 12.4868 2.2394 12.3678C2.17491 12.2487 2.14384 12.1145 2.14949 11.9792C2.15514 11.844 2.19729 11.7128 2.27148 11.5995L8.9662 1.27394C9.1251 1.06008 9.34737 0.90176 9.60142 0.821483C9.85546 0.741206 10.1283 0.743059 10.3813 0.826779C10.6342 0.910498 10.8543 1.07182 11.0103 1.28782Z" stroke="#71717A" stroke-width="1.5" stroke-linecap="round" stroke-linejoin="round"/>
<path d="M15.6309 5.91075C15.5432 5.77437 15.4138 5.67005 15.2619 5.61341C15.11 5.55678 14.9439 5.55088 14.7883 5.5966C14.6328 5.64232 14.4963 5.7372 14.3992 5.86702C14.3022 5.99685 14.2498 6.15463 14.2499 6.31673V14.2624H19.6257C19.7603 14.2621 19.8924 14.2257 20.0081 14.1569C20.1238 14.0881 20.2189 13.9894 20.2834 13.8712C20.3479 13.7531 20.3795 13.6197 20.3748 13.4852C20.3701 13.3506 20.3293 13.2198 20.2567 13.1065L15.6309 5.91075Z" stroke="#71717A" stroke-width="1.5" stroke-linecap="round" stroke-linejoin="round"/>
</svg>
