<svg width="32" height="32" viewBox="0 0 32 32" fill="none" xmlns="http://www.w3.org/2000/svg">
<path d="M11.0029 31H19.0029" stroke="#71717A" stroke-width="1.5" stroke-linecap="round" stroke-linejoin="round"/>
<path d="M15.0029 31V18" stroke="#71717A" stroke-width="1.5" stroke-linecap="round" stroke-linejoin="round"/>
<path d="M9.00293 7L6.55493 2.10533C6.38875 1.77309 6.13333 1.4937 5.81729 1.29847C5.50125 1.10324 5.13708 0.999889 4.7656 1L1.07031 1" stroke="#71717A" stroke-width="1.5" stroke-linecap="round" stroke-linejoin="round"/>
<path d="M24.9525 6.99999C25.0921 7.00028 25.2301 7.02971 25.3576 7.0864C25.4852 7.1431 25.5995 7.2258 25.6933 7.32922C25.787 7.43264 25.8582 7.5545 25.9021 7.687C25.9461 7.81949 25.9619 7.9597 25.9485 8.09866C25.6753 10.8119 24.4042 13.327 22.3817 15.1561C20.3592 16.9852 17.7294 17.998 15.0025 17.998C12.2755 17.998 9.64579 16.9852 7.62327 15.1561C5.60076 13.327 4.32965 10.8119 4.05649 8.09866C4.04293 7.9596 4.05858 7.81924 4.10244 7.68659C4.14629 7.55393 4.21739 7.43191 4.31117 7.32834C4.40495 7.22477 4.51933 7.14194 4.647 7.08517C4.77466 7.02839 4.91278 6.99893 5.05249 6.99866L24.9525 6.99999Z" stroke="#71717A" stroke-width="1.5" stroke-linecap="round" stroke-linejoin="round"/>
<path d="M21.1039 7.00798C20.8955 5.99664 21.0053 4.94558 21.4181 3.9991C21.8309 3.05263 22.5266 2.25713 23.4096 1.72183C24.2926 1.18653 25.3197 0.937666 26.3498 1.0094C27.3799 1.08114 28.3625 1.46995 29.1628 2.12248C29.9631 2.775 30.5418 3.65924 30.8194 4.6538C31.0971 5.64836 31.0601 6.70448 30.7136 7.67719C30.367 8.64989 29.7279 9.49148 28.8839 10.0864C28.0399 10.6814 27.0325 11.0005 25.9999 11" stroke="#71717A" stroke-width="1.5" stroke-linecap="round" stroke-linejoin="round"/>
</svg>
