<svg width="25" height="25" viewBox="0 0 25 25" fill="none" xmlns="http://www.w3.org/2000/svg">
<path d="M8.59474 24.2179H14.844" stroke="#71717A" stroke-width="1.5" stroke-linecap="round" stroke-linejoin="round"/>
<path d="M11.7194 24.2179V14.0629" stroke="#71717A" stroke-width="1.5" stroke-linecap="round" stroke-linejoin="round"/>
<path d="M7.03243 5.47018L5.12016 1.64669C4.99035 1.38716 4.79083 1.16891 4.54395 1.0164C4.29707 0.863899 4.0126 0.783166 3.72241 0.783253L0.862525 0.783253" stroke="#71717A" stroke-width="1.5" stroke-linecap="round" stroke-linejoin="round"/>
<path d="M19.491 5.47017C19.6 5.4704 19.7078 5.49339 19.8075 5.53767C19.9071 5.58196 19.9964 5.64656 20.0697 5.72735C20.1429 5.80814 20.1985 5.90333 20.2328 6.00683C20.2671 6.11033 20.2795 6.21986 20.269 6.3284C20.0556 8.44785 19.0627 10.4125 17.4828 11.8413C15.9029 13.2702 13.8487 14.0613 11.7185 14.0613C9.58834 14.0613 7.53409 13.2702 5.95419 11.8413C4.3743 10.4125 3.38137 8.44785 3.16799 6.3284C3.15739 6.21978 3.16961 6.11014 3.20387 6.00651C3.23813 5.90289 3.29367 5.80757 3.36693 5.72666C3.44018 5.64576 3.52954 5.58106 3.62926 5.53671C3.72898 5.49236 3.83688 5.46934 3.94602 5.46913L19.491 5.47017Z" stroke="#71717A" stroke-width="1.5" stroke-linecap="round" stroke-linejoin="round"/>
<path d="M16.4857 5.47642C16.3229 4.6864 16.4086 3.86536 16.7311 3.12602C17.0536 2.38667 17.597 1.76527 18.2868 1.34712C18.9765 0.928963 19.7788 0.73456 20.5835 0.790596C21.3882 0.846632 22.1558 1.15036 22.7809 1.66008C23.4061 2.1698 23.8581 2.86053 24.075 3.63743C24.2919 4.41434 24.263 5.23934 23.9923 5.99917C23.7216 6.759 23.2223 7.41641 22.563 7.88115C21.9038 8.34589 21.1168 8.59518 20.3102 8.59479" stroke="#71717A" stroke-width="1.5" stroke-linecap="round" stroke-linejoin="round"/>
</svg>
