<svg width="42" height="28" viewBox="0 0 42 28" fill="none" xmlns="http://www.w3.org/2000/svg">
<path d="M18.0449 3.04517L19.9998 5.00006L21.9547 3.04517" stroke="#9BA8BA" stroke-width="2" stroke-linecap="round" stroke-linejoin="round"/>
<path d="M1 27H41" stroke="#9BA8BA" stroke-width="2" stroke-linecap="round" stroke-linejoin="round"/>
<path d="M4 14V27" stroke="#9BA8BA" stroke-width="2" stroke-linecap="round" stroke-linejoin="round"/>
<path d="M20 14V27" stroke="#9BA8BA" stroke-width="2" stroke-linecap="round" stroke-linejoin="round"/>
<path d="M15 27L15 20C15 19.4477 14.5523 19 14 19H10C9.44772 19 9 19.4477 9 20L9 27" stroke="#9BA8BA" stroke-width="2" stroke-linecap="round" stroke-linejoin="round"/>
<path d="M1 16L12 7L23 16" stroke="#9BA8BA" stroke-width="2" stroke-linecap="round" stroke-linejoin="round"/>
<path d="M36 14.5L39 20H27L30 14.5H27L30.7 8.5H27.7L33 1L38.5 8.5H35.5L39 14.5H36Z" stroke="#9BA8BA" stroke-width="2" stroke-linecap="round" stroke-linejoin="round"/>
<path d="M33 20V27" stroke="#9BA8BA" stroke-width="2" stroke-linecap="round" stroke-linejoin="round"/>
</svg>
