<svg xmlns="http://www.w3.org/2000/svg" width="42" height="28" fill="none" viewBox="0 0 42 28">
  <path stroke="#3F3F46" stroke-linecap="round" stroke-linejoin="round" stroke-width="2"
    d="m6.938 23.375 3.75-16.148a5.625 5.625 0 0 1 5.51-4.477h9.603a5.625 5.625 0 0 1 5.5 4.478l3.75 16.147" />
  <path stroke="#3F3F46" stroke-linecap="round" stroke-linejoin="round" stroke-width="2"
    d="M7 23.375h3.688l3.75-12.188v12.188a1.875 1.875 0 0 0 1.874 1.875h9.375a1.875 1.875 0 0 0 1.875-1.875V11.187l3.75 12.188H35M14.438 21.5h13.124M16.199 2.75S16.312 7.438 21 7.438s4.801-4.688 4.801-4.688" />
</svg>