<svg width="42" height="30" viewBox="0 0 42 30" fill="none" xmlns="http://www.w3.org/2000/svg">
  <g stroke="#9BA8BA" stroke-width="2" stroke-linecap="round" stroke-linejoin="round">
    <path
      d="M6.9375 24.375L10.6875 8.2275C10.9513 6.96133 11.6435 5.82476 12.6473 5.00921C13.6512 4.19366 14.9054 3.74896 16.1987 3.75H25.8012C27.0927 3.75154 28.3443 4.19742 29.3458 5.01275C30.3473 5.82809 31.0378 6.96322 31.3012 8.2275L35.0512 24.375" />
    <path
      d="M7 24.375H10.6875L14.4375 12.1875V24.375C14.4375 24.8723 14.635 25.3492 14.9867 25.7008C15.3383 26.0525 15.8152 26.25 16.3125 26.25H25.6875C26.1848 26.25 26.6617 26.0525 27.0133 25.7008C27.365 25.3492 27.5625 24.8723 27.5625 24.375V12.1875L31.3125 24.375H35" />
    <path d="M14.4375 22.5H27.5625" />
    <path
      d="M16.1987 3.75C16.1987 3.75 16.3125 8.4375 21 8.4375C25.6875 8.4375 25.8012 3.75 25.8012 3.75" />
  </g>
</svg>