<svg xmlns="http://www.w3.org/2000/svg" width="32" height="32" fill="none" viewBox="0 0 32 32">
  <path stroke="#3F3F46" stroke-linecap="round" stroke-linejoin="round" stroke-width="2"
    d="M16.514 21.233a2.635 2.635 0 1 0 0-5.27 2.635 2.635 0 0 0 0 5.27ZM23.536 9.048a11.84 11.84 0 0 1 4.706 7.825M4.775 16.948a11.848 11.848 0 0 1 4.693-7.882M11.004 29.095a11.848 11.848 0 0 0 10.574.223" />
  <path stroke="#3F3F46" stroke-linecap="round" stroke-linejoin="round" stroke-width="2"
    d="m15.618 16.122-1.56-1.334a3.867 3.867 0 0 1-1.076-4.354l3.152-7.938a1.496 1.496 0 0 1 2.899.627l-1.032 13.303M14.816 20.613l-.378 2.02a3.857 3.857 0 0 1-3.238 3.11L2.755 26.98a1.498 1.498 0 0 1-.908-2.824l12.036-5.76M19.107 19.067l1.939-.683a3.86 3.86 0 0 1 4.31 1.245l5.294 6.696a1.498 1.498 0 0 1-1.992 2.198L17.651 20.98" />
</svg>