<svg xmlns="http://www.w3.org/2000/svg" width="24" height="24" fill="none" viewBox="0 0 24 24">
  <path stroke="#3F3F46" stroke-linecap="round" stroke-linejoin="round" stroke-width="1.5"
    d="M12.385 15.925a1.976 1.976 0 1 0 0-3.952 1.976 1.976 0 0 0 0 3.952ZM17.65 6.786a8.882 8.882 0 0 1 3.536 5.909M3.581 12.71a8.886 8.886 0 0 1 3.523-5.913M8.253 21.821a8.885 8.885 0 0 0 7.94.163" />
  <path stroke="#3F3F46" stroke-linecap="round" stroke-linejoin="round" stroke-width="1.5"
    d="m11.712 12.091-1.17-1a2.9 2.9 0 0 1-.807-3.266L12.1 1.872a1.122 1.122 0 0 1 2.174.47L13.5 12.32M11.112 15.46l-.284 1.515A2.893 2.893 0 0 1 8.4 19.307l-6.334.928a1.123 1.123 0 0 1-.681-2.118l9.027-4.32M14.33 14.3l1.454-.512a2.894 2.894 0 0 1 3.232.934l3.97 5.022a1.123 1.123 0 0 1-1.493 1.648l-8.255-5.657" />
</svg>