<svg width="24" height="24" fill="none" xmlns="http://www.w3.org/2000/svg"><path d="M22.5 14H1M1 16v-3.846c0-.408.225-.865.5-1.154.275-.289.648-.45 1.037-.45h11L15.665 6l6.189 4.544c.574.419.969 1.058 1.099 1.779a2.912 2.912 0 0 1-.405 2.077L21.57 16" stroke="#47474F" stroke-width="1.5" stroke-linecap="round" stroke-linejoin="round"/><path d="M14.5 8H7.017a2 2 0 0 0-1.775 1.077l-.74 1.423M14.5 8 13 4h-2.25M22.81 20.537A5.511 5.511 0 0 1 18.75 19 4.547 4.547 0 0 1 12 19a4.547 4.547 0 0 1-6.75 0 5.51 5.51 0 0 1-4.063 1.537" stroke="#47474F" stroke-width="1.5" stroke-linecap="round" stroke-linejoin="round"/></svg>