<svg width="16" height="16" fill="none" xmlns="http://www.w3.org/2000/svg"><path d="M14.5 10H1M15 13.973a3.297 3.297 0 0 1-1.506-.156A3.406 3.406 0 0 1 12.2 13c-.265.306-.59.55-.951.718a2.733 2.733 0 0 1-2.298 0A2.839 2.839 0 0 1 8 13c-.265.306-.59.55-.951.718a2.734 2.734 0 0 1-2.298 0A2.839 2.839 0 0 1 3.8 13c-.368.37-.81.648-1.294.817A3.297 3.297 0 0 1 1 13.973M1 11.5V8.307c0-.285.098-.56.273-.761a.875.875 0 0 1 .66-.315h7L10.333 4l3.938 3.18c.366.294.617.74.7 1.246a2.208 2.208 0 0 1-.258 1.454L13.5 11.5" stroke="#47474F" stroke-width="1.5" stroke-linecap="round" stroke-linejoin="round"/><path d="M9.5 5H5.592a2 2 0 0 0-1.684.921L3.218 7M9 5 7.5 2H6" stroke="#47474F" stroke-width="1.5" stroke-linecap="round" stroke-linejoin="round"/></svg>