<svg xmlns="http://www.w3.org/2000/svg" width="32" height="32" fill="none" viewBox="0 0 32 32">
  <path stroke="#3F3F46" stroke-linecap="round" stroke-linejoin="round" stroke-width="2"
    d="M21.758 1.586a2 2 0 0 0 0 2.828l5.828 5.828a2.002 2.002 0 0 0 2.83 0 1.998 1.998 0 0 0 0-2.828l-5.83-5.828a2 2 0 0 0-2.828 0Z" />
  <path stroke="#3F3F46" stroke-linecap="round" stroke-linejoin="round" stroke-width="2"
    d="M16.1 1.584a2 2 0 0 0 0 2.829L27.587 15.9a2.002 2.002 0 1 0 2.828-2.834L18.934 1.584a2 2 0 0 0-2.834 0ZM1.587 21.757a2 2 0 0 1 2.829 0l5.828 5.828a2 2 0 0 1-2.828 2.828l-5.83-5.828a2 2 0 0 1 0-2.828Z" />
  <path stroke="#3F3F46" stroke-linecap="round" stroke-linejoin="round" stroke-width="2"
    d="M1.586 16.099a2 2 0 0 1 2.828 0l11.487 11.486a2.002 2.002 0 0 1-2.834 2.83L1.586 18.933a2 2 0 0 1 0-2.834Z" />
  <path stroke="#3F3F46" stroke-linecap="round" stroke-linejoin="round" stroke-width="2"
    d="M20.43 8.742 8.742 20.428l2.829 2.829L23.258 11.57l-2.829-2.829Z" />
</svg>