<svg xmlns="http://www.w3.org/2000/svg" width="24" height="24" fill="none" viewBox="0 0 24 24">
  <path stroke="#3F3F46" stroke-linecap="round" stroke-linejoin="round" stroke-width="1.5"
    d="M16.318 1.189a1.5 1.5 0 0 0 0 2.12l4.371 4.372a1.5 1.5 0 0 0 2.122-2.121L18.44 1.189a1.5 1.5 0 0 0-2.12 0Z" />
  <path stroke="#3F3F46" stroke-linecap="round" stroke-linejoin="round" stroke-width="1.5"
    d="M12.075 1.188a1.5 1.5 0 0 0 0 2.122l8.615 8.615A1.502 1.502 0 0 0 22.81 9.8L14.2 1.188a1.5 1.5 0 0 0-2.125 0ZM1.19 16.318a1.5 1.5 0 0 1 2.121 0l4.371 4.371a1.5 1.5 0 0 1-2.12 2.121l-4.373-4.37a1.5 1.5 0 0 1 0-2.122Z" />
  <path stroke="#3F3F46" stroke-linecap="round" stroke-linejoin="round" stroke-width="1.5"
    d="M1.189 12.074a1.5 1.5 0 0 1 2.12 0l8.616 8.615A1.502 1.502 0 0 1 9.8 22.81L1.189 14.2a1.5 1.5 0 0 1 0-2.126ZM15.321 6.557 6.557 15.32l2.121 2.121 8.764-8.764-2.12-2.121Z" />
</svg>