<svg width="25" height="25" viewBox="0 0 25 25" fill="none" xmlns="http://www.w3.org/2000/svg">
<path d="M16.9977 1.2416C16.7048 1.53455 16.5403 1.93183 16.5403 2.34607C16.5403 2.76031 16.7048 3.15758 16.9977 3.45054L21.5499 8.00277C21.695 8.14788 21.8672 8.263 22.0567 8.34156C22.2462 8.42011 22.4494 8.46057 22.6546 8.46062C22.8597 8.46067 23.0629 8.42031 23.2525 8.34184C23.442 8.26337 23.6143 8.14833 23.7594 8.00329C23.9045 7.85825 24.0196 7.68604 24.0982 7.49651C24.1767 7.30698 24.2172 7.10383 24.2173 6.89867C24.2173 6.6935 24.1769 6.49033 24.0985 6.30076C24.02 6.11119 23.905 5.93894 23.7599 5.79383L19.2066 1.2416C18.9137 0.948734 18.5164 0.784211 18.1022 0.784211C17.6879 0.784211 17.2907 0.948734 16.9977 1.2416Z" stroke="#71717A" stroke-width="1.5" stroke-linecap="round" stroke-linejoin="round"/>
<path d="M12.5781 1.24057C12.433 1.38565 12.3178 1.55791 12.2392 1.74751C12.1607 1.9371 12.1202 2.14033 12.1202 2.34556C12.1202 2.5508 12.1607 2.75402 12.2392 2.94362C12.3178 3.13322 12.433 3.30548 12.5781 3.45055L21.5503 12.4227C21.6956 12.5678 21.8681 12.6828 22.0578 12.7612C22.2476 12.8396 22.4509 12.8798 22.6563 12.8796C22.8616 12.8794 23.0648 12.8388 23.2544 12.76C23.444 12.6813 23.6163 12.566 23.7613 12.4207C23.9064 12.2753 24.0214 12.1029 24.0998 11.9131C24.1782 11.7234 24.2184 11.52 24.2182 11.3147C24.218 11.1094 24.1774 10.9061 24.0986 10.7165C24.0199 10.5269 23.9046 10.3547 23.7593 10.2096L14.7912 1.24057C14.6461 1.09493 14.4736 0.979377 14.2837 0.90053C14.0939 0.821683 13.8903 0.781096 13.6847 0.781096C13.4791 0.781096 13.2755 0.821683 13.0856 0.90053C12.8957 0.979377 12.7233 1.09493 12.5781 1.24057Z" stroke="#71717A" stroke-width="1.5" stroke-linecap="round" stroke-linejoin="round"/>
<path d="M1.24154 16.9979C1.38661 16.8527 1.55887 16.7375 1.74847 16.659C1.93807 16.5804 2.14129 16.54 2.34653 16.54C2.55176 16.54 2.75498 16.5804 2.94458 16.659C3.13418 16.7375 3.30644 16.8527 3.45152 16.9979L8.00375 21.5501C8.28831 21.8447 8.44577 22.2394 8.44221 22.649C8.43865 23.0586 8.27436 23.4504 7.98472 23.74C7.69507 24.0297 7.30325 24.194 6.89365 24.1975C6.48405 24.2011 6.08944 24.0436 5.79481 23.759L1.24154 19.2068C0.94867 18.9139 0.784147 18.5166 0.784147 18.1023C0.784147 17.6881 0.94867 17.2908 1.24154 16.9979Z" stroke="#71717A" stroke-width="1.5" stroke-linecap="round" stroke-linejoin="round"/>
<path d="M1.24109 12.5779C1.53405 12.2851 1.93133 12.1205 2.34556 12.1205C2.7598 12.1205 3.15708 12.2851 3.45003 12.5779L12.4222 21.5501C12.7153 21.8436 12.8798 22.2415 12.8795 22.6562C12.8792 23.0709 12.7141 23.4686 12.4207 23.7617C12.1272 24.0547 11.7293 24.2192 11.3146 24.2189C10.8998 24.2186 10.5022 24.0536 10.2091 23.7601L1.24109 14.7921C1.0953 14.6469 0.979611 14.4744 0.900672 14.2844C0.821732 14.0944 0.781096 13.8907 0.781096 13.685C0.781096 13.4793 0.821732 13.2756 0.900672 13.0856C0.979611 12.8956 1.0953 12.7231 1.24109 12.5779Z" stroke="#71717A" stroke-width="1.5" stroke-linecap="round" stroke-linejoin="round"/>
<path d="M15.9595 6.83186L6.83154 15.9598L9.04081 18.1691L18.1688 9.04113L15.9595 6.83186Z" stroke="#71717A" stroke-width="1.5" stroke-linecap="round" stroke-linejoin="round"/>
</svg>
