<svg xmlns="http://www.w3.org/2000/svg" width="24" height="24" fill="none" viewBox="0 0 24 24">
  <path stroke="#3F3F46" stroke-linecap="round" stroke-linejoin="round" stroke-width="1.5"
    d="M22.5 21v.667c0 .736-.597 1.333-1.333 1.333H8.129a2.667 2.667 0 0 1-2.6-2.076L1.37 2.63A1.333 1.333 0 0 1 2.67 1h2.774c.619 0 1.156.426 1.298 1.028L10.5 18h9a3 3 0 0 1 3 3ZM13.5 14.375h-6" />
  <path stroke="#3F3F46" stroke-linecap="round" stroke-linejoin="round" stroke-width="1.5"
    d="M6.968 3H9a1 1 0 0 1 1 1v2L8 7.5" />
</svg>