<svg xmlns="http://www.w3.org/2000/svg" width="32" height="32" fill="none" viewBox="0 0 32 32">
  <path stroke="#3F3F46" stroke-linecap="round" stroke-linejoin="round" stroke-width="2"
    d="M30 26.667v2.666c0 .737-.597 1.334-1.333 1.334H10.129a2.667 2.667 0 0 1-2.6-2.076L1.703 2.962a1.333 1.333 0 0 1 1.3-1.629H7.61c.619 0 1.156.426 1.298 1.028L14 24h13.334A2.667 2.667 0 0 1 30 26.667Z" />
  <path stroke="#3F3F46" stroke-linecap="round" stroke-linejoin="round" stroke-width="2"
    d="M9.29 4H12c.737 0 1.334.597 1.334 1.333V8l-2.667 2M18 19.166H10.001" />
</svg>