<svg width="16" height="16" fill="none" xmlns="http://www.w3.org/2000/svg"><path d="M3.333 9.333V2.667a1 1 0 0 1 1-1h7.334a1 1 0 0 1 1 1v6.666" stroke="#47474F" stroke-width="1.5" stroke-linecap="round" stroke-linejoin="round"/><path fill-rule="evenodd" clip-rule="evenodd" d="M1.25 10.334c0-.967.784-1.75 1.75-1.75h10c.966 0 1.75.783 1.75 1.75V12a.75.75 0 0 1-.75.75H2a.75.75 0 0 1-.75-.75v-1.666Zm1.75-.25a.25.25 0 0 0-.25.25v.916h10.5v-.916a.25.25 0 0 0-.25-.25H3Z" fill="#47474F"/><path d="M10.666 12v2.333M12.666 6.667h1.667M1.667 6.667h1.666M5.333 12v2.333M7.333 4h1.334" stroke="#47474F" stroke-width="1.5" stroke-linecap="round" stroke-linejoin="round"/></svg>