<svg width="24" height="24" fill="none" xmlns="http://www.w3.org/2000/svg"><path d="M5 14V4a1.5 1.5 0 0 1 1.5-1.5h11A1.5 1.5 0 0 1 19 4v10" stroke="#47474F" stroke-width="1.5" stroke-linecap="round" stroke-linejoin="round"/><path fill-rule="evenodd" clip-rule="evenodd" d="M2.25 15.5a2.25 2.25 0 0 1 2.25-2.25h15a2.25 2.25 0 0 1 2.25 2.25V18a.75.75 0 0 1-.75.75H3a.75.75 0 0 1-.75-.75v-2.5Zm2.25-.75a.75.75 0 0 0-.75.75v1.75h16.5V15.5a.75.75 0 0 0-.75-.75h-15Z" fill="#47474F"/><path d="M16 18v3.5M19 10h2.5M2.5 10H5M8 18v3.5M11 6h2" stroke="#47474F" stroke-width="1.5" stroke-linecap="round" stroke-linejoin="round"/></svg>