<svg xmlns="http://www.w3.org/2000/svg" width="16" height="16" fill="none" viewBox="0 0 16 16">
  <path stroke="#3F3F46" stroke-width="1.5"
    d="M6.468 1.862a1.985 1.985 0 0 1 3.064 0c.42.51 1.067.778 1.725.714a1.985 1.985 0 0 1 2.167 2.167 1.985 1.985 0 0 0 .714 1.725c.965.793.965 2.27 0 3.064a1.985 1.985 0 0 0-.714 1.725 1.984 1.984 0 0 1-2.167 2.167 1.985 1.985 0 0 0-1.725.714 1.985 1.985 0 0 1-3.064 0 1.985 1.985 0 0 0-1.725-.714 1.985 1.985 0 0 1-2.167-2.167 1.985 1.985 0 0 0-.714-1.725 1.985 1.985 0 0 1 0-3.064c.51-.42.778-1.067.714-1.725a1.985 1.985 0 0 1 2.167-2.167 1.985 1.985 0 0 0 1.725-.714Z" />
  <path stroke="#3F3F46" stroke-linecap="round" stroke-width="1.5"
    d="m5.5 8.5 1.185 1.185a1 1 0 0 0 1.507-.107L10.5 6.5" />
</svg>