<svg xmlns="http://www.w3.org/2000/svg" width="24" height="24" fill="none" viewBox="0 0 24 24">
  <path stroke="#3F3F46" stroke-width="1.5"
    d="M10.456 1.877a2 2 0 0 1 3.088 0l1.085 1.318a2 2 0 0 0 1.738.72l1.7-.165a2 2 0 0 1 2.183 2.184l-.165 1.7a2 2 0 0 0 .72 1.737l1.319 1.085a2 2 0 0 1 0 3.088l-1.319 1.085a2 2 0 0 0-.72 1.738l.165 1.7a2 2 0 0 1-2.184 2.183l-1.7-.165a2 2 0 0 0-1.737.72l-1.085 1.319a2 2 0 0 1-3.088 0L9.37 20.805a2 2 0 0 0-1.738-.72l-1.7.165a2 2 0 0 1-2.183-2.184l.165-1.7a2 2 0 0 0-.72-1.737l-1.318-1.085a2 2 0 0 1 0-3.088L3.195 9.37a2 2 0 0 0 .72-1.738l-.165-1.7A2 2 0 0 1 5.934 3.75l1.7.165a2 2 0 0 0 1.737-.72l1.085-1.318Z" />
  <path stroke="#3F3F46" stroke-linecap="round" stroke-width="1.5"
    d="m8.25 12.75 2.185 2.185a1 1 0 0 0 1.507-.107L15.75 9.75" />
</svg>