<svg xmlns="http://www.w3.org/2000/svg" width="32" height="32" fill="none" viewBox="0 0 32 32">
  <path stroke="#3F3F46" stroke-width="2"
    d="M14.007 2.488a2.667 2.667 0 0 1 4.112 0l1.467 1.777a2.667 2.667 0 0 0 2.313.955l2.297-.222a2.667 2.667 0 0 1 2.91 2.913l-.22 2.263a2.667 2.667 0 0 0 .963 2.32l1.76 1.444a2.667 2.667 0 0 1 0 4.124l-1.76 1.443a2.667 2.667 0 0 0-.963 2.321l.22 2.263a2.667 2.667 0 0 1-2.91 2.913l-2.297-.223a2.667 2.667 0 0 0-2.313.956l-1.467 1.777a2.667 2.667 0 0 1-4.112 0l-1.468-1.777a2.667 2.667 0 0 0-2.312-.956l-2.297.223a2.667 2.667 0 0 1-2.91-2.913l.22-2.263a2.667 2.667 0 0 0-.964-2.32l-1.76-1.444a2.667 2.667 0 0 1 0-4.124l1.76-1.443a2.667 2.667 0 0 0 .964-2.321L5.02 7.91a2.667 2.667 0 0 1 2.91-2.913l2.297.222a2.667 2.667 0 0 0 2.312-.955l1.468-1.777Z" />
  <path stroke="#3F3F46" stroke-linecap="round" stroke-width="2"
    d="m11 16.12 3.05 3.038c.574.572 1.52.504 2.007-.142L21.34 12" />
</svg>