<svg xmlns="http://www.w3.org/2000/svg" width="33" height="32" fill="none" viewBox="0 0 33 32">
  <path stroke="#3F3F46" stroke-width="2"
    d="M14.895 2.01a2.667 2.667 0 0 1 4.111 0l1.6 1.937a2.667 2.667 0 0 0 2.313.955l2.504-.242a2.667 2.667 0 0 1 2.91 2.913l-.24 2.469a2.666 2.666 0 0 0 .964 2.321l1.92 1.575a2.667 2.667 0 0 1 0 4.125l-1.92 1.574a2.667 2.667 0 0 0-.964 2.322l.24 2.468a2.667 2.667 0 0 1-2.91 2.913l-2.504-.242a2.667 2.667 0 0 0-2.313.956l-1.6 1.937a2.667 2.667 0 0 1-4.111 0l-1.6-1.937a2.667 2.667 0 0 0-2.313-.956l-2.504.242a2.667 2.667 0 0 1-2.91-2.913l.24-2.468a2.667 2.667 0 0 0-.964-2.322l-1.921-1.574a2.667 2.667 0 0 1 0-4.125l1.921-1.575a2.666 2.666 0 0 0 .964-2.321l-.24-2.469a2.667 2.667 0 0 1 2.91-2.913l2.504.242a2.667 2.667 0 0 0 2.313-.955l1.6-1.937Z" />
  <path stroke="#3F3F46" stroke-linecap="round" stroke-width="2"
    d="m11.78 17.03 3.052 3.039c.573.571 1.519.504 2.006-.143l5.282-7.016" />
</svg>