<svg xmlns="http://www.w3.org/2000/svg" width="42" height="28" fill="none" viewBox="0 0 42 28">
  <path fill="#0B6DFF"
    d="M31.303 1H10.456A2.456 2.456 0 0 0 8 3.456v20.847c0 1.357 1.1 2.456 2.456 2.456h20.848c1.356 0 2.455-1.1 2.455-2.456V3.456C33.76 2.099 32.66 1 31.303 1Z" />
  <path fill="#fff"
    d="m24.322 11.737-.569 3.326h-.001v.002h-.01l-.547-3.328h-.989l.84 4.218h1.396l.828-4.218h-.948ZM10.468 15.978h.96l.092-.558h.945l.092.558h.99l-.844-4.24H11.3l-.832 4.24Zm1.193-1.362.332-1.964h.012l.325 1.964h-.669Zm3.2 1.38c.304 0 .558-.097.758-.308h.017v.267h.825v-3.28h-.96v2.016c0 .261-.143.418-.377.418-.233 0-.359-.157-.359-.418v-2.016h-.937v2.248c0 .66.387 1.078 1.023 1.078m3.24.007c.206 0 .394-.03.558-.08v-.895a.836.836 0 0 1-.334.08c-.148 0-.247-.067-.247-.265V13.5h.603v-.826h-.603v-.647h-.66l-.018.158c-.047.43-.212.624-.572.745v.57h.313v1.514c0 .696.32.993.945.993m2.532 0c1 0 1.666-.672 1.666-1.683 0-1.011-.666-1.684-1.666-1.684-.999 0-1.671.678-1.671 1.684 0 1.005.666 1.684 1.671 1.684Zm-.702-1.683c0-.46.285-.77.703-.77.417 0 .696.31.696.77s-.285.769-.697.769c-.411 0-.702-.315-.702-.77Zm7.058 1.673c.34 0 .721-.06 1.036-.206v-.926c-.285.2-.648.29-.981.29-.436 0-.77-.163-.884-.538h2.12c.224-1.272-.424-1.975-1.448-1.975s-1.654.654-1.654 1.684c0 1.03.667 1.671 1.811 1.671Zm-.819-2.073c.097-.303.321-.49.648-.49s.57.17.612.49h-1.26Zm2.261 2.054h.988l.401-1.072h.012l.408 1.072h1.055l-.768-1.67.774-1.633h-.974l-.404 1.004h-.012l-.41-1.004h-1.07l.774 1.584-.774 1.719Z" />
</svg>