<svg xmlns="http://www.w3.org/2000/svg" width="42" height="28" fill="none" viewBox="0 0 42 28">
  <path stroke="#3F3F46" stroke-linecap="round" stroke-linejoin="round" stroke-width="2"
    d="M17.75 2.75h-7a1 1 0 0 0-1 1v7a1 1 0 0 0 1 1h7a1 1 0 0 0 1-1v-7a1 1 0 0 0-1-1ZM28.25 11.75a4.5 4.5 0 1 0 0-9 4.5 4.5 0 0 0 0 9ZM29.784 15.976a.886.886 0 0 0-1.572 0l-4.337 7.807a1.027 1.027 0 0 0-.007.976.905.905 0 0 0 .793.49h8.674a.905.905 0 0 0 .793-.49 1.027 1.027 0 0 0-.007-.976l-4.337-7.807ZM14.85 15.033a.779.779 0 0 0-1.2 0L9.94 19.47a.827.827 0 0 0 0 1.058l3.709 4.437a.778.778 0 0 0 1.2 0l3.708-4.437a.827.827 0 0 0 0-1.058l-3.706-4.437Z" />
</svg>