<svg xmlns="http://www.w3.org/2000/svg" width="32" height="32" fill="none" viewBox="0 0 32 32">
  <path stroke="#3F3F46" stroke-linecap="round" stroke-linejoin="round" stroke-width="2"
    d="M26 14.927a3.5 3.5 0 1 0 0-7 3.5 3.5 0 0 0 0 7ZM9.838 18.667l5.108-3.2-3.746-4.275A4 4 0 0 1 12.42 4.98l5.684-2.847a2 2 0 1 1 1.79 3.578L15.36 7.977a1.001 1.001 0 0 0-.295 1.555l7.133 8.152M31 22.666c-2 0-3 2-5 2s-3-2-5-2-3 2-5 2-3-2-5-2-3 2-5 2c-1.988 0-2.988-1.975-4.963-2M1 28c2 0 3 2 5 2s3-2 5-2 3 2 5 2 3-2 5-2 3 2 5 2c1.99 0 2.99-1.98 4.969-2" />
</svg>