<svg width="32" height="32" viewBox="0 0 32 32" fill="none" xmlns="http://www.w3.org/2000/svg">
<path d="M16.029 17.0132C9.93105 17.6585 4.36644 12.8714 4.55033 6.58194C4.5521 6.317 4.65859 6.06351 4.84656 5.87679C5.03453 5.69008 5.28873 5.58529 5.55367 5.58529C7.83419 5.56002 10.0681 6.22144 11.9658 7.48136" stroke="#71717A" stroke-width="1.5" stroke-linecap="round" stroke-linejoin="round"/>
<path d="M19.9405 7.56918C21.8596 6.26387 24.1299 5.57205 26.4508 5.58527C26.7154 5.58562 26.9691 5.69061 27.1566 5.87732C27.3441 6.06404 27.4501 6.31733 27.4515 6.58191C27.4912 7.97491 27.2555 9.36205 26.7581 10.6638C26.2606 11.9656 25.5112 13.1564 24.5526 14.1679C23.417 15.223 22.0686 16.0224 20.5981 16.5125C19.1805 16.985 17.6813 17.1594 16.1943 17.0255" stroke="#71717A" stroke-width="1.5" stroke-linecap="round" stroke-linejoin="round"/>
<path d="M26.049 19.7262C26.0039 22.4811 21.5231 24.7077 16.0025 24.7077C10.4819 24.7077 6.00103 22.4864 5.95605 19.7262" stroke="#71717A" stroke-width="1.5" stroke-linecap="round" stroke-linejoin="round"/>
<path d="M2.18353 15.6655C1.37926 16.8525 0.9431 18.2505 0.929688 19.6843C0.929688 25.2328 7.67713 29.727 15.9999 29.727C24.3227 29.727 31.0701 25.2288 31.0701 19.6802C31.0562 18.2586 30.6265 16.8725 29.8345 15.6925" stroke="#71717A" stroke-width="1.5" stroke-linecap="round" stroke-linejoin="round"/>
<path d="M16.0304 17.0132C13.611 15.0559 12.1259 12.0857 12.0117 8.97575C12.0878 6.18233 13.3072 3.46196 15.3419 1.54647C15.5259 1.36606 15.7734 1.26501 16.0311 1.26501C16.2888 1.26501 16.5363 1.36606 16.7203 1.54647C18.754 3.46255 19.9728 6.18262 20.0492 8.97575C19.935 12.0857 18.4499 15.0559 16.0304 17.0132Z" stroke="#71717A" stroke-width="1.5" stroke-linecap="round" stroke-linejoin="round"/>
</svg>
