<svg width="25" height="24" viewBox="0 0 25 24" fill="none" xmlns="http://www.w3.org/2000/svg">
<path d="M12.0214 12.631C7.46926 13.1127 3.31525 9.5391 3.45253 4.84401C3.45385 4.64623 3.53334 4.457 3.67367 4.31762C3.81399 4.17823 4.00374 4.1 4.20153 4.10001C5.88979 4.0813 7.54382 4.56672 8.95278 5.49206" stroke="#71717A" stroke-width="1.5" stroke-linecap="round" stroke-linejoin="round"/>
<path d="M14.942 5.58099C16.3747 4.60657 18.0694 4.09013 19.802 4.09999C19.9995 4.10025 20.1889 4.17863 20.3289 4.31801C20.4688 4.4574 20.548 4.64648 20.549 4.84399C20.5786 5.88388 20.4027 6.91938 20.0314 7.89115C19.6601 8.86293 19.1006 9.75186 18.385 10.507C17.5373 11.2946 16.5307 11.8914 15.4329 12.2573C14.3747 12.6099 13.2555 12.7401 12.1455 12.6402" stroke="#71717A" stroke-width="1.5" stroke-linecap="round" stroke-linejoin="round"/>
<path d="M19.5014 14.6563C19.4678 16.7129 16.1228 18.375 12.0017 18.375C7.88055 18.375 4.53553 16.7168 4.50195 14.6563" stroke="#71717A" stroke-width="1.5" stroke-linecap="round" stroke-linejoin="round"/>
<path d="M1.686 11.625C1.08561 12.5111 0.760012 13.5547 0.75 14.625C0.75 18.767 5.787 22.122 12 22.122C18.213 22.122 23.25 18.764 23.25 14.622C23.2396 13.5608 22.9189 12.526 22.3276 11.6451" stroke="#71717A" stroke-width="1.5" stroke-linecap="round" stroke-linejoin="round"/>
<path d="M12.0215 12.631C10.2154 11.1698 9.10674 8.95258 9.02148 6.63098C9.0783 4.54568 9.9886 2.51491 11.5075 1.08498C11.6449 0.950311 11.8296 0.874878 12.022 0.874878C12.2144 0.874878 12.3991 0.950311 12.5365 1.08498C14.0547 2.51535 14.9645 4.5459 15.0215 6.63098C14.9362 8.95258 13.8276 11.1698 12.0215 12.631Z" stroke="#71717A" stroke-width="1.5" stroke-linecap="round" stroke-linejoin="round"/>
</svg>
