<svg xmlns="http://www.w3.org/2000/svg" width="24" height="24" fill="none" viewBox="0 0 24 24">
  <path stroke="#3F3F46" stroke-linecap="round" stroke-linejoin="round" stroke-width="1.5"
    d="M12.021 12.76c-4.573.484-8.746-3.106-8.609-7.824a.753.753 0 0 1 .753-.747 8.524 8.524 0 0 1 4.81 1.422M14.955 5.677a8.595 8.595 0 0 1 4.883-1.488.751.751 0 0 1 .75.747 7.944 7.944 0 0 1-2.174 5.69 8.139 8.139 0 0 1-6.269 2.143M19.537 14.795c-.034 2.066-3.395 3.736-7.535 3.736-4.14 0-7.501-1.666-7.535-3.736" />
  <path stroke="#3F3F46" stroke-linecap="round" stroke-linejoin="round" stroke-width="1.5"
    d="M1.915 11.749A5.57 5.57 0 0 0 1 14.763c0 4.161 4.925 7.532 11 7.532s11-3.374 11-7.535a5.57 5.57 0 0 0-.902-2.99" />
  <path stroke="#3F3F46" stroke-linecap="round" stroke-linejoin="round" stroke-width="1.5"
    d="M12.023 12.76a8.196 8.196 0 0 1-3.014-6.028 8.023 8.023 0 0 1 2.497-5.572.739.739 0 0 1 1.034 0 8.027 8.027 0 0 1 2.497 5.572 8.195 8.195 0 0 1-3.014 6.028Z" />
</svg>