<svg xmlns="http://www.w3.org/2000/svg" width="32" height="32" fill="none" viewBox="0 0 32 32">
  <path stroke="#3F3F46" stroke-linecap="round" stroke-linejoin="round" stroke-width="2"
    d="M16.026 16.841C9.956 17.484 4.418 12.72 4.6 6.46a.999.999 0 0 1 .998-.992 11.312 11.312 0 0 1 6.335 1.856M19.92 7.441c1.91-1.3 4.17-1.988 6.48-1.975a.997.997 0 0 1 .997.992 10.542 10.542 0 0 1-2.886 7.551 10.8 10.8 0 0 1-8.32 2.844M26 19.541c-.045 2.743-4.505 4.959-10 4.959S6.045 22.289 6 19.54" />
  <path stroke="#3F3F46" stroke-linecap="round" stroke-linejoin="round" stroke-width="2"
    d="M2.246 15.5a7.252 7.252 0 0 0-1.248 4c0 5.523 6.716 9.996 15 9.996 8.284 0 15-4.477 15-10a7.25 7.25 0 0 0-1.23-3.97" />
  <path stroke="#3F3F46" stroke-linecap="round" stroke-linejoin="round" stroke-width="2"
    d="M16.025 16.841a10.876 10.876 0 0 1-4-8 10.647 10.647 0 0 1 3.315-7.394.98.98 0 0 1 1.372 0 10.652 10.652 0 0 1 3.313 7.394 10.876 10.876 0 0 1-4 8Z" />
</svg>