<svg xmlns="http://www.w3.org/2000/svg" width="16" height="16" fill="none" viewBox="0 0 16 16">
  <path stroke="#3F3F46" stroke-linecap="round" stroke-linejoin="round" stroke-width="1.5"
    d="M14.043 8.433a1.764 1.764 0 0 0-.647-1.029A1.925 1.925 0 0 0 12.211 7H3.788c-.432 0-.851.143-1.185.404a1.764 1.764 0 0 0-.647 1.03l-.921 4.444c-.054.258-.046.523.02.778.068.255.194.492.37.695.174.203.394.366.644.479.249.112.521.17.797.17h10.267c.276 0 .548-.058.797-.17.25-.113.47-.276.645-.479.175-.203.3-.44.368-.695.067-.255.075-.52.021-.778l-.921-4.445Z" />
  <path stroke="#3F3F46" stroke-linecap="round" stroke-linejoin="round" stroke-width="1.5"
    d="M11 15V3.5c0-.663-.317-1.299-.88-1.768C9.559 1.263 8.796 1 8 1c-.796 0-1.56.263-2.122.732C5.316 2.202 5 2.837 5 3.5V15" />
</svg>