<svg xmlns="http://www.w3.org/2000/svg" width="32" height="32" fill="none" viewBox="0 0 32 32">
  <path stroke="#3F3F46" stroke-linecap="round" stroke-linejoin="round" stroke-width="2"
    d="M28.087 16.867a3.528 3.528 0 0 0-1.293-2.059A3.85 3.85 0 0 0 24.423 14H7.578a3.85 3.85 0 0 0-2.371.808 3.529 3.529 0 0 0-1.293 2.059l-1.843 8.889a3.39 3.39 0 0 0 .042 1.556c.135.51.386.984.737 1.39.35.406.79.733 1.289.957A3.89 3.89 0 0 0 5.734 30h20.533a3.89 3.89 0 0 0 1.595-.34 3.714 3.714 0 0 0 1.29-.958c.35-.406.601-.88.736-1.39a3.39 3.39 0 0 0 .042-1.556l-1.843-8.889Z" />
  <path stroke="#3F3F46" stroke-linecap="round" stroke-linejoin="round" stroke-width="2"
    d="M22 30V7c0-1.326-.632-2.598-1.757-3.536C19.118 2.527 17.592 2 16.001 2c-1.592 0-3.118.527-4.243 1.464C10.633 4.402 10 5.674 10 7v23" />
</svg>