<svg xmlns="http://www.w3.org/2000/svg" width="32" height="32" fill="none" viewBox="0 0 32 32">
  <path stroke="#3F3F46" stroke-linecap="round" stroke-linejoin="round" stroke-width="2"
    d="M19.667 1H2.334C1.597 1 1 1.597 1 2.333v27.334C1 30.403 1.597 31 2.334 31h17.333c.736 0 1.333-.597 1.333-1.333V2.333C21 1.597 20.404 1 19.668 1Z" />
  <path stroke="#3F3F46" stroke-linecap="round" stroke-linejoin="round" stroke-width="2"
    d="M17 7a2 2 0 0 0-2-2H7a2 2 0 1 0 0 4h8a2 2 0 0 0 2-2ZM1 13h20M21 7h2a2 2 0 0 1 2 2v20a2 2 0 0 0 4 0V17c0-1.305.386-2.58 1.11-3.667l.84-1.258M29 17h2" />
</svg>