<svg xmlns="http://www.w3.org/2000/svg" width="16" height="16" fill="none" viewBox="0 0 16 16">
  <path stroke="#3F3F46" stroke-linecap="round" stroke-linejoin="round"
    d="M2.623 15.412C2.307 14.813.512 11.27.5 8.017a7.5 7.5 0 0 1 15-.054c.012 3.33-1.845 6.982-2.09 7.449" />
  <path stroke="#3F3F46" stroke-linecap="round" stroke-linejoin="round"
    d="m4.057 9.53-1.075.453a.667.667 0 0 0-.355.873l1.62 3.84c.143.338.534.497.874.354l1.075-.454a.667.667 0 0 0 .355-.873L4.93 9.884a.667.667 0 0 0-.874-.355ZM9.805 14.598l1.074.453c.34.143.73-.016.874-.355l1.62-3.839a.667.667 0 0 0-.355-.873l-1.075-.454a.667.667 0 0 0-.874.355l-1.62 3.84c-.143.338.016.73.356.873Z" />
</svg>