<svg xmlns="http://www.w3.org/2000/svg" width="32" height="32" fill="none" viewBox="0 0 32 32">
  <path stroke="#3F3F46" stroke-linecap="round" stroke-linejoin="round" stroke-width="2"
    d="M5.246 30.82C4.614 29.665 1.023 22.817 1 16.53.986 12.684 2.552 8.992 5.355 6.263c2.803-2.728 6.613-4.268 10.591-4.282 3.978-.014 7.8 1.5 10.623 4.209 2.823 2.708 4.417 6.39 4.431 10.234.024 6.437-3.689 13.494-4.179 14.397" />
  <path stroke="#3F3F46" stroke-linecap="round" stroke-linejoin="round" stroke-width="2"
    d="m8.115 19.059-2.15.907a1.333 1.333 0 0 0-.71 1.747l3.24 7.677a1.333 1.333 0 0 0 1.746.71l2.15-.907a1.333 1.333 0 0 0 .71-1.747l-3.24-7.677a1.333 1.333 0 0 0-1.746-.71ZM19.609 29.195l2.15.907a1.333 1.333 0 0 0 1.746-.71l3.24-7.678a1.333 1.333 0 0 0-.71-1.746l-2.15-.908a1.333 1.333 0 0 0-1.747.71l-3.24 7.678c-.286.679.032 1.46.71 1.747Z" />
</svg>