<svg xmlns="http://www.w3.org/2000/svg" width="24" height="24" fill="none" viewBox="0 0 24 24">
  <path stroke="#3F3F46" stroke-linecap="round" stroke-linejoin="round" stroke-width="1.5"
    d="M20.076 23.193s3.193-5.896 3.174-11.24a11.24 11.24 0 0 0-3.324-7.939 11.254 11.254 0 0 0-15.91.058A11.24 11.24 0 0 0 .75 12.033c.018 5.158 3.03 10.804 3.243 11.195" />
  <path stroke="#3F3F46" stroke-linecap="round" stroke-linejoin="round" stroke-width="1.5"
    d="m6.086 14.294-1.612.68a1 1 0 0 0-.533 1.31l2.43 5.759a1 1 0 0 0 1.31.532l1.612-.68a1 1 0 0 0 .533-1.31l-2.43-5.759a1 1 0 0 0-1.31-.532ZM14.707 21.896l1.612.68a1 1 0 0 0 1.31-.532l2.43-5.758a1 1 0 0 0-.533-1.31l-1.612-.68a1 1 0 0 0-1.31.532l-2.43 5.758a1 1 0 0 0 .533 1.31Z" />
</svg>