<svg xmlns="http://www.w3.org/2000/svg" width="24" height="24" fill="none" viewBox="0 0 24 24">
  <path stroke="#3F3F46" stroke-linecap="round" stroke-linejoin="round" stroke-width="1.5"
    d="M12.75 9.807a6 6 0 1 0-7.5 5.811v6.136a1.5 1.5 0 0 0 3 0v-6.136a6 6 0 0 0 4.5-5.81v0Z" />
  <path stroke="#3F3F46" stroke-linecap="round" stroke-linejoin="round" stroke-width="1.5"
    d="M13.563 15.75a5.974 5.974 0 0 0 2.219-.773l4.907 4.906a1.5 1.5 0 0 0 2.12-2.12l-4.91-4.907a6.001 6.001 0 0 0-8.062-8.305M6.75 10.557a1.5 1.5 0 1 0 0-3 1.5 1.5 0 0 0 0 3Z" />
  <path stroke="#3F3F46" stroke-linecap="round" stroke-linejoin="round" stroke-width="1.5"
    d="M6.75 7.557V3a2.25 2.25 0 1 1 4.5 0v.879" />
</svg>