<svg xmlns="http://www.w3.org/2000/svg" width="16" height="16" fill="none" viewBox="0 0 16 16">
  <path stroke="#3F3F46" stroke-linecap="round" stroke-linejoin="round"
    d="M8.5 6.538a4 4 0 1 0-5 3.874v4.09a1 1 0 1 0 2 0v-4.09a4 4 0 0 0 3-3.874v0Z" />
  <path stroke="#3F3F46" stroke-linecap="round" stroke-linejoin="round"
    d="M6.494 3.07a4 4 0 0 1 5.439 5.5l3.273 3.271a1 1 0 0 1-1.414 1.414l-3.271-3.27a3.982 3.982 0 0 1-1.448.51h-.03M4.5 7.038a1 1 0 1 0 0-2 1 1 0 0 0 0 2Z" />
  <path stroke="#3F3F46" stroke-linecap="round" stroke-linejoin="round"
    d="M4.5 4.938V2a1.5 1.5 0 0 1 3 0v.51" />
</svg>