<svg xmlns="http://www.w3.org/2000/svg" width="32" height="32" fill="none" viewBox="0 0 32 32">
  <path stroke="#3F3F46" stroke-linecap="round" stroke-linejoin="round" stroke-width="2"
    d="M17 13.076a8 8 0 1 0-10 7.748v8.181a2 2 0 1 0 4 0v-8.18a8 8 0 0 0 6-7.749v0Z" />
  <path stroke="#3F3F46" stroke-linecap="round" stroke-linejoin="round" stroke-width="2"
    d="M12.989 6.14a8 8 0 0 1 10.878 11.001l6.547 6.542a2 2 0 0 1-2.828 2.828l-6.543-6.542a7.962 7.962 0 0 1-2.896 1.022h-.058M9 14.076a2 2 0 1 0 0-4 2 2 0 0 0 0 4Z" />
  <path stroke="#3F3F46" stroke-linecap="round" stroke-linejoin="round" stroke-width="2"
    d="M9 9.875V4a3 3 0 1 1 6 0v1.02" />
</svg>