<svg xmlns="http://www.w3.org/2000/svg" width="32" height="32" fill="none" viewBox="0 0 32 32">
  <path
    fill="#47474F"
    d="M21.84 17.346c-6.866 2.307-9.386 4.987-11.12 11.64l1.934-.013c-1.746-6.667-4.267-9.347-11.12-11.653l-.013 1.893c6.853-2.32 9.373-5 11.107-11.653H10.68c1.733 6.653 4.253 9.333 11.107 11.64v-1.907l.053.053Zm.628 1.894c.906-.307.906-1.6 0-1.907-6.227-2.107-8.254-4.267-9.827-10.267-.267-1-1.68-1-1.947 0-1.573 6-3.6 8.16-9.827 10.254-.92.293-.92 1.586-.013 1.893 6.213 2.093 8.24 4.253 9.813 10.253.254.987 1.667.987 1.934-.013 1.56-6.013 3.586-8.173 9.813-10.267l.053.054ZM30.094 6.973c-4.014 1.333-5.547 2.96-6.56 6.84h1.933c-1.026-3.893-2.56-5.507-6.56-6.853l-.013 1.893c4-1.347 5.52-2.973 6.547-6.853l-1.947-.014c1.013 3.88 2.533 5.494 6.547 6.84V6.92l.053.053Zm.627 1.893c.906-.306.906-1.6 0-1.906-3.374-1.134-4.414-2.24-5.267-5.467-.267-1-1.68-1-1.947-.013-.853 3.226-1.893 4.32-5.267 5.453-.92.293-.92 1.587-.013 1.893 3.36 1.12 4.4 2.227 5.253 5.454.254.987 1.667.987 1.934 0 .84-3.24 1.88-4.334 5.253-5.467l.053.053ZM30.587 25.12c-3.053 1-4.253 2.24-5.026 5.146l1.92-.013c-.787-2.92-1.987-4.16-5.027-5.16v1.893c3.04-1.013 4.24-2.253 5.013-5.16l-1.933-.013c.773 2.907 1.973 4.147 5.013 5.147v-1.907l.04.067Zm.614 1.893c.906-.307.906-1.6 0-1.907-2.414-.8-3.12-1.52-3.72-3.773-.267-1-1.68-1-1.934-.013-.613 2.24-1.306 2.973-3.72 3.76-.92.293-.92 1.586 0 1.893 2.4.787 3.107 1.507 3.707 3.76.253.987 1.667.987 1.92-.013.6-2.254 1.293-2.987 3.706-3.774l.04.067Z" />
</svg>