<svg xmlns="http://www.w3.org/2000/svg" width="24" height="24" fill="none" viewBox="0 0 24 24">
  <path
    stroke="#47474F" stroke-linecap="round" stroke-linejoin="round" stroke-width="1.5"
    d="M16.696 13.39c-4.988 1.68-6.632 3.553-7.848 8.214-1.216-4.66-2.86-6.532-7.848-8.213 4.988-1.68 6.632-3.552 7.848-8.214 1.216 4.662 2.86 6.533 7.848 8.214ZM22.884 5.615c-2.814.944-3.741 1.996-4.427 4.615-.686-2.619-1.614-3.67-4.427-4.615 2.813-.944 3.74-1.996 4.427-4.615.686 2.62 1.613 3.67 4.427 4.615ZM23.249 19.229c-2.082.684-2.77 1.446-3.276 3.344-.508-1.898-1.195-2.66-3.277-3.344 2.082-.684 2.769-1.446 3.277-3.344.507 1.898 1.194 2.66 3.276 3.344Z" />
</svg>