<svg xmlns="http://www.w3.org/2000/svg" width="16" height="16" fill="none" viewBox="0 0 16 16">
  <path
    stroke="#47474F" stroke-linecap="round" stroke-linejoin="round"
    d="M11.13 8.927c-3.325 1.12-4.42 2.368-5.232 5.476-.81-3.107-1.906-4.355-5.231-5.476 3.325-1.12 4.42-2.368 5.232-5.476.81 3.108 1.906 4.356 5.231 5.476ZM15.256 3.743c-1.876.63-2.494 1.331-2.952 3.077-.457-1.746-1.076-2.447-2.951-3.077 1.875-.629 2.493-1.33 2.951-3.076.458 1.746 1.076 2.446 2.952 3.076ZM15.499 12.82c-1.388.455-1.846.963-2.184 2.229-.339-1.266-.797-1.774-2.185-2.23 1.388-.456 1.846-.964 2.185-2.229.338 1.265.796 1.773 2.184 2.23Z" />
</svg>