<svg xmlns="http://www.w3.org/2000/svg" width="16" height="16" fill="none" viewBox="0 0 16 16">
  <path
    fill="#47474F"
    d="M10.92 8.673c-3.433 1.154-4.693 2.494-5.56 5.82l.967-.006C5.453 11.153 4.193 9.813.767 8.66l-.007.947c3.427-1.16 4.687-2.5 5.553-5.827H5.34c.867 3.327 2.127 4.667 5.553 5.82v-.953l.027.026Zm.313.947a.504.504 0 0 0 0-.953C8.12 7.613 7.107 6.533 6.32 3.533c-.133-.5-.84-.5-.973 0-.787 3-1.8 4.08-4.914 5.127-.46.147-.46.793-.006.947 3.106 1.046 4.12 2.126 4.906 5.126.127.494.834.494.967-.006.78-3.007 1.793-4.087 4.907-5.134l.026.027ZM15.046 3.487c-2.006.666-2.773 1.48-3.28 3.42h.967c-.513-1.947-1.28-2.754-3.28-3.427l-.007.947c2-.674 2.76-1.487 3.274-3.427l-.974-.007c.507 1.94 1.267 2.747 3.274 3.42V3.46l.026.027Zm.314.946a.504.504 0 0 0 0-.953c-1.687-.567-2.207-1.12-2.634-2.733-.133-.5-.84-.5-.973-.007-.427 1.613-.947 2.16-2.633 2.727-.46.146-.46.793-.007.946 1.68.56 2.2 1.114 2.627 2.727.126.493.833.493.966 0 .42-1.62.94-2.167 2.627-2.733l.027.026ZM15.293 12.56c-1.527.5-2.127 1.12-2.513 2.573l.96-.006c-.394-1.46-.994-2.08-2.514-2.58v.946c1.52-.506 2.12-1.126 2.507-2.58l-.967-.006c.387 1.453.987 2.073 2.507 2.573v-.953l.02.033Zm.307.947a.504.504 0 0 0 0-.954c-1.207-.4-1.56-.76-1.86-1.886-.134-.5-.84-.5-.967-.007-.307 1.12-.653 1.487-1.86 1.88-.46.147-.46.793 0 .947 1.2.393 1.553.753 1.853 1.88.127.493.834.493.96-.007.3-1.127.647-1.493 1.853-1.887l.02.034Z" />
</svg>