<svg xmlns="http://www.w3.org/2000/svg" width="24" height="24" fill="none" viewBox="0 0 24 24">
  <path
    fill="#47474F"
    d="M16.38 13.01c-5.15 1.73-7.04 3.74-8.34 8.73l1.45-.01c-1.31-5-3.2-7.01-8.34-8.74l-.01 1.42c5.14-1.74 7.03-3.75 8.33-8.74H8.01c1.3 4.99 3.19 7 8.33 8.73v-1.43l.04.04Zm.47 1.42c.68-.23.68-1.2 0-1.43-4.67-1.58-6.19-3.2-7.37-7.7-.2-.75-1.26-.75-1.46 0-1.18 4.5-2.7 6.12-7.37 7.69-.69.22-.69 1.19-.01 1.42C5.3 15.98 6.82 17.6 8 22.1c.19.74 1.25.74 1.45-.01 1.17-4.51 2.69-6.13 7.36-7.7l.04.04ZM22.57 5.23c-3.01 1-4.16 2.22-4.92 5.13h1.45c-.77-2.92-1.92-4.13-4.92-5.14l-.01 1.42c3-1.01 4.14-2.23 4.91-5.14l-1.46-.01c.76 2.91 1.9 4.12 4.91 5.13V5.19l.04.04Zm.47 1.42c.68-.23.68-1.2 0-1.43-2.53-.85-3.31-1.68-3.95-4.1-.2-.75-1.26-.75-1.46-.01-.64 2.42-1.42 3.24-3.95 4.09-.69.22-.69 1.19-.01 1.42 2.52.84 3.3 1.67 3.94 4.09.19.74 1.25.74 1.45 0 .63-2.43 1.41-3.25 3.94-4.1l.04.04ZM22.94 18.84c-2.29.75-3.19 1.68-3.77 3.86l1.44-.01c-.59-2.19-1.49-3.12-3.77-3.87v1.42c2.28-.76 3.18-1.69 3.76-3.87l-1.45-.01c.58 2.18 1.48 3.11 3.76 3.86v-1.43l.03.05Zm.46 1.42c.68-.23.68-1.2 0-1.43-1.81-.6-2.34-1.14-2.79-2.83-.2-.75-1.26-.75-1.45-.01-.46 1.68-.98 2.23-2.79 2.82-.69.22-.69 1.19 0 1.42 1.8.59 2.33 1.13 2.78 2.82.19.74 1.25.74 1.44-.01.45-1.69.97-2.24 2.78-2.83l.03.05Z" />
</svg>