<svg xmlns="http://www.w3.org/2000/svg" viewBox="0 0 42 28" width="42" height="28" fill="none"><mask id="a" width="26" height="26" x="8" y="1" maskUnits="userSpaceOnUse" style="mask-type:luminance"><path fill="#fff" d="M34 1H8v26h26V1Z"/></mask><g mask="url(#a)"><path fill="#061F40" stroke="#fff" d="M10.786 1.5h20.428c1.21 0 2.286 1.076 2.286 2.286v20.428c0 1.22-.994 2.286-2.286 2.286H10.786A2.294 2.294 0 0 1 8.5 24.214V3.786c0-1.21 1.076-2.286 2.286-2.286Z"/><path fill="#fff" d="m15.521 9.079-3.528 9.843h2.043l.65-1.858h3.9l.65 1.858h2.042l-3.435-9.843H15.52Zm-.278 6.407 1.393-4.086 1.392 4.086h-2.785ZM27.872 9.079l-2.693 7.8-2.693-7.8H20.35l3.621 9.843h2.415l3.621-9.843h-2.136Z"/></g></svg>