<svg xmlns="http://www.w3.org/2000/svg" width="42" height="28" fill="none" viewBox="0 0 42 28">
  <path fill="#0B6DFF"
    d="M31.617 2H11.383C10.067 2 9 3.024 9 4.288v19.424C9 24.976 10.067 26 11.383 26h20.234C32.933 26 34 24.976 34 23.712V4.288C34 3.024 32.933 2 31.617 2Z" />
  <path stroke="#fff"
    d="M30.5 1.5h-18A3.5 3.5 0 0 0 9 5v18a3.5 3.5 0 0 0 3.5 3.5h18A3.5 3.5 0 0 0 34 23V5a3.5 3.5 0 0 0-3.5-3.5Z" />
  <path fill="#fff"
    d="M11.088 16.098h.96l.093-.558h.944l.092.558h.99l-.844-4.24H11.92l-.832 4.24Zm1.194-1.362.33-1.963h.013l.325 1.963h-.668Zm3.2 1.38c.303 0 .557-.096.757-.308h.017v.268h.825v-3.281h-.96v2.017c0 .26-.143.418-.376.418-.234 0-.36-.158-.36-.418v-2.017h-.937v2.249c0 .66.387 1.078 1.024 1.078m3.24.006c.205 0 .393-.03.557-.079v-.895a.836.836 0 0 1-.334.08c-.148 0-.247-.068-.247-.266V13.62h.603v-.825h-.603v-.648h-.66l-.018.158c-.047.43-.212.624-.571.745v.57h.312v1.514c0 .697.321.993.945.993m2.533 0c.999 0 1.665-.671 1.665-1.683 0-1.011-.666-1.684-1.665-1.684-1 0-1.672.679-1.672 1.684s.666 1.684 1.672 1.684Zm-.703-1.683c0-.46.285-.77.703-.77.417 0 .696.31.696.77s-.285.77-.696.77c-.412 0-.703-.316-.703-.77Zm7.058 1.674c.34 0 .721-.061 1.036-.206v-.927c-.285.2-.648.29-.981.29-.436 0-.77-.162-.884-.538h2.12c.224-1.272-.424-1.975-1.448-1.975s-1.654.654-1.654 1.684c0 1.03.667 1.672 1.811 1.672Zm-.819-2.073c.097-.303.321-.491.648-.491s.57.17.612.49h-1.26Zm2.261 2.053h.988l.402-1.071h.012l.407 1.071h1.055l-.768-1.67.774-1.633h-.974l-.404 1.005h-.012l-.41-1.005h-1.07l.774 1.585-.774 1.718ZM24.942 11.857l-.569 3.326h-.001v.002h-.01l-.547-3.328h-.989l.84 4.219h1.396l.828-4.219h-.948Z" />
</svg>