<svg xmlns="http://www.w3.org/2000/svg" width="42" height="28" fill="none" viewBox="0 0 42 28">
  <path fill="#0B6DFF" stroke="#fff" 
    d="M10.576 1.62h20.848c1.08 0 1.956.876 1.956 1.956v20.848c0 1.08-.876 1.956-1.956 1.956H10.576a1.956 1.956 0 0 1-1.955-1.956V3.576c0-1.08.875-1.956 1.955-1.956Z"/>
  <path fill="#fff" 
    d="M18.833 7.945h-4.007l-2.377 12.107v.003h2.766l.259-1.571h2.658l.259 1.57h2.853L18.832 7.946Zm-2.988 8.31.958-5.675h.035l.94 5.675h-1.933ZM26.797 7.945l-1.628 9.526h-.004v.006h-.03l-1.566-9.532h-2.841l2.411 12.11h4.008l2.376-12.11h-2.726Z"/>
</svg>