<svg xmlns="http://www.w3.org/2000/svg" width="32" height="32" fill="none" viewBox="0 0 32 32">
  <path stroke="#3F3F46" stroke-linecap="round" stroke-width="2"
    d="M26 10V6.878a2 2 0 0 0-.645-1.472L21.33 1.704A2.667 2.667 0 0 0 19.526 1H3a2 2 0 0 0-2 2v22a2 2 0 0 0 2 2h7.783M6 7h14M6 14h7M6 21h3" />
  <circle cx="23" cy="23" r="8" stroke="#3F3F46" stroke-width="2" />
  <path stroke="#3F3F46" stroke-linecap="round" stroke-linejoin="round" stroke-width="2"
    d="m19.5 24 1.986 1.588a.667.667 0 0 0 .932-.098L26.5 20.5" />
</svg>