<svg xmlns="http://www.w3.org/2000/svg" width="24" height="24" fill="none" viewBox="0 0 24 24">
    <g clip-path="url(#a)">
        <path fill="#47474F" d="M3.75 23.998a.75.75 0 0 1 0-1.5H6v-21H3.75a.75.75 0 0 1 0-1.5h10.5a5.256 5.256 0 0 1 5.25 5.25 5.282 5.282 0 0 1-2.633 4.55 7.539 7.539 0 0 1 4.133 6.7c0 4.135-3.365 7.5-7.5 7.5H3.75Zm9.75-1.5c3.308 0 6-2.692 6-6s-2.692-6-6-6h-6v12h6Zm.75-13.5A3.754 3.754 0 0 0 18 5.248a3.754 3.754 0 0 0-3.75-3.75H7.5v7.5h6.75Z"/>
    </g>
    <defs>
        <clipPath id="a">
            <path fill="#fff" d="M0 0h24v24H0z"/>
        </clipPath>
    </defs>
</svg>