<svg xmlns="http://www.w3.org/2000/svg" width="16" height="16" fill="none" viewBox="0 0 16 16">
    <g clip-path="url(#a)">
        <path fill="#47474F" d="M2.5 15.999a.5.5 0 0 1 0-1H4v-14H2.5a.5.5 0 0 1 0-1h7c1.93 0 3.5 1.57 3.5 3.5a3.521 3.521 0 0 1-1.755 3.032A5.026 5.026 0 0 1 14 11c0 2.756-2.243 5-5 5H2.5Zm6.5-1c2.205 0 4-1.795 4-4 0-2.206-1.795-4-4-4H5v8h4Zm.5-9c1.379 0 2.5-1.122 2.5-2.5 0-1.379-1.121-2.5-2.5-2.5H5v5h4.5Z"/>
    </g>
    <defs>
        <clipPath id="a">
            <path fill="#fff" d="M0 0h16v16H0z"/>
        </clipPath>
    </defs>
</svg>