<svg xmlns="http://www.w3.org/2000/svg" width="32" height="32" fill="none" viewBox="0 0 32 32">
    <path fill="#47474F" d="M5.625 31.997c-.621 0-1.125-.448-1.125-1s.504-1 1.125-1H9v-28H5.625c-.621 0-1.125-.448-1.125-1s.504-1 1.125-1h15.75c4.343 0 7.875 3.14 7.875 7 0 2.514-1.545 4.83-3.95 6.066 3.755 1.685 6.2 5.146 6.2 8.934 0 5.514-5.047 10-11.25 10H5.625Zm14.625-2c4.962 0 9-3.589 9-8 0-4.41-4.038-8-9-8h-9v16h9Zm1.125-18c3.102 0 5.625-2.242 5.625-5 0-2.757-2.523-5-5.625-5H11.25v10h10.125Z"/>
</svg>