<svg xmlns="http://www.w3.org/2000/svg" width="24" height="24" fill="none" viewBox="0 0 24 24">
  <path fill="#3F3F46" fill-rule="evenodd"
    d="M7.068 20.345a.75.75 0 0 1 .662-.138l3.85 1.031a.75.75 0 0 1 .44 1.125 2.857 2.857 0 0 1-3.133 1.225 2.857 2.857 0 0 1-2.1-2.627.75.75 0 0 1 .28-.616ZM15.636 1.327A.75.75 0 1 0 14.187.94l-.397 1.483C9.618 1.714 5.487 4.428 4.388 8.53c-.818 3.052-1.697 4.91-2.35 5.99a7.57 7.57 0 0 1-.775 1.084 2.956 2.956 0 0 1-.23.236l-.002.002a.75.75 0 0 0 .27 1.313l17.386 4.659a.75.75 0 0 0 .826-1.129l-.002-.003a1.15 1.15 0 0 1-.06-.163c-.056-.185-.131-.533-.155-1.11-.047-1.155.116-3.197 1.03-6.609 1.106-4.13-1.092-8.517-5.087-9.992l.397-1.482Z"
    clip-rule="evenodd" />
</svg>