<svg xmlns="http://www.w3.org/2000/svg" width="16" height="16" fill="none" viewBox="0 0 16 16">
  <path stroke="#3F3F46" stroke-linecap="round" stroke-linejoin="round"
    d="M13.5.5h-11a2 2 0 0 0-2 2v3a2 2 0 0 0 2 2h11a2 2 0 0 0 2-2v-3a2 2 0 0 0-2-2ZM3.5 2.5h9" />
  <path stroke="#3F3F46" stroke-linecap="round" stroke-linejoin="round"
    d="M2.5 7.5v-1a1 1 0 0 1 1-1h9a1 1 0 0 1 1 1v1M2.586 14.99a2 2 0 0 0 0-2.828 2 2 0 0 1-.022-2.806M7.92 14.99a2 2 0 0 0 0-2.828 2 2 0 0 1-.023-2.806M13.253 14.99a2 2 0 0 0 0-2.828 1.998 1.998 0 0 1-.016-2.813" />
</svg>