<svg xmlns="http://www.w3.org/2000/svg" width="32" height="32" fill="none" viewBox="0 0 32 32">
  <path stroke="#3F3F46" stroke-linecap="round" stroke-linejoin="round" stroke-width="2"
    d="M27 1H5a4 4 0 0 0-4 4v6a4 4 0 0 0 4 4h22a4 4 0 0 0 4-4V5a4 4 0 0 0-4-4ZM7 5h18" />
  <path stroke="#3F3F46" stroke-linecap="round" stroke-linejoin="round" stroke-width="2"
    d="M5 15v-2a2 2 0 0 1 2-2h18a2 2 0 0 1 2 2v2M5.171 29.98a4 4 0 0 0 0-5.656 4 4 0 0 1-.022-5.636M15.838 29.98a4 4 0 0 0 0-5.656 4 4 0 0 1-.023-5.634M26.505 29.98a4 4 0 0 0 0-5.656 3.999 3.999 0 0 1-.02-5.637" />
</svg>