<svg xmlns="http://www.w3.org/2000/svg" width="24" height="24" fill="none" viewBox="0 0 24 24">
  <path stroke="#3F3F46" stroke-linecap="round" stroke-linejoin="round" stroke-width="1.5"
    d="M16.5 23.25h2.25a1.5 1.5 0 0 0 1.5-1.5v-9M7.5 23.25H5.25a1.5 1.5 0 0 1-1.5-1.5v-9M.75 12.129l10.189-10.19a1.5 1.5 0 0 1 2.122 0L23.25 12.128" />
  <path stroke="#3F3F46" stroke-linecap="round" stroke-linejoin="round" stroke-width="1.5"
    d="M12 12.75a2.25 2.25 0 1 0 0-4.5 2.25 2.25 0 0 0 0 4.5ZM12 14.25A3.75 3.75 0 0 0 8.25 18v.75h1.5l.75 4.5h3l.75-4.5h1.5V18A3.75 3.75 0 0 0 12 14.25Z" />
</svg>