<svg xmlns="http://www.w3.org/2000/svg" width="16" height="16" fill="none" viewBox="0 0 16 16">
  <path stroke="#3F3F46" stroke-linecap="round" stroke-linejoin="round"
    d="M13.5.5h-11a1 1 0 0 0-1 1v13a1 1 0 0 0 1 1h11a1 1 0 0 0 1-1v-13a1 1 0 0 0-1-1ZM3.5 2.5h2M12.666 2.133V2.8M10.666 2.133V2.8M1.5 4.5h13" />
  <path stroke="#3F3F46" stroke-linecap="round" stroke-linejoin="round"
    d="M8 13.5a3.5 3.5 0 1 0 0-7 3.5 3.5 0 0 0 0 7Z" />
  <path stroke="#3F3F46" stroke-linecap="round" stroke-linejoin="round"
    d="M6.5 10a1.5 1.5 0 0 1 1.463-1.5" />
</svg>