<svg xmlns="http://www.w3.org/2000/svg" width="24" height="24" fill="none" viewBox="0 0 24 24">
  <path stroke="#3F3F46" stroke-linecap="round" stroke-linejoin="round" stroke-width="1.5"
    d="M11 20.25H6a1.5 1.5 0 0 1-1.5-1.5V6.03" />
  <path stroke="#3F3F46" stroke-linecap="round" stroke-linejoin="round" stroke-width="1.492"
    d="m1.875 7.875 8.408-6.022a1.492 1.492 0 0 1 1.928 0l7.627 5.994" />
  <path stroke="#3F3F46" stroke-linecap="round" stroke-linejoin="round" stroke-width="1.5"
    d="M18 12a3.94 3.94 0 0 1 2.828 1.208A4.19 4.19 0 0 1 22 16.125c0 1.76-2.39 5.179-3.475 6.61A.67.67 0 0 1 18 23a.65.65 0 0 1-.525-.264C16.389 21.304 14 17.886 14 16.125a4.19 4.19 0 0 1 1.172-2.917A3.94 3.94 0 0 1 18 12v0ZM10.5 7.5h-3v3h3v-3ZM17.25 16.5h1.5" />
</svg>