<svg xmlns="http://www.w3.org/2000/svg" width="16" height="16" fill="none" viewBox="0 0 16 16">
  <path stroke="#3F3F46" stroke-linecap="round" stroke-linejoin="round"
    d="M7.333 13.333H4a1 1 0 0 1-1-1v-8.31" />
  <path stroke="#3F3F46" stroke-linecap="round" stroke-linejoin="round"
    d="m1 5.333 5.854-4.12a1 1 0 0 1 1.292 0l5.15 4.092M12 8c.707 0 1.385.29 1.885.805.5.516.781 1.216.781 1.945 0 1.174-1.593 3.453-2.316 4.407a.447.447 0 0 1-.35.176.433.433 0 0 1-.35-.176c-.724-.954-2.317-3.233-2.317-4.407 0-.73.281-1.429.781-1.945A2.626 2.626 0 0 1 12 8v0ZM11.666 10.667h.667M5.333 7.333v-2h2v2h-2Z" />
</svg>