<svg xmlns="http://www.w3.org/2000/svg" width="42" height="28" fill="none" viewBox="0 0 42 28">
  <path stroke="#47474F" stroke-linecap="round" stroke-linejoin="round" stroke-width="2"
    d="M21 2.75a11.25 11.25 0 1 0 0 22.5 11.25 11.25 0 0 0 0-22.5Z" />
  <path stroke="#47474F" stroke-linecap="round" stroke-linejoin="round" stroke-width="2"
    d="m17.895 18.754-1.91-5.9L21 9.208l5.015 3.646-1.91 5.9h-6.21ZM25.301 3.601l-4.3 2.9-4.302-2.9M23.599 24.948l2.139-4.366 4.884-.75M32.214 14.909l-3.427-3.413.735-4.839M21 6.5v2.708M26.015 12.854l2.772-1.358M9.786 14.909l3.427-3.413-.735-4.839M15.985 12.854l-2.772-1.358M24.105 18.754l1.633 1.828M18.4 24.948l-2.138-4.366-4.884-.75M17.895 18.754l-1.633 1.828" />
</svg>