<svg width="24" height="24" viewBox="0 0 24 24" fill="none" xmlns="http://www.w3.org/2000/svg"><path d="m19.577 13.67-12.72-6.2-.006-2.457L4.843 3.9a1.1 1.1 0 0 0-1.584.921l-.295 5.239a2.2 2.2 0 0 0 1.215 2.089l3.618 1.8-4.461 3.359a1.1 1.1 0 0 0 .173 1.86l1.88.932a1.1 1.1 0 0 0 .93.022l7.38-3.247 3.44 1.71a2.744 2.744 0 1 0 2.443-4.915h-.005Z" stroke="#1B1B1F" stroke-width="1.5" stroke-linecap="round" stroke-linejoin="round"/><path d="m16.276 12.06-.9-4.918a1.101 1.101 0 0 0-.59-.784l-1.853-.919a1.1 1.1 0 0 0-1.586.986v3.233" stroke="#1B1B1F" stroke-width="1.5" stroke-linecap="round" stroke-linejoin="round"/></svg>