<svg width="16" height="16" viewBox="0 0 16 16" fill="none" xmlns="http://www.w3.org/2000/svg"><path d="M13.051 9.113 4.571 4.98l-.004-1.638L3.23 2.6a.733.733 0 0 0-1.056.614l-.197 3.493a1.467 1.467 0 0 0 .81 1.392l2.412 1.2-2.974 2.24a.733.733 0 0 0 .115 1.24l1.254.621a.733.733 0 0 0 .62.015l4.92-2.165 2.294 1.14a1.83 1.83 0 0 0 1.628-3.277h-.004Z" stroke="#1B1B1F" stroke-linecap="round" stroke-linejoin="round"/><path d="m10.85 8.04-.6-3.279a.734.734 0 0 0-.394-.522l-1.234-.613a.733.733 0 0 0-1.058.657V6.44" stroke="#1B1B1F" stroke-linecap="round" stroke-linejoin="round"/></svg>