<svg xmlns="http://www.w3.org/2000/svg" width="16" height="16" fill="none" viewBox="0 0 16 16">
  <path stroke="#3F3F46" stroke-linecap="round" stroke-linejoin="round" stroke-width="1.5"
    d="M14.75 8a2.327 2.327 0 0 0-1.571-2.225 2.4 2.4 0 0 0-.407-2.725 2.19 2.19 0 0 0-2.627-.421 2.228 2.228 0 0 0-4.29 0 2.192 2.192 0 0 0-2.629.42 2.4 2.4 0 0 0-.406 2.726 2.361 2.361 0 0 0 0 4.45 2.4 2.4 0 0 0 .406 2.724 2.192 2.192 0 0 0 2.628.422 2.228 2.228 0 0 0 4.29 0 2.19 2.19 0 0 0 2.628-.422 2.4 2.4 0 0 0 .407-2.724A2.327 2.327 0 0 0 14.749 8v0ZM5.75 10.5l5-5" />
  <path stroke="#3F3F46" stroke-linecap="round" stroke-linejoin="round" stroke-width="1.5"
    d="M6.25 7a1 1 0 1 0 0-2 1 1 0 0 0 0 2ZM10.25 11a1 1 0 1 0 0-2 1 1 0 0 0 0 2Z" />
</svg>