<svg xmlns="http://www.w3.org/2000/svg" width="32" height="32" fill="none" viewBox="0 0 32 32">
  <path stroke="#3F3F46" stroke-linecap="round" stroke-linejoin="round" stroke-width="2"
    d="M7.435 29.094c-2.038 1.886-5.911 1.102-5.911 1.102s-.868-3.942 1.102-5.91a2.904 2.904 0 0 1 4.508.301 2.905 2.905 0 0 1 .3 4.507ZM28.404 3.309l1.975-1.976M28.667 10.211l-.263-6.902-6.902-.263a6.224 6.224 0 0 0-5.106 2.86l-7.504 12.42 4.483 4.488 12.419-7.498a6.217 6.217 0 0 0 2.075-2.193c.502-.89.798-1.73.798-2.912Z" />
  <path stroke="#3F3F46" stroke-linecap="round" stroke-linejoin="round" stroke-width="2"
    d="m8.897 18.332-4.005-.983a.862.862 0 0 1-.605-.551.715.715 0 0 1 .151-.745l2.908-2.9a2.872 2.872 0 0 1 3.023-.605l1.631.578M13.38 22.822l.983 4.005a.863.863 0 0 0 .55.605.713.713 0 0 0 .746-.151l2.905-2.916a2.872 2.872 0 0 0 .594-3.022l-.594-1.51M21.561 12.418a2.267 2.267 0 1 0 0-4.534 2.267 2.267 0 0 0 0 4.534Z" />
</svg>