<svg xmlns="http://www.w3.org/2000/svg" width="16" height="16" fill="none" viewBox="0 0 16 16">
  <path stroke="#3F3F46" stroke-linecap="round" stroke-linejoin="round"
    d="M3.717 14.547c-1.019.943-2.955.551-2.955.551s-.434-1.97.55-2.955a1.453 1.453 0 0 1 2.255.15 1.451 1.451 0 0 1 .15 2.254ZM14.202 1.654l.987-.987M14.333 5.106l-.131-3.452-3.451-.131a3.112 3.112 0 0 0-2.553 1.43l-3.752 6.21 2.241 2.244 6.21-3.749c.43-.274.787-.65 1.037-1.096.251-.445.4-.866.4-1.456Z" />
  <path stroke="#3F3F46" stroke-linecap="round" stroke-linejoin="round"
    d="m4.448 9.166-2.003-.491a.43.43 0 0 1-.302-.276.357.357 0 0 1 .076-.373l1.454-1.45a1.436 1.436 0 0 1 1.511-.302l.816.29M6.69 11.411l.491 2.003a.432.432 0 0 0 .275.302.356.356 0 0 0 .374-.076l1.452-1.457a1.436 1.436 0 0 0 .297-1.512l-.297-.755M10.78 6.209a1.134 1.134 0 1 0 0-2.267 1.134 1.134 0 0 0 0 2.267Z" />
</svg>