<svg xmlns="http://www.w3.org/2000/svg" width="16" height="16" fill="none" viewBox="0 0 16 16">
  <path stroke="#3F3F46" stroke-linecap="round" stroke-linejoin="round"
    d="M5.77 3.847a1 1 0 0 0-1.266.964v4.774A4.687 4.687 0 0 0 5.71 12.77a10.187 10.187 0 0 0 3.948 2.667 1 1 0 0 0 .689 0 10.179 10.179 0 0 0 3.948-2.667 4.687 4.687 0 0 0 1.208-3.185V4.81a1 1 0 0 0-1.27-.964 15.42 15.42 0 0 1-8.464 0v0Z" />
  <path stroke="#3F3F46" stroke-linecap="round" stroke-linejoin="round"
    d="M2.07 9.835a11.068 11.068 0 0 1-.362-.375A4.687 4.687 0 0 1 .5 6.275V1.5A1 1 0 0 1 1.774.537c2.764.789 5.695.789 8.46 0A1 1 0 0 1 11.5 1.5v1.167M8 10.536a2 2 0 0 0 4 0M6.5 7.484a1 1 0 0 1 2 0M11.5 7.475a1 1 0 0 1 2 0" />
</svg>