<svg xmlns="http://www.w3.org/2000/svg" width="24" height="24" fill="none" viewBox="0 0 24 24">
  <path stroke="#3F3F46" stroke-linecap="round" stroke-linejoin="round" stroke-width="1.5"
    d="M8.655 5.771a1.5 1.5 0 0 0-1.9 1.445v7.161a7.03 7.03 0 0 0 1.81 4.778 15.28 15.28 0 0 0 5.923 4 1.5 1.5 0 0 0 1.033 0 15.267 15.267 0 0 0 5.923-4 7.03 7.03 0 0 0 1.81-4.778V7.216a1.5 1.5 0 0 0-1.904-1.445 23.13 23.13 0 0 1-12.695 0v0Z" />
  <path stroke="#3F3F46" stroke-linecap="round" stroke-linejoin="round" stroke-width="1.5"
    d="M3.105 14.753a16.61 16.61 0 0 1-.544-.563 7.031 7.031 0 0 1-1.81-4.778V2.25A1.5 1.5 0 0 1 2.66.805a23.112 23.112 0 0 0 12.69 0 1.5 1.5 0 0 1 1.9 1.445v1.743M12 15.795a3 3 0 0 0 6 0M9.75 11.226a1.5 1.5 0 0 1 3 0M17.25 11.222a1.5 1.5 0 0 1 3 0" />
</svg>