<svg xmlns="http://www.w3.org/2000/svg" width="32" height="32" fill="none" viewBox="0 0 32 32">
  <path stroke="#3F3F46" stroke-linecap="round" stroke-linejoin="round" stroke-width="2"
    d="M11.54 7.695a2 2 0 0 0-2.533 1.927v9.548a9.375 9.375 0 0 0 2.414 6.37 20.375 20.375 0 0 0 7.896 5.334c.445.163.933.163 1.378 0a20.357 20.357 0 0 0 7.897-5.334 9.375 9.375 0 0 0 2.415-6.37V9.622a2 2 0 0 0-2.54-1.927 30.841 30.841 0 0 1-16.927 0v0Z" />
  <path stroke="#3F3F46" stroke-linecap="round" stroke-linejoin="round" stroke-width="2"
    d="M4.14 19.67a22.145 22.145 0 0 1-.725-.75A9.374 9.374 0 0 1 1 12.55V3a2 2 0 0 1 2.547-1.927 30.816 30.816 0 0 0 16.92 0A2 2 0 0 1 23 3v2.333M16 21.073a4 4 0 0 0 8 0M13 14.969a2 2 0 0 1 4 0M23 14.95a2 2 0 0 1 4 0" />
</svg>