<svg xmlns="http://www.w3.org/2000/svg" width="32" height="32" fill="none" viewBox="0 0 32 32">
  <path stroke="#3F3F46" stroke-linecap="round" stroke-linejoin="round" stroke-width="2"
    d="M24.306 1.333H2.361c-.568 0-1.028.442-1.028.987v22.026c0 .545.46.987 1.028.987h21.945c.568 0 1.027-.442 1.027-.987V2.32c0-.545-.46-.987-1.026-.987Z" />
  <path stroke="#3F3F46" stroke-linecap="round" stroke-linejoin="round" stroke-width="2"
    d="M5.333 30.667H29.4c.336 0 .658-.122.896-.338a1.1 1.1 0 0 0 .37-.814V5.411" />
  <path stroke="#3F3F46" stroke-linecap="round" stroke-linejoin="round" stroke-width="2"
    d="m9.334 25.333 7.537-9.813a2 2 0 0 1 3.143-.171l5.281 6.603M9.333 6.667a2.667 2.667 0 1 1 0 5.333 2.667 2.667 0 0 1 0-5.333Z" />
</svg>