<svg xmlns="http://www.w3.org/2000/svg" width="24" height="24" fill="none" viewBox="0 0 24 24">
  <path stroke="#3F3F46" stroke-linecap="round" stroke-linejoin="round" stroke-width="1.5"
    d="M18.23 1H1.77c-.425 0-.77.331-.77.74v16.52c0 .409.345.74.77.74h16.46c.425 0 .77-.331.77-.74V1.74c0-.409-.345-.74-.77-.74Z" />
  <path stroke="#3F3F46" stroke-linecap="round" stroke-linejoin="round" stroke-width="1.5"
    d="M4 23h18.05a1 1 0 0 0 .672-.253.826.826 0 0 0 .278-.61V4.058" />
  <path stroke="#3F3F46" stroke-linecap="round" stroke-linejoin="round" stroke-width="1.5"
    d="m7 19 5.653-7.36a1.5 1.5 0 0 1 2.357-.128l3.961 4.952M7 5a2 2 0 1 1 0 4 2 2 0 0 1 0-4Z" />
</svg>