<svg xmlns="http://www.w3.org/2000/svg" width="32" height="32" fill="none" viewBox="0 0 32 32"><path fill="#3F3F46" d="M5.857 21.682A29.722 29.722 0 0 1 2.022 8.201c-.02-.5.257-.963.7-1.197L15.378.328c.39-.205.855-.205 1.244 0l12.656 6.676c.443.234.72.696.7 1.197a29.722 29.722 0 0 1-3.835 13.481c-2.327 4.093-5.587 7.5-9.478 9.918a1.259 1.259 0 0 1-1.33 0c-3.89-2.417-7.15-5.826-9.478-9.918Z"/><path stroke="#fff" stroke-linecap="round" stroke-linejoin="round" stroke-width="2.667" d="m11 17 4 3 8-8"/></svg>