<svg width="42" height="40" viewBox="0 0 42 40" fill="none" xmlns="http://www.w3.org/2000/svg">
<path d="M31.5658 0C26.3556 0 22.1318 4.22375 22.1318 9.43396C22.1318 14.6442 26.3556 18.8679 31.5658 18.8679C36.776 18.8679 40.9998 14.6442 40.9998 9.43396C40.9998 4.22375 36.7758 0 31.5658 0ZM31.5658 14.2867C28.8858 14.2867 26.7133 12.114 26.7133 9.43416C26.7133 6.75417 28.8858 4.58167 31.5658 4.58167C34.2456 4.58167 36.4183 6.75417 36.4183 9.43416C36.4183 12.114 34.2456 14.2867 31.5658 14.2867Z" fill="#56102D"/>
<path d="M15.2867 21.1318V33.3485L6.87188 21.1318H1V40H5.58146V25.91L15.2867 40H19.8681V21.1318H15.2867Z" fill="#56102D"/>
<path d="M35.6639 40H41L33.3733 29.0787L40.4793 21.1318H35.2993L26.7133 31.117V21.1318H22.1318V40H26.7133V36.5264L30.3768 32.4293L35.6639 40Z" fill="#56102D"/>
<path d="M15.2867 0V7.39396H5.58146V0H1V18.8681H5.58146V11.4742H15.2867V18.8681H19.8681V0H15.2867Z" fill="#56102D"/>
</svg>
