<svg width="24" height="24" viewBox="0 0 24 24" fill="none" xmlns="http://www.w3.org/2000/svg"><path d="M15.75 16.5a1.5 1.5 0 1 0 3 0 1.5 1.5 0 0 0-3 0ZM3.75 16.5a1.5 1.5 0 1 0 3 0 1.5 1.5 0 0 0-3 0ZM15.75 16.5h-9" stroke="#1B1B1F" stroke-width="1.5" stroke-linecap="round" stroke-linejoin="round"/><path d="M3.75 16.5h-1.5A1.5 1.5 0 0 1 .75 15v-3.592a3 3 0 0 1 .5-1.664l2.5-4.494h7.456a3 3 0 0 1 2.441 1.256L16.5 10.5h3.459a3 3 0 0 1 2.959 2.507L23.25 15a1.5 1.5 0 0 1-1.5 1.5h-3M16.5 10.5H.892M6.75 5.25v5.25M3.75 5.25H1.5" stroke="#1B1B1F" stroke-width="1.5" stroke-linecap="round" stroke-linejoin="round"/></svg>