<svg width="16" height="16" viewBox="0 0 16 16" fill="none" xmlns="http://www.w3.org/2000/svg"><path d="M10.5 11a1 1 0 1 0 2 0 1 1 0 0 0-2 0ZM2.5 11a1 1 0 1 0 2 0 1 1 0 0 0-2 0ZM10.5 11h-6" stroke="#1B1B1F" stroke-linecap="round" stroke-linejoin="round"/><path d="M2.5 11h-1a1 1 0 0 1-1-1V7.605a2 2 0 0 1 .333-1.109L2.5 3.5h4.97a2 2 0 0 1 1.628.837L11 7h2.306a2 2 0 0 1 1.973 1.671L15.5 10a1 1 0 0 1-1 1h-2M11 7H.595M4.5 3.5V7M2.5 3.5H1" stroke="#1B1B1F" stroke-linecap="round" stroke-linejoin="round"/></svg>