<svg xmlns="http://www.w3.org/2000/svg" width="16" height="16" fill="none" viewBox="0 0 16 16">
  <path stroke="#3F3F46" stroke-linecap="round" stroke-linejoin="round"
    d="M14 .5H2a1 1 0 0 0-1 1v13a1 1 0 0 0 1 1h12a1 1 0 0 0 1-1v-13a1 1 0 0 0-1-1Z" />
  <path stroke="#3F3F46" stroke-linecap="round" stroke-linejoin="round"
    d="M6 2.5H4a1 1 0 0 0-1 1v1a1 1 0 0 0 1 1h2a1 1 0 0 0 1-1v-1a1 1 0 0 0-1-1ZM12 2.5h-2a1 1 0 0 0-1 1v1a1 1 0 0 0 1 1h2a1 1 0 0 0 1-1v-1a1 1 0 0 0-1-1ZM1 5.5h14M1 8.5h14" />
</svg>