<svg width="16" height="16" viewBox="0 0 16 16" fill="none" xmlns="http://www.w3.org/2000/svg"><path d="M5.5 11a1 1 0 1 1-2 0 1 1 0 0 1 2 0ZM13.5 11a1 1 0 1 1-2 0 1 1 0 0 1 2 0ZM5.5 11h6" stroke="#1B1B1F" stroke-linecap="round" stroke-linejoin="round"/><path d="M13.5 11h1a1 1 0 0 0 1-1V7.605a2 2 0 0 0-.333-1.109L13.5 3.5H8.53a2 2 0 0 0-1.628.837L5 7H2.694A2 2 0 0 0 .721 8.671L.5 10a1 1 0 0 0 1 1h2M5 7h10.405M11.5 3.5V7M13.5 3.5H15" stroke="#1B1B1F" stroke-linecap="round" stroke-linejoin="round"/></svg>