<svg width="24" height="24" viewBox="0 0 24 24" fill="none" xmlns="http://www.w3.org/2000/svg"><path d="M8.25 16.5a1.5 1.5 0 1 1-3 0 1.5 1.5 0 0 1 3 0ZM20.25 16.5a1.5 1.5 0 1 1-3 0 1.5 1.5 0 0 1 3 0ZM8.25 16.5h9" stroke="#1B1B1F" stroke-width="1.5" stroke-linecap="round" stroke-linejoin="round"/><path d="M20.25 16.5h1.5a1.5 1.5 0 0 0 1.5-1.5v-3.592a3 3 0 0 0-.5-1.664l-2.5-4.494h-7.456a3 3 0 0 0-2.441 1.256L7.5 10.5H4.041a3 3 0 0 0-2.959 2.507L.75 15a1.5 1.5 0 0 0 1.5 1.5h3M7.5 10.5h15.608M17.25 5.25v5.25M20.25 5.25h2.25" stroke="#1B1B1F" stroke-width="1.5" stroke-linecap="round" stroke-linejoin="round"/></svg>