<svg xmlns="http://www.w3.org/2000/svg" width="32" height="32" fill="none" viewBox="0 0 32 32">
  <path stroke="#3F3F46" stroke-linecap="round" stroke-linejoin="round" stroke-width="2"
    d="M9 2h2M15 2h2M27.5 17H30M27.5 23H30M20.5 23H23M21 2h2M27 2h3v3M2 27.5V30h2.5M2 23v-2M26.5 11V8M2 17v-2M2 11V9M4.5 2H2v3M30 30V11.889a.889.889 0 0 0-.888-.889h-9.223a.889.889 0 0 0-.889.889V17" />
  <path stroke="#3F3F46" stroke-linecap="round" stroke-linejoin="round" stroke-width="2"
    d="M23 30V17.889a.889.889 0 0 0-.888-.889h-8.223a.889.889 0 0 0-.888.889V30M8.667 30H30" />
</svg>