<svg xmlns="http://www.w3.org/2000/svg" width="24" height="24" fill="none" viewBox="0 0 24 24">
  <path stroke="#3F3F46" stroke-linecap="round" stroke-linejoin="round" stroke-width="1.5"
    d="m2.783 21 18.75-18M8.964 19.051a9.989 9.989 0 0 0 3.036.45c4.1.068 8.258-2.814 10.824-5.638a1.663 1.663 0 0 0 0-2.226 20.57 20.57 0 0 0-3.057-2.745M3.779 16.261a20.807 20.807 0 0 1-2.6-2.4 1.663 1.663 0 0 1 0-2.226C3.799 8.752 7.969 5.933 11.999 6a9.55 9.55 0 0 1 2.39.276" />
  <path stroke="#3F3F46" stroke-linecap="round" stroke-linejoin="round" stroke-width="1.5"
    d="M8.25 12.75A3.749 3.749 0 0 1 11.97 9M12 16.5a3.75 3.75 0 0 0 3.75-3.732" />
</svg>