<svg xmlns="http://www.w3.org/2000/svg" width="32" height="32" fill="none" viewBox="0 0 32 32">
  <path stroke="#3F3F46" stroke-linecap="round" stroke-linejoin="round" stroke-width="2"
    d="m3.711 28 25-24M26.334 11.84a27.42 27.42 0 0 1 4.098 3.676 2.217 2.217 0 0 1 0 2.968C27.011 22.25 21.467 26.092 16 26a13.315 13.315 0 0 1-4-.584M5.04 21.682a27.735 27.735 0 0 1-3.467-3.2 2.217 2.217 0 0 1 0-2.968C5.067 11.67 10.626 7.91 16 8a12.731 12.731 0 0 1 3.07.34" />
  <path stroke="#3F3F46" stroke-linecap="round" stroke-linejoin="round" stroke-width="2"
    d="M16 12a5 5 0 0 0-5 4.953M16 22a5 5 0 0 0 5-4.968" />
</svg>