<svg width="32" height="32" viewBox="0 0 32 32" fill="none" xmlns="http://www.w3.org/2000/svg">
<path d="M16 18C9.43128 18 3.98892 22.7736 3.02023 29.0074C2.85059 30.0992 3.77153 31 4.8874 31H27.1126C28.2285 31 29.1494 30.0992 28.9798 29.0074C28.0111 22.7736 22.5687 18 16 18Z" stroke="#71717A" stroke-width="1.5"/>
<path d="M23.072 8C23.072 11.866 19.9059 15 16.0004 15C12.0948 15 8.92871 11.866 8.92871 8C8.92871 4.13401 12.0948 1 16.0004 1C19.9059 1 23.072 4.13401 23.072 8Z" stroke="#71717A" stroke-width="1.5"/>
<path d="M9.43359 5.5C11.6224 7.16667 17.3134 9.7 22.5667 6.5" stroke="#71717A" stroke-width="1.5"/>
</svg>
