<svg width="24" height="24" viewBox="0 0 24 24" fill="none" xmlns="http://www.w3.org/2000/svg">
<path d="M12 13C6.94714 13 2.7607 16.672 2.01557 21.4673C1.88507 22.3071 2.59348 23 3.45185 23H20.5481C21.4065 23 22.1149 22.3071 21.9844 21.4673C21.2393 16.672 17.0529 13 12 13Z" stroke="#71717A" stroke-width="1.5"/>
<path d="M17 6C17 8.76142 14.7614 11 12 11C9.23858 11 7 8.76142 7 6C7 3.23858 9.23858 1 12 1C14.7614 1 17 3.23858 17 6Z" stroke="#71717A" stroke-width="1.5"/>
<path d="M7.35742 4.21429C8.90504 5.40476 12.9289 7.21429 16.6431 4.92857" stroke="#71717A" stroke-width="1.5"/>
</svg>
