<svg xmlns="http://www.w3.org/2000/svg" width="16" height="16" fill="none" viewBox="0 0 16 16">
  <path fill="#3F3F46" fill-rule="evenodd"
    d="M4.976.71C5.758.676 6.008.668 8 .668c1.991 0 2.241.008 3.023.044.78.035 1.314.16 1.78.34.483.188.892.439 1.3.846.407.408.658.817.845 1.3.181.466.305.999.341 1.78.036.781.044 1.031.044 3.023 0 1.991-.008 2.241-.044 3.023-.036.78-.16 1.314-.34 1.78a3.594 3.594 0 0 1-.847 1.3 3.594 3.594 0 0 1-1.299.845c-.466.181-1 .305-1.78.341-.782.036-1.032.044-3.023.044-1.992 0-2.242-.008-3.024-.044-.78-.036-1.313-.16-1.78-.34a3.595 3.595 0 0 1-1.299-.847 3.594 3.594 0 0 1-.846-1.299c-.18-.466-.305-1-.34-1.78C.675 10.241.667 9.991.667 8c0-1.992.008-2.242.044-3.024.035-.78.16-1.313.34-1.78.188-.482.439-.891.846-1.299a3.594 3.594 0 0 1 1.3-.845C3.662.87 4.195.746 4.976.71Zm5.987 1.32C10.19 1.995 9.958 1.988 8 1.988c-1.958 0-2.19.007-2.964.042-.715.033-1.103.153-1.361.253a2.272 2.272 0 0 0-.844.549c-.256.256-.415.5-.548.843-.1.258-.22.646-.253 1.361-.035.774-.042 1.006-.042 2.964s.007 2.19.042 2.963c.033.715.152 1.103.253 1.362.133.342.292.586.548.843.257.257.501.416.844.549.258.1.646.22 1.361.252.774.035 1.005.043 2.964.043 1.958 0 2.19-.008 2.963-.043.715-.033 1.103-.152 1.362-.252a2.27 2.27 0 0 0 .843-.55c.256-.256.415-.5.548-.842.1-.259.22-.647.253-1.362.035-.773.043-1.005.043-2.963 0-1.958-.008-2.19-.043-2.964-.033-.715-.152-1.103-.253-1.361a2.273 2.273 0 0 0-.548-.843 2.272 2.272 0 0 0-.843-.549c-.259-.1-.647-.22-1.362-.253ZM5.555 8a2.444 2.444 0 1 0 4.89 0 2.444 2.444 0 0 0-4.89 0ZM4.234 8a3.766 3.766 0 1 1 7.531 0 3.766 3.766 0 0 1-7.531 0Zm7.68-3.035a.88.88 0 1 0 0-1.76.88.88 0 0 0 0 1.76Z"
    clip-rule="evenodd" />
  <mask id="a" width="16" height="16" x="0" y="0" maskUnits="userSpaceOnUse"
    style="mask-type:luminance">
    <path fill="#fff" fill-rule="evenodd"
      d="M4.976.71C5.758.676 6.008.668 8 .668c1.991 0 2.241.008 3.023.044.78.035 1.314.16 1.78.34.483.188.892.439 1.3.846.407.408.658.817.845 1.3.181.466.305.999.341 1.78.036.781.044 1.031.044 3.023 0 1.991-.008 2.241-.044 3.023-.036.78-.16 1.314-.34 1.78a3.594 3.594 0 0 1-.847 1.3 3.594 3.594 0 0 1-1.299.845c-.466.181-1 .305-1.78.341-.782.036-1.032.044-3.023.044-1.992 0-2.242-.008-3.024-.044-.78-.036-1.313-.16-1.78-.34a3.595 3.595 0 0 1-1.299-.847 3.594 3.594 0 0 1-.846-1.299c-.18-.466-.305-1-.34-1.78C.675 10.241.667 9.991.667 8c0-1.992.008-2.242.044-3.024.035-.78.16-1.313.34-1.78.188-.482.439-.891.846-1.299a3.594 3.594 0 0 1 1.3-.845C3.662.87 4.195.746 4.976.71Zm5.987 1.32C10.19 1.995 9.958 1.988 8 1.988c-1.958 0-2.19.007-2.964.042-.715.033-1.103.153-1.361.253a2.272 2.272 0 0 0-.844.549c-.256.256-.415.5-.548.843-.1.258-.22.646-.253 1.361-.035.774-.042 1.006-.042 2.964s.007 2.19.042 2.963c.033.715.152 1.103.253 1.362.133.342.292.586.548.843.257.257.501.416.844.549.258.1.646.22 1.361.252.774.035 1.005.043 2.964.043 1.958 0 2.19-.008 2.963-.043.715-.033 1.103-.152 1.362-.252a2.27 2.27 0 0 0 .843-.55c.256-.256.415-.5.548-.842.1-.259.22-.647.253-1.362.035-.773.043-1.005.043-2.963 0-1.958-.008-2.19-.043-2.964-.033-.715-.152-1.103-.253-1.361a2.273 2.273 0 0 0-.548-.843 2.272 2.272 0 0 0-.843-.549c-.259-.1-.647-.22-1.362-.253ZM5.555 8a2.444 2.444 0 1 0 4.89 0 2.444 2.444 0 0 0-4.89 0ZM4.234 8a3.766 3.766 0 1 1 7.531 0 3.766 3.766 0 0 1-7.531 0Zm7.68-3.035a.88.88 0 1 0 0-1.76.88.88 0 0 0 0 1.76Z"
      clip-rule="evenodd" />
  </mask>
</svg>