<svg xmlns="http://www.w3.org/2000/svg" width="32" height="32" fill="none" viewBox="0 0 32 32">
  <path fill="#3F3F46" fill-rule="evenodd"
    d="M9.953 1.422c1.564-.072 2.063-.089 6.047-.089 3.983 0 4.482.017 6.047.089 1.56.071 2.627.319 3.56.682a7.187 7.187 0 0 1 2.598 1.691 7.188 7.188 0 0 1 1.691 2.598c.363.933.61 1.999.682 3.56.072 1.565.088 2.064.088 6.047 0 3.983-.017 4.483-.088 6.047-.071 1.561-.32 2.627-.682 3.56a7.187 7.187 0 0 1-1.691 2.598 7.188 7.188 0 0 1-2.598 1.692c-.933.362-2 .61-3.56.682-1.565.07-2.064.088-6.047.088-3.984 0-4.483-.017-6.047-.088-1.562-.072-2.628-.32-3.56-.682a7.19 7.19 0 0 1-2.598-1.692 7.188 7.188 0 0 1-1.692-2.598c-.363-.933-.61-1.999-.682-3.56-.071-1.564-.088-2.064-.088-6.047 0-3.983.017-4.482.088-6.047.071-1.561.32-2.627.682-3.56a7.19 7.19 0 0 1 1.692-2.598 7.189 7.189 0 0 1 2.597-1.691c.933-.363 2-.611 3.56-.682Zm11.973 2.64c-1.546-.071-2.01-.086-5.926-.086-3.917 0-4.38.015-5.927.086-1.43.065-2.207.304-2.723.505a4.544 4.544 0 0 0-1.687 1.097A4.544 4.544 0 0 0 4.566 7.35c-.2.517-.44 1.294-.505 2.723-.07 1.547-.085 2.01-.085 5.927 0 3.916.014 4.38.085 5.927.065 1.43.304 2.206.505 2.723a4.545 4.545 0 0 0 1.097 1.687 4.545 4.545 0 0 0 1.687 1.097c.516.2 1.293.44 2.723.505 1.546.07 2.01.085 5.927.085 3.916 0 4.38-.015 5.926-.085 1.43-.066 2.207-.305 2.724-.505a4.545 4.545 0 0 0 1.686-1.098 4.546 4.546 0 0 0 1.097-1.686c.2-.517.44-1.293.505-2.723.07-1.547.086-2.01.086-5.927 0-3.916-.015-4.38-.086-5.927-.065-1.43-.304-2.206-.505-2.723a4.545 4.545 0 0 0-1.097-1.686 4.545 4.545 0 0 0-1.686-1.097c-.517-.201-1.294-.44-2.724-.505ZM11.111 16a4.889 4.889 0 1 0 9.778 0 4.889 4.889 0 0 0-9.778 0Zm-2.643 0a7.532 7.532 0 1 1 15.063 0 7.532 7.532 0 0 1-15.063 0Zm15.361-6.07a1.76 1.76 0 1 0 0-3.519 1.76 1.76 0 0 0 0 3.52Z"
    clip-rule="evenodd" />
  <mask id="a" width="30" height="30" x="1" y="1" maskUnits="userSpaceOnUse"
    style="mask-type:luminance">
    <path fill="#fff" fill-rule="evenodd"
      d="M9.953 1.422c1.564-.072 2.063-.089 6.047-.089 3.983 0 4.482.017 6.047.089 1.56.071 2.627.319 3.56.682a7.187 7.187 0 0 1 2.598 1.691 7.188 7.188 0 0 1 1.691 2.598c.363.933.61 1.999.682 3.56.072 1.565.088 2.064.088 6.047 0 3.983-.017 4.483-.088 6.047-.071 1.561-.32 2.627-.682 3.56a7.187 7.187 0 0 1-1.691 2.598 7.188 7.188 0 0 1-2.598 1.692c-.933.362-2 .61-3.56.682-1.565.07-2.064.088-6.047.088-3.984 0-4.483-.017-6.047-.088-1.562-.072-2.628-.32-3.56-.682a7.19 7.19 0 0 1-2.598-1.692 7.188 7.188 0 0 1-1.692-2.598c-.363-.933-.61-1.999-.682-3.56-.071-1.564-.088-2.064-.088-6.047 0-3.983.017-4.482.088-6.047.071-1.561.32-2.627.682-3.56a7.19 7.19 0 0 1 1.692-2.598 7.189 7.189 0 0 1 2.597-1.691c.933-.363 2-.611 3.56-.682Zm11.973 2.64c-1.546-.071-2.01-.086-5.926-.086-3.917 0-4.38.015-5.927.086-1.43.065-2.207.304-2.723.505a4.544 4.544 0 0 0-1.687 1.097A4.544 4.544 0 0 0 4.566 7.35c-.2.517-.44 1.294-.505 2.723-.07 1.547-.085 2.01-.085 5.927 0 3.916.014 4.38.085 5.927.065 1.43.304 2.206.505 2.723a4.545 4.545 0 0 0 1.097 1.687 4.545 4.545 0 0 0 1.687 1.097c.516.2 1.293.44 2.723.505 1.546.07 2.01.085 5.927.085 3.916 0 4.38-.015 5.926-.085 1.43-.066 2.207-.305 2.724-.505a4.545 4.545 0 0 0 1.686-1.098 4.546 4.546 0 0 0 1.097-1.686c.2-.517.44-1.293.505-2.723.07-1.547.086-2.01.086-5.927 0-3.916-.015-4.38-.086-5.927-.065-1.43-.304-2.206-.505-2.723a4.545 4.545 0 0 0-1.097-1.686 4.545 4.545 0 0 0-1.686-1.097c-.517-.201-1.294-.44-2.724-.505ZM11.111 16a4.889 4.889 0 1 0 9.778 0 4.889 4.889 0 0 0-9.778 0Zm-2.643 0a7.532 7.532 0 1 1 15.063 0 7.532 7.532 0 0 1-15.063 0Zm15.361-6.07a1.76 1.76 0 1 0 0-3.519 1.76 1.76 0 0 0 0 3.52Z"
      clip-rule="evenodd" />
  </mask>
</svg>