<svg xmlns="http://www.w3.org/2000/svg" width="24" height="24" fill="none" viewBox="0 0 24 24">
  <path stroke="#3F3F46" stroke-linecap="round" stroke-linejoin="round" stroke-width="1.5"
    d="M6.723 5.477a5.251 5.251 0 1 1 8.246 4.816" />
  <path stroke="#3F3F46" stroke-linecap="round" stroke-linejoin="round" stroke-width="1.5"
    d="M7.44 3.35A8.71 8.71 0 0 0 13.7 6a8.706 8.706 0 0 0 3.399-.687M10.823 9.75a1.5 1.5 0 1 0 0 3 1.5 1.5 0 0 0 0-3Z" />
  <path stroke="#3F3F46" stroke-linecap="round" stroke-linejoin="round" stroke-width="1.5"
    d="M4.823 7.172V8.25a3 3 0 0 0 3 3H9.29M21.7 23.25a9.74 9.74 0 0 0-5.234-8.636M2.2 23.25a9.741 9.741 0 0 1 5.22-8.63" />
</svg>