<svg xmlns="http://www.w3.org/2000/svg" width="32" height="32" fill="none" viewBox="0 0 32 32">
  <path stroke="#3F3F46" stroke-linecap="round" stroke-linejoin="round" stroke-width="2"
    d="M8.963 7.303a7.001 7.001 0 1 1 11.021 6.403" />
  <path stroke="#3F3F46" stroke-linecap="round" stroke-linejoin="round" stroke-width="2"
    d="M9.92 4.467A11.613 11.613 0 0 0 18.266 8c1.532.002 3.049-.3 4.462-.887M14.431 13a2 2 0 1 0 0 4 2 2 0 0 0 0-4ZM6.431 9.563V11a4 4 0 0 0 4 4h1.898M28.933 31a12.988 12.988 0 0 0-6.974-11.512M2.934 31a12.988 12.988 0 0 1 6.965-11.509" />
</svg>