<svg width="16" height="16" viewBox="0 0 16 16" fill="none" xmlns="http://www.w3.org/2000/svg">
    <path d="M2.75 6.00024C3.16421 6.00024 3.5 5.66446 3.5 5.25024C3.5 4.83603 3.16421 4.50024 2.75 4.50024C2.33579 4.50024 2 4.83603 2 5.25024C2 5.66446 2.33579 6.00024 2.75 6.00024Z" fill="#47474F"/>
    <path d="M11.25 9.50024C11.6642 9.50024 12 9.16446 12 8.75024C12 8.33603 11.6642 8.00024 11.25 8.00024C10.8358 8.00024 10.5 8.33603 10.5 8.75024C10.5 9.16446 10.8358 9.50024 11.25 9.50024Z" fill="#47474F"/>
    <path d="M1.5 11.5002C0.672667 11.5002 0 10.8276 0 10.0002V4.00024C0 3.17291 0.672667 2.50024 1.5 2.50024H12.5C13.3273 2.50024 14 3.17291 14 4.00024V10.0002C14 10.8276 13.3273 11.5002 12.5 11.5002H1.5ZM1.5 3.50024C1.224 3.50024 1 3.72424 1 4.00024V10.0002C1 10.2762 1.224 10.5002 1.5 10.5002H12.5C12.776 10.5002 13 10.2762 13 10.0002V4.00024C13 3.72424 12.776 3.50024 12.5 3.50024H1.5Z" fill="#47474F"/>
    <path d="M7 9.50024C5.62133 9.50024 4.5 8.37891 4.5 7.00024C4.5 5.62158 5.62133 4.50024 7 4.50024C8.37867 4.50024 9.5 5.62158 9.5 7.00024C9.5 8.37891 8.37867 9.50024 7 9.50024ZM7 5.50024C6.17267 5.50024 5.5 6.17291 5.5 7.00024C5.5 7.82758 6.17267 8.50024 7 8.50024C7.82733 8.50024 8.5 7.82758 8.5 7.00024C8.5 6.17291 7.82733 5.50024 7 5.50024Z" fill="#47474F"/>
    <path d="M3.5 13.5002C3.224 13.5002 3 13.2762 3 13.0002C3 12.7242 3.224 12.5002 3.5 12.5002H14.5C14.776 12.5002 15 12.2762 15 12.0002V6.00024C15 5.72424 15.224 5.50024 15.5 5.50024C15.776 5.50024 16 5.72424 16 6.00024V12.0002C16 12.8276 15.3273 13.5002 14.5 13.5002H3.5Z" fill="#47474F"/>
</svg>
