<svg width="24" height="24" viewBox="0 0 24 24" fill="none" xmlns="http://www.w3.org/2000/svg">
    <path d="M4.125 9C4.74632 9 5.25 8.49632 5.25 7.875C5.25 7.25368 4.74632 6.75 4.125 6.75C3.50368 6.75 3 7.25368 3 7.875C3 8.49632 3.50368 9 4.125 9Z" fill="#47474F"/>
    <path d="M16.875 14.25C17.4963 14.25 18 13.7463 18 13.125C18 12.5037 17.4963 12 16.875 12C16.2537 12 15.75 12.5037 15.75 13.125C15.75 13.7463 16.2537 14.25 16.875 14.25Z" fill="#47474F"/>
    <path d="M2.25 17.25C1.009 17.25 0 16.241 0 15V6C0 4.759 1.009 3.75 2.25 3.75H18.75C19.991 3.75 21 4.759 21 6V15C21 16.241 19.991 17.25 18.75 17.25H2.25ZM2.25 5.25C1.836 5.25 1.5 5.586 1.5 6V15C1.5 15.414 1.836 15.75 2.25 15.75H18.75C19.164 15.75 19.5 15.414 19.5 15V6C19.5 5.586 19.164 5.25 18.75 5.25H2.25Z" fill="#47474F"/>
    <path d="M10.5 14.25C8.432 14.25 6.75 12.568 6.75 10.5C6.75 8.432 8.432 6.75 10.5 6.75C12.568 6.75 14.25 8.432 14.25 10.5C14.25 12.568 12.568 14.25 10.5 14.25ZM10.5 8.25C9.259 8.25 8.25 9.259 8.25 10.5C8.25 11.741 9.259 12.75 10.5 12.75C11.741 12.75 12.75 11.741 12.75 10.5C12.75 9.259 11.741 8.25 10.5 8.25Z" fill="#47474F"/>
    <path d="M5.25 20.25C4.836 20.25 4.5 19.914 4.5 19.5C4.5 19.086 4.836 18.75 5.25 18.75H21.75C22.164 18.75 22.5 18.414 22.5 18V9C22.5 8.586 22.836 8.25 23.25 8.25C23.664 8.25 24 8.586 24 9V18C24 19.241 22.991 20.25 21.75 20.25H5.25Z" fill="#47474F"/>
</svg>
