<svg width="24" height="25" viewBox="0 0 24 25" fill="none" xmlns="http://www.w3.org/2000/svg">
<path d="M4.25 23.25L12.75 9.75001C12.8678 9.59671 13.0192 9.47254 13.1926 9.38709C13.366 9.30164 13.5567 9.2572 13.75 9.2572C13.9433 9.2572 14.134 9.30164 14.3074 9.38709C14.4808 9.47254 14.6322 9.59671 14.75 9.75001L23.25 23.25H4.25Z" stroke="#71717A" stroke-width="1.5" stroke-linecap="round" stroke-linejoin="round"/>
<path d="M4.24999 23.25L0.75 23.25L4.5 16.5L6.675 19.399" stroke="#71717A" stroke-width="1.5" stroke-linecap="round" stroke-linejoin="round"/>
<path d="M8.7002 16.183L11.0482 18.156C11.2396 18.3181 11.485 18.4023 11.7356 18.3919C11.9862 18.3815 12.2238 18.2773 12.4012 18.1L13.0432 17.457C13.2307 17.2695 13.485 17.1642 13.7502 17.1642C14.0154 17.1642 14.2697 17.2695 14.4572 17.457L15.0992 18.1C15.2766 18.2773 15.5142 18.3815 15.7648 18.3919C16.0154 18.4023 16.2607 18.3181 16.4522 18.156L18.8002 16.183" stroke="#71717A" stroke-width="1.5" stroke-linecap="round" stroke-linejoin="round"/>
<path d="M13.5 9.288V0.75" stroke="#71717A" stroke-width="1.5" stroke-linecap="round" stroke-linejoin="round"/>
<path d="M13.5 0.75H20.693C20.7912 0.750498 20.8872 0.778988 20.9697 0.832127C21.0522 0.885265 21.1179 0.960847 21.159 1.05C21.2013 1.13917 21.2179 1.23841 21.2067 1.33649C21.1956 1.43457 21.1572 1.52758 21.096 1.605L19.959 3.047C19.8857 3.14062 19.8459 3.25609 19.8459 3.375C19.8459 3.49391 19.8857 3.60938 19.959 3.703L21.1 5.147C21.1612 5.22462 21.1995 5.3178 21.2107 5.41603C21.2218 5.51426 21.2053 5.61365 21.163 5.703C21.122 5.79223 21.0564 5.86788 20.9738 5.92103C20.8912 5.97418 20.7952 6.00262 20.697 6.003H13.5" stroke="#71717A" stroke-width="1.5" stroke-linecap="round" stroke-linejoin="round"/>
</svg>
