<svg width="32" height="32" viewBox="0 0 32 32" fill="none" xmlns="http://www.w3.org/2000/svg">
<path d="M5.60205 31.0658L17.0062 12.9533C17.1642 12.7476 17.3674 12.581 17.6 12.4664C17.8326 12.3517 18.0885 12.2921 18.3479 12.2921C18.6072 12.2921 18.8631 12.3517 19.0957 12.4664C19.3284 12.581 19.5316 12.7476 19.6895 12.9533L31.0937 31.0658H5.60205Z" stroke="#71717A" stroke-width="1.5" stroke-linecap="round" stroke-linejoin="round"/>
<path d="M5.60207 31.0658L0.90625 31.0658L5.9375 22.0095L8.85562 25.899" stroke="#71717A" stroke-width="1.5" stroke-linecap="round" stroke-linejoin="round"/>
<path d="M11.5728 21.5842L14.723 24.2313C14.9798 24.4487 15.309 24.5616 15.6453 24.5477C15.9815 24.5338 16.3002 24.394 16.5383 24.1561L17.3996 23.2935C17.6512 23.0419 17.9924 22.9006 18.3482 22.9006C18.7039 22.9006 19.0451 23.0419 19.2967 23.2935L20.1581 24.1561C20.3961 24.394 20.7148 24.5338 21.0511 24.5477C21.3873 24.5616 21.7165 24.4487 21.9733 24.2313L25.1236 21.5842" stroke="#71717A" stroke-width="1.5" stroke-linecap="round" stroke-linejoin="round"/>
<path d="M18.0122 12.3334V0.878296" stroke="#71717A" stroke-width="1.5" stroke-linecap="round" stroke-linejoin="round"/>
<path d="M18.0122 0.878296H27.6628C27.7945 0.878964 27.9233 0.917189 28.034 0.988483C28.1448 1.05978 28.2329 1.16118 28.288 1.2808C28.3448 1.40044 28.367 1.53358 28.3521 1.66517C28.3371 1.79676 28.2857 1.92155 28.2035 2.02542L26.678 3.9601C26.5797 4.08571 26.5262 4.24064 26.5262 4.40017C26.5262 4.5597 26.5797 4.71463 26.678 4.84024L28.2089 6.7776C28.291 6.88175 28.3424 7.00676 28.3574 7.13855C28.3723 7.27034 28.3501 7.40369 28.2934 7.52357C28.2384 7.64328 28.1503 7.74478 28.0395 7.81609C27.9288 7.8874 27.7999 7.92556 27.6682 7.92607H18.0122" stroke="#71717A" stroke-width="1.5" stroke-linecap="round" stroke-linejoin="round"/>
</svg>
