<svg xmlns="http://www.w3.org/2000/svg" width="24" height="24" fill="none" viewBox="0 0 24 24">
  <path stroke="#3F3F46" stroke-linecap="round" stroke-linejoin="round" stroke-width="1.5"
    d="m4.202 22.299 8.106-12.62a1.222 1.222 0 0 1 1.907 0l7.107 12.62H4.202Z" />
  <path stroke="#3F3F46" stroke-linecap="round" stroke-linejoin="round" stroke-width="1.5"
    d="M5.202 22.3H1.68l3.773-6.793L7 17.5M8.68 16.188l1.987 1.986c.162.163.37.247.582.237a.79.79 0 0 0 .564-.294l.543-.647a.785.785 0 0 1 .599-.294c.224 0 .44.106.598.294l.544.647a.79.79 0 0 0 .563.294c.212.01.42-.074.582-.237l1.988-1.986M13.51 9.249v-7.59M13.51 1.659h7.237a.52.52 0 0 1 .47.302.532.532 0 0 1-.064.558L20.009 3.97a.536.536 0 0 0 0 .66l1.148 1.453a.534.534 0 0 1-.127.779.518.518 0 0 1-.279.083H13.51" />
</svg>