<svg xmlns="http://www.w3.org/2000/svg" width="32" height="32" fill="none" viewBox="0 0 32 32">
  <path stroke="#3F3F46" stroke-linecap="round" stroke-linejoin="round" stroke-width="2"
    d="m5.667 30.972 11.333-18a1.682 1.682 0 0 1 2.666 0l11.334 18H5.666Z" />
  <path stroke="#3F3F46" stroke-linecap="round" stroke-linejoin="round" stroke-width="2"
    d="M5.667 30.972H1l5-9 2.9 3.865M11.6 21.55l3.13 2.63a1.333 1.333 0 0 0 1.805-.074l.856-.858a1.333 1.333 0 0 1 1.885 0l.856.858a1.333 1.333 0 0 0 1.804.074l3.13-2.63M18 12.352V1.972M18 1.972h9.59a.688.688 0 0 1 .622.4.705.705 0 0 1-.084.74l-1.516 1.923a.71.71 0 0 0 0 .874l1.521 1.926a.707.707 0 0 1-.168 1.032.687.687 0 0 1-.369.109H18" />
</svg>