<svg width="32" height="32" viewBox="0 0 32 32" fill="none" xmlns="http://www.w3.org/2000/svg">
<path d="M15.9195 1.33356C19.1297 1.316 22.257 2.35218 24.8216 4.28313C27.3862 6.21409 29.2464 8.93315 30.1169 12.0231C30.9873 15.1131 30.8199 18.4034 29.6404 21.3891C28.4608 24.3748 26.3342 26.891 23.5869 28.5517C20.8395 30.2124 17.6232 30.9258 14.4313 30.5826C11.2395 30.2393 8.2484 28.8582 5.91702 26.6513C3.58564 24.4444 2.04273 21.5335 1.52501 18.3653C1.00729 15.197 1.54336 11.9464 3.05097 9.11221L3.5 8.5" stroke="#71717A" stroke-width="1.5" stroke-linecap="round" stroke-linejoin="round"/>
<path d="M7.78737 8.404C7.22475 8.96661 6.46169 9.28269 5.66603 9.28269C4.87038 9.28269 4.10731 8.96661 3.5447 8.404C2.98209 7.84139 2.66602 7.07832 2.66602 6.28267C2.66602 5.48701 2.98209 4.72395 3.5447 4.16133L5.66603 2.04L9.9087 6.28267L7.78737 8.404Z" stroke="#71717A" stroke-width="1.5" stroke-linecap="round" stroke-linejoin="round"/>
<path d="M6.37305 2.74667L7.78771 1.33334" stroke="#71717A" stroke-width="1.5" stroke-linecap="round" stroke-linejoin="round"/>
<path d="M9.20215 5.576L10.6155 4.16134" stroke="#71717A" stroke-width="1.5" stroke-linecap="round" stroke-linejoin="round"/>
<path d="M20 17.3333C20 18.3942 19.5786 19.4116 18.8284 20.1618C18.0783 20.9119 17.0609 21.3333 16 21.3333C14.9391 21.3333 13.9217 20.9119 13.1716 20.1618C12.4214 19.4116 12 18.3942 12 17.3333C12 15.124 16 9.33334 16 9.33334C16 9.33334 20 15.124 20 17.3333Z" stroke="#71717A" stroke-width="1.5" stroke-linecap="round" stroke-linejoin="round"/>
</svg>
