<svg width="32" height="32" viewBox="0 0 32 32" fill="none" xmlns="http://www.w3.org/2000/svg">
<path d="M11.1667 2H3.83333C2.82081 2 2 2.82081 2 3.83333V11.1667C2 12.1792 2.82081 13 3.83333 13H11.1667C12.1792 13 13 12.1792 13 11.1667V3.83333C13 2.82081 12.1792 2 11.1667 2Z" stroke="#71717A" stroke-width="1.5" stroke-linecap="round" stroke-linejoin="round"/>
<path d="M11.1667 19H3.83333C2.82081 19 2 19.8208 2 20.8333V28.1667C2 29.1792 2.82081 30 3.83333 30H11.1667C12.1792 30 13 29.1792 13 28.1667V20.8333C13 19.8208 12.1792 19 11.1667 19Z" stroke="#71717A" stroke-width="1.5" stroke-linecap="round" stroke-linejoin="round"/>
<path d="M28.1667 2H20.8333C19.8208 2 19 2.82081 19 3.83333V11.1667C19 12.1792 19.8208 13 20.8333 13H28.1667C29.1792 13 30 12.1792 30 11.1667V3.83333C30 2.82081 29.1792 2 28.1667 2Z" stroke="#71717A" stroke-width="1.5" stroke-linecap="round" stroke-linejoin="round"/>
<path d="M28.1667 19H20.8333C19.8208 19 19 19.8208 19 20.8333V28.1667C19 29.1792 19.8208 30 20.8333 30H28.1667C29.1792 30 30 29.1792 30 28.1667V20.8333C30 19.8208 29.1792 19 28.1667 19Z" stroke="#71717A" stroke-width="1.5" stroke-linecap="round" stroke-linejoin="round"/>
</svg>
