<svg xmlns="http://www.w3.org/2000/svg" width="24" height="24" fill="none" viewBox="0 0 24 24">
  <path stroke="#3F3F46" stroke-linecap="round" stroke-linejoin="round" stroke-width="1.5"
    d="M8.375 1.5h-5.5c-.76 0-1.375.616-1.375 1.375v5.5c0 .76.616 1.375 1.375 1.375h5.5c.76 0 1.375-.616 1.375-1.375v-5.5c0-.76-.616-1.375-1.375-1.375ZM8.375 14.25h-5.5c-.76 0-1.375.616-1.375 1.375v5.5c0 .76.616 1.375 1.375 1.375h5.5c.76 0 1.375-.616 1.375-1.375v-5.5c0-.76-.616-1.375-1.375-1.375ZM21.125 1.5h-5.5c-.76 0-1.375.616-1.375 1.375v5.5c0 .76.616 1.375 1.375 1.375h5.5c.76 0 1.375-.616 1.375-1.375v-5.5c0-.76-.616-1.375-1.375-1.375ZM21.125 14.25h-5.5c-.76 0-1.375.616-1.375 1.375v5.5c0 .76.616 1.375 1.375 1.375h5.5c.76 0 1.375-.616 1.375-1.375v-5.5c0-.76-.616-1.375-1.375-1.375Z" />
</svg>