<svg xmlns="http://www.w3.org/2000/svg" width="32" height="32" fill="none" viewBox="0 0 32 32">
  <path stroke="#3F3F46" stroke-linecap="round" stroke-linejoin="round" stroke-width="2"
    d="M11.556 2.667H4.445c-.982 0-1.778.795-1.778 1.777v7.111c0 .982.796 1.778 1.778 1.778h7.11c.983 0 1.779-.796 1.779-1.778v-7.11c0-.983-.796-1.779-1.778-1.779ZM11.556 18.666H4.445c-.982 0-1.778.796-1.778 1.778v7.111c0 .982.796 1.778 1.778 1.778h7.11c.983 0 1.779-.796 1.779-1.778v-7.11c0-.983-.796-1.779-1.778-1.779ZM27.556 2.667h-7.111c-.982 0-1.778.795-1.778 1.777v7.111c0 .982.796 1.778 1.778 1.778h7.11c.983 0 1.779-.796 1.779-1.778v-7.11c0-.983-.796-1.779-1.778-1.779ZM27.556 18.666h-7.111c-.982 0-1.778.796-1.778 1.778v7.111c0 .982.796 1.778 1.778 1.778h7.11c.983 0 1.779-.796 1.779-1.778v-7.11c0-.983-.796-1.779-1.778-1.779Z" />
</svg>