<svg width="24" height="24" viewBox="0 0 24 24" fill="none" xmlns="http://www.w3.org/2000/svg">
<path d="M8.66667 2H3.33333C2.59695 2 2 2.59695 2 3.33333V8.66667C2 9.40305 2.59695 10 3.33333 10H8.66667C9.40305 10 10 9.40305 10 8.66667V3.33333C10 2.59695 9.40305 2 8.66667 2Z" stroke="#71717A" stroke-width="1.5" stroke-linecap="round" stroke-linejoin="round"/>
<path d="M8.66667 14H3.33333C2.59695 14 2 14.597 2 15.3333V20.6667C2 21.403 2.59695 22 3.33333 22H8.66667C9.40305 22 10 21.403 10 20.6667V15.3333C10 14.597 9.40305 14 8.66667 14Z" stroke="#71717A" stroke-width="1.5" stroke-linecap="round" stroke-linejoin="round"/>
<path d="M20.6667 2H15.3333C14.597 2 14 2.59695 14 3.33333V8.66667C14 9.40305 14.597 10 15.3333 10H20.6667C21.403 10 22 9.40305 22 8.66667V3.33333C22 2.59695 21.403 2 20.6667 2Z" stroke="#71717A" stroke-width="1.5" stroke-linecap="round" stroke-linejoin="round"/>
<path d="M20.6667 14H15.3333C14.597 14 14 14.597 14 15.3333V20.6667C14 21.403 14.597 22 15.3333 22H20.6667C21.403 22 22 21.403 22 20.6667V15.3333C22 14.597 21.403 14 20.6667 14Z" stroke="#71717A" stroke-width="1.5" stroke-linecap="round" stroke-linejoin="round"/>
</svg>
