<svg xmlns="http://www.w3.org/2000/svg" width="32" height="32" fill="none" viewBox="0 0 32 32">
  <path stroke="#3F3F46" stroke-width="2"
    d="M1 21a4 4 0 0 1 4-4h22a4 4 0 0 1 4 4v3.667c0 .736-.596 1.333-1.333 1.333H2.334A1.333 1.333 0 0 1 1 24.667V21Z" />
  <path stroke="#3F3F46" stroke-linecap="round" stroke-linejoin="round" stroke-width="2"
    d="M5 21h3l-1 2M27 21h-3l1 2" />
  <path stroke="#3F3F46" stroke-width="2" d="M2 26v2a2 2 0 1 0 4 0v-2M26 26v2a2 2 0 1 0 4 0v-2" />
  <path stroke="#3F3F46" stroke-linecap="round" stroke-width="2" d="m4 17 2.5-6.5M28 17l-2.5-6.5" />
  <path stroke="#3F3F46" stroke-width="2"
    d="M14.821 2.237a1.333 1.333 0 0 1 2.359 0l.745 1.414c.208.394.599.658 1.042.704l1.432.149c1.183.123 1.626 1.615.701 2.363l-.802.65c-.395.319-.574.835-.462 1.33l.25 1.097c.247 1.093-.881 1.986-1.887 1.493l-1.612-.79a1.333 1.333 0 0 0-1.173 0l-1.612.79c-1.006.493-2.134-.4-1.886-1.493l.249-1.096a1.333 1.333 0 0 0-.462-1.332l-.803-.65c-.924-.747-.481-2.24.702-2.362l1.432-.149c.443-.046.834-.31 1.042-.704l.745-1.414Z" />
</svg>