<svg xmlns="http://www.w3.org/2000/svg" width="16" height="16" fill="none" viewBox="0 0 16 16">
  <path stroke="#3F3F46"
    d="M.518 10.429a2 2 0 0 1 2-2h10.964a2 2 0 0 1 2 2v1.76a.667.667 0 0 1-.667.666H1.185a.667.667 0 0 1-.667-.666v-1.76Z" />
  <path stroke="#3F3F46" stroke-linecap="round" stroke-linejoin="round"
    d="M2.667 10.666H4M13.333 10.666H12" />
  <path stroke="#3F3F46"
    d="M1.016 12.855v.97a.998.998 0 0 0 1.995 0v-.97M12.988 12.855v.97a.998.998 0 0 0 1.995 0v-.97" />
  <path stroke="#3F3F46" stroke-linecap="round"
    d="m2.014 8.428 1.247-3.197M13.985 8.428l-1.247-3.197" />
  <path stroke="#3F3F46"
    d="M7.412 1.167a.667.667 0 0 1 1.176 0l.37.694c.105.195.3.326.52.348l.693.071c.594.061.815.812.348 1.185l-.37.294c-.2.16-.291.421-.233.67l.117.512a.667.667 0 0 1-.94.75l-.803-.388a.667.667 0 0 0-.58 0l-.804.388a.667.667 0 0 1-.94-.75l.118-.511a.667.667 0 0 0-.234-.67l-.37-.295A.667.667 0 0 1 5.83 2.28l.692-.07a.667.667 0 0 0 .52-.35l.37-.693Z" />
</svg>