<svg xmlns="http://www.w3.org/2000/svg" width="32" height="32" fill="none" viewBox="0 0 32 32">
  <path stroke="#3F3F46" stroke-linecap="round" stroke-linejoin="round" stroke-width="2"
    d="m10 20 2.23-1.674a2.093 2.093 0 0 1 2.997 2.834l-2.193 3.29a6 6 0 0 1-2.767 2.242l-3.225 1.291M1 31v-6.77a6 6 0 0 1 .486-2.363l1.57-3.662a6 6 0 0 1 3.151-3.151l4.7-2.014" />
  <path stroke="#3F3F46" stroke-linecap="round" stroke-linejoin="round" stroke-width="2"
    d="M11 26.34V28a3 3 0 0 0 3 3h14a3 3 0 0 0 3-3V4a3 3 0 0 0-3-3h-3a4 4 0 1 1-8 0h-3a3 3 0 0 0-3 3v15.25" />
  <path stroke="#3F3F46" stroke-linecap="round" stroke-linejoin="round" stroke-width="2"
    d="m16.382 12.7 1.845 1.07 7.739-3.787M22.76 11.553 18.381 9M31 25h-4M23 25h-3" />
</svg>