<svg xmlns="http://www.w3.org/2000/svg" width="24" height="24" fill="none" viewBox="0 0 24 24">
  <path stroke="#3F3F46" stroke-linecap="round" stroke-linejoin="round" stroke-width="1.5"
    d="m7.198 14.321 1.645-1.234a1.543 1.543 0 0 1 2.209 2.09l-1.617 2.425a4.424 4.424 0 0 1-2.04 1.653l-2.383.955M1.563 22.433v-4.991c0-.6.121-1.192.357-1.743l1.157-2.7a4.424 4.424 0 0 1 2.324-2.324L7.916 9.17" />
  <path stroke="#3F3F46" stroke-linecap="round" stroke-linejoin="round" stroke-width="1.5"
    d="M7.936 18.84v1.168c0 .56.233 1.097.647 1.493.415.396.978.619 1.565.619H20.47c.586 0 1.149-.223 1.564-.619.415-.396.648-.933.648-1.493V3.112c0-.56-.233-1.097-.648-1.493A2.266 2.266 0 0 0 20.47 1h-2.212c0 .747-.31 1.463-.864 1.991a3.021 3.021 0 0 1-2.085.825 3.021 3.021 0 0 1-2.086-.825A2.753 2.753 0 0 1 12.36 1h-2.211c-.587 0-1.15.223-1.565.619a2.065 2.065 0 0 0-.647 1.493v10.736" />
  <path stroke="#3F3F46" stroke-linecap="round" stroke-linejoin="round" stroke-width="1.5"
    d="m11.903 9.939 1.36.79 5.709-2.794M16.605 9.094 13.378 7.21M22.682 18.008h-2.95M16.783 18.008h-2.212" />
</svg>