<svg xmlns="http://www.w3.org/2000/svg" width="32" height="32" fill="none" viewBox="0 0 32 32">
  <path fill="#3F3F46"
    d="m2.063 4 .59-.807a1 1 0 0 0-1.55.526l.96.281Zm25.033 18.4.834.553.018-.028.017-.03-.87-.494ZM20.838 8.843l-.091.996.09-.996ZM1.103 3.72c-2.542 8.696 1.528 17.332 7.45 21.895 2.972 2.29 6.49 3.618 9.969 3.353 3.516-.269 6.85-2.155 9.408-6.014l-1.668-1.105c-2.256 3.405-5.06 4.908-7.892 5.124-2.87.22-5.91-.874-8.596-2.942C4.384 19.877.752 12.049 3.023 4.28l-1.92-.56Zm26.862 19.176c.581-1.023.92-2.414 1.01-3.885a13.531 13.531 0 0 0-.538-4.695c-.954-3.141-3.262-6.08-7.508-6.469l-.182 1.992c3.197.293 4.98 2.438 5.776 5.058.4 1.317.534 2.722.456 3.99-.08 1.283-.37 2.348-.753 3.02l1.74.989ZM20.93 7.846c-5.586-.51-8.86-.746-11.424-1.327-2.482-.562-4.284-1.448-6.851-3.326L1.473 4.807C4.2 6.803 6.25 7.832 9.063 8.47c2.732.62 6.198.867 11.684 1.37l.182-1.993Z" />
  <path stroke="#3F3F46" stroke-linecap="round" stroke-width="2"
    d="M13.334 14.667c5.607 1.066 10.041 3.697 17.333 10.666" />
</svg>