<svg xmlns="http://www.w3.org/2000/svg" width="16" height="16" fill="none" viewBox="0 0 16 16">
  <path fill="#3F3F46"
    d="m1.031 2 .296-.404a.5.5 0 0 0-.776.264l.48.14Zm12.517 9.2.416.277.01-.015.008-.015-.434-.247Zm-3.13-6.779-.045.498.046-.498ZM.552 1.86c-1.27 4.347.764 8.665 3.726 10.947 1.485 1.145 3.244 1.809 4.984 1.676 1.758-.134 3.425-1.077 4.704-3.006l-.834-.553c-1.129 1.703-2.53 2.454-3.946 2.562-1.435.11-2.956-.437-4.298-1.471C2.192 9.938.376 6.025 1.51 2.14l-.96-.28Zm13.431 9.587c.29-.51.46-1.207.505-1.942a6.767 6.767 0 0 0-.269-2.347c-.477-1.571-1.63-3.04-3.754-3.235l-.09.996c1.598.146 2.49 1.219 2.887 2.53.2.657.267 1.36.228 1.994-.04.642-.185 1.174-.376 1.51l.87.494Zm-3.518-7.524c-2.793-.255-4.43-.373-5.712-.664-1.24-.28-2.142-.723-3.425-1.663l-.59.808C2.1 3.4 3.124 3.916 4.531 4.234c1.365.31 3.098.434 5.841.685l.091-.996Z" />
  <path stroke="#3F3F46" stroke-linecap="round" d="M6.667 7.333c2.803.534 5.02 1.849 8.666 5.334" />
</svg>