<svg xmlns="http://www.w3.org/2000/svg" width="24" height="24" fill="none" viewBox="0 0 24 24">
  <path fill="#3F3F46"
    d="m2.125 2.625.441-.607a.75.75 0 0 0-1.16.395l.719.212Zm18.5 14.25.624.416.015-.021.012-.023-.65-.372Zm-4.875-10.5-.068.747.068-.747ZM1.406 2.413c-1.971 6.701.917 13.378 5.278 16.92 2.187 1.775 4.8 2.809 7.418 2.602 2.643-.208 5.165-1.671 7.147-4.644l-1.248-.832c-1.768 2.652-3.902 3.814-6.017 3.98-2.14.17-4.386-.672-6.355-2.271-3.951-3.21-6.563-9.282-4.784-15.331l-1.44-.424Zm19.87 14.834c.45-.788.713-1.862.784-3 .071-1.147-.05-2.42-.418-3.628-.742-2.428-2.534-4.692-5.824-4.99l-.136 1.493c2.508.228 3.904 1.902 4.525 3.935a8.9 8.9 0 0 1 .356 3.098c-.062.995-.29 1.823-.589 2.348l1.302.744ZM15.818 5.628c-4.351-.396-6.644-.578-8.381-1.024-1.674-.428-2.832-1.103-4.87-2.586l-.883 1.214c2.087 1.517 3.429 2.325 5.38 2.825 1.887.484 4.345.676 8.618 1.065l.136-1.494Z" />
  <path stroke="#3F3F46" stroke-linecap="round" stroke-width="1.5"
    d="M10.3 11.625c4.125.75 7.386 2.6 12.75 7.5" />
</svg>