<svg xmlns="http://www.w3.org/2000/svg" width="24" height="24" fill="none" viewBox="0 0 24 24">
  <path fill="#3F3F46" fill-rule="evenodd"
    d="M4.165 21.938c-.16.915.819 1.613 1.656 1.18L12 19.933l6.179 3.187c.837.432 1.816-.266 1.656-1.18l-1.18-6.75 4.999-4.78c.678-.647.304-1.776-.633-1.91l-6.908-.984-3.09-6.14A1.13 1.13 0 0 0 12 .75a1.13 1.13 0 0 0-1.024.624l-3.09 6.14L.98 8.5c-.937.134-1.31 1.263-.633 1.91l4.999 4.78-1.18 6.75ZM12 17.401l5.23 2.697-.998-5.705 4.177-3.993-5.777-.824L12 4.346V17.4Z"
    clip-rule="evenodd" />
</svg>