<svg xmlns="http://www.w3.org/2000/svg" width="24" height="24" fill="none" viewBox="0 0 24 24">
  <path stroke="#3F3F46" stroke-linecap="round" stroke-linejoin="round" stroke-width="1.5"
    d="M20.246 9v-.752a3 3 0 0 0-3-3h-13.5a3 3 0 0 0-3 3v9a3 3 0 0 0 3 3h5.258M5.996 5.248v15M14.996 5.248V9" />
  <path stroke="#3F3F46" stroke-linecap="round" stroke-linejoin="round" stroke-width="1.5"
    d="M7.5 5.248v-3A1.5 1.5 0 0 1 9 .748h3a1.5 1.5 0 0 1 1.5 1.5v2.877M17.246 23.248a6 6 0 1 0 0-12 6 6 0 0 0 0 12Z" />
  <path stroke="#3F3F46" stroke-linecap="round" stroke-linejoin="round" stroke-width="1.5"
    d="M11.683 19.5H13.5A1.5 1.5 0 0 0 15 18v-.752l1.8-1.348a1.5 1.5 0 0 0 .3-2.1l-1.66-2.216M20.409 22.347l-.621-2.43a1.5 1.5 0 0 1 .785-1.707l2.63-1.323" />
</svg>