<svg xmlns="http://www.w3.org/2000/svg" width="32" height="32" fill="none" viewBox="0 0 32 32">
  <path stroke="#3F3F46" stroke-linecap="round" stroke-linejoin="round" stroke-width="2"
    d="M1 30.667h30M24 30.667V15.5c0-1.197-.86-2.167-1.92-2.167H9.92c-1.06 0-1.92.97-1.92 2.167v15.167" />
  <path stroke="#3F3F46" stroke-linecap="round" stroke-linejoin="round" stroke-width="2"
    d="M29.334 30.667V4a2.667 2.667 0 0 0-2.667-2.667H5.334A2.667 2.667 0 0 0 2.667 4v26.667" />
  <path stroke="#3F3F46" stroke-linecap="round" stroke-linejoin="round" stroke-width="2"
    d="M16.014 30.667a3.899 3.899 0 0 1-2.752-1.136c-2.202-2.202-1.029-5.332-.167-6.622l1.946 1.94L16.987 20c4.412 4.654 3.024 8.293 1.78 9.53a3.899 3.899 0 0 1-2.753 1.137Z" />
</svg>