<svg xmlns="http://www.w3.org/2000/svg" width="16" height="16" fill="none" viewBox="0 0 16 16"><path stroke="#3F3F46" stroke-linecap="round" stroke-linejoin="round" d="M8 15.333A7.333 7.333 0 1 0 8 .667a7.333 7.333 0 0 0 0 14.666ZM8 2.667v1M4 4l.707.707M2.333 8h1M7 12h2M12.666 8h1M4 12.04l.707-.707M12 12.04l-.707-.707"/><path stroke="#3F3F46" stroke-linecap="round" stroke-linejoin="round" d="M9.227 9.576a1.5 1.5 0 1 1-2.121-2.121c.586-.586 4.242-2.122 4.242-2.122S9.813 8.99 9.229 9.576Z"/></svg>