<svg xmlns="http://www.w3.org/2000/svg" width="16" height="16" fill="none" viewBox="0 0 16 16">
  <path stroke="#3F3F46" stroke-linecap="round" stroke-linejoin="round"
    d="m2.422 8.497.288-.763-.672-1.783a.61.61 0 0 1 .231-.72l1.578-1.043.492-1.841a.603.603 0 0 1 .225-.33.59.59 0 0 1 .38-.115L6.825 2 8.292.8a.59.59 0 0 1 .748 0L10.507 2l1.882-.096a.59.59 0 0 1 .38.115c.11.08.189.197.224.33l.492 1.841 1.578 1.043a.602.602 0 0 1 .23.72l-.67 1.783.67 1.782a.611.611 0 0 1-.23.72l-1.578 1.04-.494 1.842a.602.602 0 0 1-.225.33.59.59 0 0 1-.38.115l-1.882-.095-1.45 1.183M.832 12.248l1.663 2.495" />
  <path stroke="#3F3F46" stroke-linecap="round" stroke-linejoin="round"
    d="M11.194 11.248 2 14l-.667-1L7.44 5.333l3.755 5.915ZM7 4.667 11.667 12M4 13.544l.584.898a1.36 1.36 0 0 0 1.937.409 1.504 1.504 0 0 0 .391-2.027" />
</svg>