<svg xmlns="http://www.w3.org/2000/svg" width="24" height="24" fill="none" viewBox="0 0 24 24">
  <path stroke="#3F3F46" stroke-linecap="round" stroke-linejoin="round" stroke-width="1.462"
    d="m3.618 12.715.42-1.117-.981-2.608a.893.893 0 0 1 .338-1.052l2.307-1.525.72-2.693a.882.882 0 0 1 .328-.483.863.863 0 0 1 .556-.167l2.752.141 2.145-1.753a.864.864 0 0 1 1.094 0l2.145 1.753 2.752-.139a.863.863 0 0 1 .555.168c.161.118.277.288.33.483l.72 2.693 2.306 1.525a.892.892 0 0 1 .338 1.052l-.98 2.608.98 2.607a.893.893 0 0 1-.338 1.053l-2.307 1.52-.723 2.695a.882.882 0 0 1-.329.483.863.863 0 0 1-.556.168l-2.752-.14-2.13 1.738" />
  <path stroke="#3F3F46" stroke-linecap="round" stroke-linejoin="round" stroke-width="1.5"
    d="m1.248 18.371 2.495 3.743M16.79 16.872 3 21l-1-1.5L11.158 8l5.632 8.872ZM10.5 7l7 11M6 20.316l.876 1.346a2.041 2.041 0 0 0 2.906.614 2.256 2.256 0 0 0 .587-3.04" />
</svg>