<svg xmlns="http://www.w3.org/2000/svg" width="32" height="32" fill="none" viewBox="0 0 32 32">
  <path stroke="#3F3F46" stroke-linecap="round" stroke-linejoin="round" stroke-width="2"
    d="m4.846 16.995.575-1.527-1.343-3.566a1.222 1.222 0 0 1-.02-.802c.085-.262.255-.486.482-.637l3.155-2.086.984-3.683c.072-.266.23-.499.45-.66a1.18 1.18 0 0 1 .76-.23L13.652 4 16.586 1.6a1.182 1.182 0 0 1 1.495 0l2.934 2.397 3.764-.19c.271-.013.54.068.759.23.22.161.379.394.45.66l.984 3.683 3.155 2.086c.228.15.398.375.482.637.084.261.077.544-.02.802l-1.341 3.566 1.341 3.565c.097.257.104.54.02.802a1.205 1.205 0 0 1-.482.638l-3.155 2.079-.99 3.684c-.07.266-.229.5-.449.662a1.18 1.18 0 0 1-.76.229l-3.763-.19-2.9 2.364M1.664 24.495l3.327 4.99" />
  <path stroke="#3F3F46" stroke-linecap="round" stroke-linejoin="round" stroke-width="2"
    d="M22.387 22.496 4.002 28l-1.334-2 12.211-15.333 7.51 11.83ZM14.001 9.334 23.334 24M8 27.088l1.168 1.795a2.72 2.72 0 0 0 3.875.819 3.008 3.008 0 0 0 .783-4.054" />
</svg>