<svg xmlns="http://www.w3.org/2000/svg" width="16" height="16" fill="none" viewBox="0 0 16 16">
  <path stroke="#3F3F46" stroke-linecap="round" stroke-linejoin="round"
    d="M12 14a1.333 1.333 0 1 1 0-2.667A1.333 1.333 0 0 1 12 14ZM4.667 14a1.333 1.333 0 1 1 0-2.667 1.333 1.333 0 0 1 0 2.667ZM10.666 12H6" />
  <path stroke="#3F3F46" stroke-linecap="round"
    d="M10 12V4.667A2.667 2.667 0 0 0 7.333 2H2a.667.667 0 0 0-.667.667v.666M6 6H.667M6 8H2.667M13.334 8H10M1.333 10.667v.666c0 .369.299.667.667.667h1.333" />
  <path stroke="#3F3F46" stroke-linecap="round" stroke-linejoin="round"
    d="M10 5.333h1.808c.198 0 .392.058.56.166.17.109.305.264.394.448L13.334 8l1.316.439a1 1 0 0 1 .684.948V11a1 1 0 0 1-1 1h-1" />
</svg>